<?xml version="1.0" encoding="utf-8"?>
<!-- Generator: Adobe Illustrator 23.0.1, SVG Export Plug-In . SVG Version: 6.00 Build 0)  -->
<svg version="1.1" xmlns="http://www.w3.org/2000/svg" xmlns:xlink="http://www.w3.org/1999/xlink" x="0px" y="0px" width="195.6px"
	 height="96.7px" viewBox="0 0 195.6 96.7" style="enable-background:new 0 0 195.6 96.7;" xml:space="preserve">
<style type="text/css">
	.st0{fill:#FBD13B;}
	.st1{opacity:0.5;fill:url(#SVGID_1_);}
	.st2{fill:#333333;}
	.st3{opacity:0.5;fill:url(#SVGID_2_);}
	.st4{opacity:0.5;fill:url(#SVGID_3_);}
	.st5{opacity:0.5;fill:url(#SVGID_4_);}
	.st6{fill:#FFFFFF;}
</style>
<g id="Layer_1">
	<g>
		<g id="A">
			<path class="st0" d="M23.7,0c13.1,0,23.7,10.6,23.7,23.7S36.8,47.4,23.7,47.4S0,36.8,0,23.7S10.6,0,23.7,0z"/>
			<radialGradient id="SVGID_1_" cx="23.7" cy="23.7" r="23.7" gradientUnits="userSpaceOnUse">
				<stop  offset="0" style="stop-color:#FFFFFF"/>
				<stop  offset="0.229" style="stop-color:#FCFCFC;stop-opacity:0.9542"/>
				<stop  offset="0.3654" style="stop-color:#F4F4F4;stop-opacity:0.9269"/>
				<stop  offset="0.4774" style="stop-color:#E6E6E6;stop-opacity:0.9045"/>
				<stop  offset="0.5764" style="stop-color:#D2D2D2;stop-opacity:0.8847"/>
				<stop  offset="0.6667" style="stop-color:#B7B7B7;stop-opacity:0.8667"/>
				<stop  offset="0.7506" style="stop-color:#979797;stop-opacity:0.8499"/>
				<stop  offset="0.8298" style="stop-color:#717171;stop-opacity:0.834"/>
				<stop  offset="0.905" style="stop-color:#454545;stop-opacity:0.819"/>
				<stop  offset="0.9747" style="stop-color:#141414;stop-opacity:0.8051"/>
				<stop  offset="1" style="stop-color:#000000;stop-opacity:0.8"/>
			</radialGradient>
			<path class="st1" d="M23.7,0c13.1,0,23.7,10.6,23.7,23.7S36.8,47.4,23.7,47.4S0,36.8,0,23.7S10.6,0,23.7,0z"/>
		</g>
		<g>
			<path class="st2" d="M36.1,35.4c0.2,0.5,0.3,1,0.3,1.5s-0.2,0.9-0.7,1.3s-1.1,0.6-1.7,0.6s-1.2-0.2-1.5-0.4
				c-0.4-0.3-0.7-0.8-1-1.7l-2.3-6.2H18l-2.3,6.2c-0.3,0.8-0.6,1.4-1,1.7s-0.9,0.4-1.5,0.4s-1.2-0.2-1.7-0.6
				c-0.5-0.4-0.7-0.8-0.7-1.3s0.1-1,0.3-1.5l9.7-24.6C21.3,9.6,22.3,9,23.7,9s2.3,0.6,2.8,1.7L36.1,35.4z M25.2,19.4
				c-0.7-2-1.3-3.8-1.5-5.2h-0.2c-0.3,1.5-0.9,3.3-1.6,5.3l-2.7,7.3h8.6L25.2,19.4z"/>
		</g>
	</g>
	<g>
		<g id="B">
			<path class="st0" d="M73.1,0c13.1,0,23.7,10.6,23.7,23.7S86.2,47.4,73.1,47.4S49.4,36.8,49.4,23.7S60,0,73.1,0z"/>
			<radialGradient id="SVGID_2_" cx="73.1" cy="23.7" r="23.7" gradientUnits="userSpaceOnUse">
				<stop  offset="0" style="stop-color:#FFFFFF"/>
				<stop  offset="1" style="stop-color:#000000"/>
			</radialGradient>
			<path class="st3" d="M73.1,0c13.1,0,23.7,10.6,23.7,23.7S86.2,47.4,73.1,47.4S49.4,36.8,49.4,23.7S60,0,73.1,0z"/>
		</g>
		<g>
			<g>
				<path class="st2" d="M66.4,9.5h5.2c3.9,0,6.7,0.7,8.5,2.1s2.7,3,2.7,4.9s-0.6,3.5-1.7,4.6c-1.1,1.2-2.6,1.9-4.5,2.3v0.1
					c2.3,0.3,4.2,1.1,5.4,2.4c1.3,1.3,1.9,2.8,1.9,4.5c0,2.3-0.9,4.2-2.8,5.7s-4.7,2.3-8.4,2.3h-6.3c-1.2,0-2.1-0.3-2.8-1
					s-1.1-1.5-1.1-2.6V13.1c0-1.1,0.3-1.9,1.1-2.6C64.3,9.8,65.2,9.5,66.4,9.5z M68,13.1c-0.6,0-0.9,0.3-0.9,1v7.5h4
					c2.2,0,3.8-0.4,5-1.1s1.7-1.8,1.7-3.1c0-2.8-2.2-4.2-6.6-4.2L68,13.1L68,13.1z M67.2,25.2v8.4c0,0.6,0.3,1,0.9,1h4
					c2.3,0,4-0.4,5.1-1.3c1.1-0.8,1.6-2,1.6-3.5s-0.7-2.6-2.1-3.4s-3.2-1.2-5.4-1.2C71.3,25.2,67.2,25.2,67.2,25.2z"/>
			</g>
		</g>
	</g>
	<g>
		<g>
			<g id="Y_6_">
				<path class="st0" d="M171.9,0c13.1,0,23.7,10.6,23.7,23.7S185,47.4,171.9,47.4s-23.7-10.6-23.7-23.7S158.8,0,171.9,0L171.9,0z"
					/>
				<radialGradient id="SVGID_3_" cx="171.9" cy="23.7" r="23.7" gradientUnits="userSpaceOnUse">
					<stop  offset="0" style="stop-color:#FFFFFF"/>
					<stop  offset="1" style="stop-color:#000000"/>
				</radialGradient>
				<path class="st4" d="M171.9,0c13.1,0,23.7,10.6,23.7,23.7S185,47.4,171.9,47.4s-23.7-10.6-23.7-23.7S158.8,0,171.9,0L171.9,0z"
					/>
			</g>
			<g>
				<g>
					<path class="st2" d="M169.7,25.3l-8.9-12c-0.5-0.6-0.7-1.2-0.7-1.9c0-0.6,0.3-1.2,0.8-1.6c0.5-0.5,1.2-0.7,2-0.7s1.5,0.4,2,1.3
						l7.3,11.1l7.3-11c0.6-0.9,1.3-1.4,2.1-1.4s1.4,0.2,1.9,0.7s0.8,1,0.8,1.6s-0.2,1.2-0.7,1.8l-9.1,12v11.5c0,0.6-0.2,1.1-0.6,1.5
						c-0.4,0.4-1,0.6-1.8,0.6s-1.3-0.2-1.8-0.6s-0.6-0.9-0.6-1.5V25.3L169.7,25.3z"/>
				</g>
			</g>
		</g>
	</g>
	<g>
		<g id="X">
			<path class="st0" d="M122.5,0c13.1,0,23.7,10.6,23.7,23.7s-10.6,23.7-23.7,23.7S98.8,36.8,98.8,23.7l0,0
				C98.8,10.6,109.4,0,122.5,0z"/>
			<radialGradient id="SVGID_4_" cx="122.5" cy="23.7" r="23.7" gradientUnits="userSpaceOnUse">
				<stop  offset="0" style="stop-color:#FFFFFF"/>
				<stop  offset="1" style="stop-color:#000000"/>
			</radialGradient>
			<path class="st5" d="M122.5,0c13.1,0,23.7,10.6,23.7,23.7s-10.6,23.7-23.7,23.7S98.8,36.8,98.8,23.7l0,0
				C98.8,10.6,109.4,0,122.5,0z"/>
		</g>
		<g>
			<g>
				<path class="st2" d="M119.1,23.8L111,13.2c-0.5-0.7-0.8-1.3-0.8-1.9s0.3-1.1,0.8-1.5s1.2-0.7,1.9-0.7s1.4,0.4,2,1.2l7.1,10.4
					l7.2-10.4c0.6-0.8,1.2-1.2,2-1.2s1.4,0.2,1.9,0.7s0.7,1,0.7,1.5c0,0.6-0.2,1.1-0.7,1.8L125,23.7l8.2,10.8c0.5,0.7,0.8,1.4,0.8,2
					s-0.3,1.1-0.8,1.6c-0.5,0.4-1.1,0.7-1.9,0.7s-1.5-0.4-2-1.2L121.9,27l-7.4,10.7c-0.5,0.8-1.2,1.2-2,1.2s-1.4-0.2-1.9-0.7
					s-0.7-1-0.7-1.5s0.3-1.2,0.8-1.9L119.1,23.8z"/>
			</g>
		</g>
	</g>
	<g>
		<g id="A-2">
			<path class="st2" d="M23.7,49.4c13.1,0,23.7,10.6,23.7,23.7S36.8,96.8,23.7,96.8C10.6,96.7,0,86.1,0,73.1
				C0,60,10.6,49.4,23.7,49.4L23.7,49.4z"/>
		</g>
		<g>
			<path class="st6" d="M36.1,84.8c0.2,0.6,0.3,1.1,0.3,1.5s-0.2,0.9-0.7,1.3s-1.1,0.6-1.7,0.6s-1.2-0.2-1.5-0.4s-0.7-0.8-1-1.7
				l-2.3-6.2H18l-2.3,6.2c-0.3,0.8-0.6,1.4-1,1.7c-0.4,0.3-0.9,0.4-1.5,0.4S12,88,11.5,87.6s-0.7-0.8-0.7-1.3s0.1-1,0.3-1.5
				l9.7-24.7c0.5-1.2,1.5-1.8,2.9-1.8s2.3,0.6,2.8,1.7L36.1,84.8z M25.2,68.8c-0.7-2-1.3-3.8-1.5-5.2h-0.2c-0.3,1.5-0.9,3.3-1.6,5.3
				l-2.7,7.3h8.6L25.2,68.8z"/>
		</g>
	</g>
	<g>
		<g id="B-2">
			<path class="st2" d="M73.1,49.4c13.1,0,23.7,10.6,23.7,23.7S86.2,96.8,73.1,96.8S49.4,86.1,49.4,73.1l0,0
				C49.4,60,60,49.4,73.1,49.4z"/>
		</g>
		<g>
			<g>
				<path class="st6" d="M66.4,58.8h5.2c3.9,0,6.7,0.7,8.5,2.1c1.8,1.4,2.7,3,2.7,4.9s-0.6,3.5-1.7,4.6s-2.6,1.9-4.5,2.3v0.1
					c2.3,0.3,4.2,1.1,5.4,2.4s1.9,2.8,1.9,4.5c0,2.3-0.9,4.2-2.8,5.7s-4.7,2.3-8.4,2.3h-6.3c-1.2,0-2.1-0.3-2.8-1s-1.1-1.5-1.1-2.6
					V62.4c0-1.1,0.3-2,1.1-2.6C64.3,59.2,65.2,58.8,66.4,58.8z M68,62.5c-0.6,0-0.9,0.3-0.9,1V71h4c2.2,0,3.8-0.4,5-1.1
					s1.7-1.8,1.7-3.1c0-2.8-2.2-4.2-6.6-4.2L68,62.5L68,62.5z M67.2,74.6V83c0,0.6,0.3,1,0.9,1h4c2.3,0,4-0.4,5.1-1.3s1.6-2,1.6-3.5
					s-0.7-2.6-2.1-3.4s-3.2-1.2-5.4-1.2H67.2z"/>
			</g>
		</g>
	</g>
	<g>
		<g id="Y-2">
			<path class="st2" d="M171.9,49.4c13.1,0,23.7,10.6,23.7,23.7S185,96.8,171.9,96.8s-23.7-10.6-23.7-23.7l0,0
				C148.2,60,158.8,49.4,171.9,49.4z"/>
		</g>
		<g>
			<g>
				<path class="st6" d="M169.7,74.7l-8.9-12c-0.5-0.6-0.7-1.2-0.7-1.8s0.3-1.2,0.8-1.6c0.5-0.5,1.2-0.7,2-0.7s1.5,0.4,2,1.3
					l7.3,11.1l7.3-11c0.6-0.9,1.3-1.4,2.1-1.4s1.4,0.2,1.9,0.7s0.8,1,0.8,1.6s-0.2,1.2-0.7,1.8l-9.1,12.1v11.5
					c0,0.6-0.2,1.1-0.6,1.5c-0.4,0.4-1,0.6-1.8,0.6s-1.3-0.2-1.8-0.6s-0.6-0.9-0.6-1.5V74.7L169.7,74.7z"/>
			</g>
		</g>
	</g>
	<g>
		<g id="X-2">
			<path class="st2" d="M122.5,49.4c13.1,0,23.7,10.6,23.7,23.7s-10.6,23.7-23.7,23.7S98.8,86.2,98.8,73.1l0,0
				C98.8,60,109.4,49.4,122.5,49.4z"/>
		</g>
		<g>
			<g>
				<path class="st6" d="M119.1,73.2L111,62.6c-0.5-0.7-0.8-1.3-0.8-1.9s0.3-1.1,0.8-1.5c0.5-0.5,1.2-0.7,1.9-0.7s1.4,0.4,2,1.2
					l7.1,10.4l7.2-10.4c0.6-0.8,1.2-1.2,2-1.2s1.4,0.2,1.9,0.7s0.7,1,0.7,1.5s-0.2,1.2-0.7,1.8L125,73.1l8.2,10.8
					c0.5,0.7,0.8,1.4,0.8,2s-0.3,1.1-0.8,1.6c-0.5,0.4-1.1,0.7-1.9,0.7s-1.5-0.4-2-1.2l-7.4-10.6L114.6,87c-0.5,0.8-1.2,1.2-2,1.2
					s-1.4-0.2-1.9-0.7c-0.5-0.4-0.7-1-0.7-1.5s0.3-1.2,0.8-1.9L119.1,73.2z"/>
			</g>
		</g>
	</g>
</g>
<g id="レイヤー_2">
</g>
</svg>
