<?xml version="1.0" encoding="utf-8"?>
<!-- Generator: Adobe Illustrator 23.0.1, SVG Export Plug-In . SVG Version: 6.00 Build 0)  -->
<svg version="1.1" id="Layer_1" xmlns="http://www.w3.org/2000/svg" xmlns:xlink="http://www.w3.org/1999/xlink" x="0px" y="0px"
	 width="195.57px" height="96.74px" viewBox="0 0 195.57 96.74" enable-background="new 0 0 195.57 96.74" xml:space="preserve">
<g>
	<g id="A">
		<path fill="#00C5B0" d="M23.69,0c13.08,0.01,23.68,10.61,23.67,23.69c-0.01,13.08-10.61,23.68-23.69,23.67
			C10.6,47.35,0,36.75,0,23.68C0.01,10.6,10.61,0,23.69,0z"/>
	</g>
	<g>
		<path fill="#FFFFFF" d="M36.13,35.38c0.21,0.55,0.31,1.05,0.31,1.52s-0.24,0.91-0.72,1.31c-0.48,0.4-1.06,0.61-1.73,0.61
			c-0.67,0-1.19-0.15-1.55-0.44c-0.36-0.29-0.7-0.84-1-1.65l-2.27-6.23H17.97l-2.25,6.23c-0.29,0.83-0.61,1.39-0.98,1.67
			c-0.36,0.28-0.87,0.42-1.52,0.42c-0.65,0-1.22-0.2-1.71-0.6c-0.49-0.4-0.73-0.83-0.73-1.3s0.1-0.97,0.31-1.5l9.73-24.65
			c0.51-1.22,1.46-1.84,2.86-1.84c1.4,0,2.32,0.57,2.76,1.72L36.13,35.38z M25.22,19.39c-0.74-2.02-1.25-3.76-1.52-5.21h-0.16
			c-0.34,1.51-0.87,3.26-1.6,5.25l-2.68,7.27h8.63L25.22,19.39z"/>
	</g>
</g>
<g>
	<g id="B">
		<path fill="#00C5B0" d="M73.08,0c13.08,0,23.69,10.61,23.69,23.69S86.16,47.38,73.08,47.38S49.39,36.77,49.39,23.69
			C49.4,10.61,60,0.01,73.08,0z"/>
	</g>
	<g>
		<g>
			<path fill="#FFFFFF" d="M66.36,9.47h5.23c3.88,0,6.71,0.69,8.5,2.06c1.78,1.37,2.68,3.02,2.68,4.93s-0.55,3.46-1.65,4.63
				c-1.1,1.17-2.61,1.92-4.52,2.25v0.14c2.34,0.34,4.15,1.14,5.42,2.39c1.27,1.26,1.9,2.76,1.9,4.52c0,2.25-0.95,4.16-2.84,5.73
				c-1.89,1.57-4.68,2.35-8.37,2.35h-6.35c-1.17,0-2.11-0.33-2.82-0.98c-0.71-0.65-1.06-1.52-1.06-2.6V13.06
				c0-1.08,0.35-1.95,1.06-2.61C64.25,9.79,65.19,9.47,66.36,9.47z M68.04,13.1c-0.59,0-0.88,0.32-0.88,0.96v7.48h3.96
				c2.19,0,3.85-0.37,5-1.1c1.15-0.74,1.72-1.78,1.72-3.13c0-2.8-2.19-4.2-6.56-4.2H68.04z M67.16,25.19v8.44
				c0,0.64,0.29,0.96,0.88,0.96h4c2.33,0,4.03-0.43,5.11-1.28c1.07-0.85,1.61-2.01,1.61-3.48s-0.71-2.6-2.12-3.42
				c-1.41-0.81-3.2-1.22-5.36-1.22H67.16z"/>
		</g>
	</g>
</g>
<g>
	<g id="Y">
		<path fill="#00C5B0" d="M171.87,0c13.08,0,23.69,10.61,23.69,23.69s-10.61,23.69-23.69,23.69c-13.08,0-23.69-10.61-23.69-23.69
			S158.79,0,171.87,0C171.87,0,171.87,0,171.87,0z"/>
	</g>
	<g>
		<g>
			<path fill="#FFFFFF" d="M169.73,25.31l-8.87-12.01c-0.48-0.61-0.72-1.23-0.72-1.85c0-0.62,0.27-1.17,0.81-1.64
				c0.54-0.48,1.2-0.71,1.99-0.71c0.79,0,1.46,0.42,2,1.25l7.27,11.11l7.25-10.96c0.64-0.94,1.33-1.41,2.08-1.41
				c0.75,0,1.39,0.24,1.92,0.73c0.53,0.49,0.8,1.03,0.8,1.61s-0.23,1.18-0.68,1.78l-9.08,12.05v11.46c0,0.63-0.21,1.13-0.63,1.51
				c-0.42,0.38-1.01,0.58-1.77,0.58c-0.76,0-1.34-0.19-1.75-0.56s-0.62-0.88-0.62-1.53V25.31z"/>
		</g>
	</g>
</g>
<g>
	<g id="X">
		<path fill="#00C5B0" d="M122.47,0c13.08-0.01,23.69,10.6,23.7,23.68s-10.6,23.69-23.68,23.7S98.8,36.78,98.79,23.7
			c0,0,0-0.01,0-0.01C98.8,10.61,109.39,0.01,122.47,0z"/>
	</g>
	<g>
		<g>
			<path fill="#FFFFFF" d="M119.05,23.78L111,13.22c-0.51-0.69-0.76-1.32-0.76-1.9c0-0.58,0.26-1.09,0.77-1.54
				c0.51-0.45,1.16-0.67,1.93-0.67c0.77,0,1.44,0.4,1.98,1.21l7.11,10.39l7.21-10.39c0.56-0.81,1.23-1.21,2.01-1.21
				s1.41,0.23,1.89,0.69c0.48,0.46,0.72,0.97,0.72,1.53c0,0.56-0.23,1.15-0.7,1.78L125,23.74l8.2,10.84c0.53,0.74,0.8,1.41,0.8,2.01
				c0,0.6-0.25,1.12-0.75,1.56c-0.5,0.44-1.15,0.66-1.95,0.66s-1.47-0.4-2.02-1.19l-7.36-10.64l-7.36,10.68
				c-0.52,0.77-1.18,1.15-1.98,1.15s-1.44-0.22-1.92-0.67c-0.48-0.45-0.72-0.96-0.72-1.54c0-0.58,0.25-1.2,0.76-1.87L119.05,23.78z"
				/>
		</g>
	</g>
</g>
<g>
	<g id="A-2">
		<path fill="#FFFFFF" d="M23.69,49.38c13.08,0.01,23.68,10.61,23.67,23.69c-0.01,13.08-10.61,23.68-23.69,23.67
			C10.6,96.73,0,86.13,0,73.06c0-13.08,10.6-23.68,23.68-23.68C23.68,49.38,23.69,49.38,23.69,49.38z"/>
	</g>
	<g>
		<path fill="#BBBBBB" d="M36.13,84.75c0.21,0.55,0.31,1.05,0.31,1.52s-0.24,0.91-0.72,1.31c-0.48,0.4-1.06,0.61-1.73,0.61
			c-0.67,0-1.19-0.15-1.55-0.44c-0.36-0.29-0.7-0.84-1-1.65l-2.27-6.23H17.97l-2.25,6.23c-0.29,0.83-0.61,1.39-0.98,1.67
			c-0.36,0.28-0.87,0.42-1.52,0.42c-0.65,0-1.22-0.2-1.71-0.6s-0.73-0.83-0.73-1.3s0.1-0.97,0.31-1.5l9.73-24.65
			c0.51-1.22,1.46-1.84,2.86-1.84c1.4,0,2.32,0.57,2.76,1.72L36.13,84.75z M25.22,68.76c-0.74-2.02-1.25-3.76-1.52-5.21h-0.16
			c-0.34,1.51-0.87,3.26-1.6,5.25l-2.68,7.27h8.63L25.22,68.76z"/>
	</g>
</g>
<g>
	<g id="B-2">
		<path fill="#FFFFFF" d="M73.08,49.37c13.08,0,23.69,10.61,23.69,23.69S86.16,96.75,73.08,96.75S49.39,86.14,49.39,73.06l0,0
			C49.4,59.98,60,49.38,73.08,49.37z"/>
	</g>
	<g>
		<g>
			<path fill="#BBBBBB" d="M66.36,58.84h5.23c3.88,0,6.71,0.69,8.5,2.06c1.78,1.37,2.68,3.02,2.68,4.93c0,1.91-0.55,3.46-1.65,4.63
				c-1.1,1.17-2.61,1.92-4.52,2.25v0.14c2.34,0.34,4.15,1.14,5.42,2.39s1.9,2.76,1.9,4.52c0,2.25-0.95,4.16-2.84,5.73
				s-4.68,2.35-8.37,2.35h-6.35c-1.17,0-2.11-0.33-2.82-0.98c-0.71-0.65-1.06-1.52-1.06-2.6V62.43c0-1.08,0.35-1.95,1.06-2.61
				C64.25,59.16,65.19,58.84,66.36,58.84z M68.04,62.47c-0.59,0-0.88,0.32-0.88,0.96v7.48h3.96c2.19,0,3.85-0.37,5-1.1
				c1.15-0.74,1.72-1.78,1.72-3.13c0-2.8-2.19-4.2-6.56-4.2H68.04z M67.16,74.56V83c0,0.64,0.29,0.96,0.88,0.96h4
				c2.33,0,4.03-0.43,5.11-1.28s1.61-2.01,1.61-3.48s-0.71-2.6-2.12-3.42c-1.41-0.81-3.2-1.22-5.36-1.22H67.16z"/>
		</g>
	</g>
</g>
<g>
	<g id="Y-2">
		<path fill="#FFFFFF" d="M171.87,49.37c13.08,0,23.69,10.61,23.69,23.69s-10.61,23.69-23.69,23.69
			c-13.08,0-23.69-10.61-23.69-23.69l0,0C148.19,59.98,158.79,49.38,171.87,49.37z"/>
	</g>
	<g>
		<g>
			<path fill="#BBBBBB" d="M169.73,74.68l-8.87-12.01c-0.48-0.61-0.72-1.23-0.72-1.85s0.27-1.17,0.81-1.64
				c0.54-0.48,1.2-0.71,1.99-0.71c0.79,0,1.46,0.42,2,1.25l7.27,11.11l7.25-10.96c0.64-0.94,1.33-1.41,2.08-1.41
				c0.75,0,1.39,0.24,1.92,0.73c0.53,0.49,0.8,1.03,0.8,1.61s-0.23,1.18-0.68,1.78l-9.08,12.05V86.1c0,0.63-0.21,1.13-0.63,1.51
				c-0.42,0.38-1.01,0.58-1.77,0.58c-0.76,0-1.34-0.19-1.75-0.56s-0.62-0.88-0.62-1.53V74.68z"/>
		</g>
	</g>
</g>
<g>
	<g id="X-2">
		<path fill="#FFFFFF" d="M122.47,49.37c13.08-0.01,23.69,10.6,23.7,23.68s-10.6,23.69-23.68,23.7
			c-13.08,0.01-23.69-10.6-23.7-23.68c0,0,0-0.01,0-0.01C98.8,59.98,109.39,49.38,122.47,49.37z"/>
	</g>
	<g>
		<g>
			<path fill="#BBBBBB" d="M119.05,73.15L111,62.59c-0.51-0.69-0.76-1.33-0.76-1.9s0.26-1.09,0.77-1.54
				c0.51-0.45,1.16-0.67,1.93-0.67c0.77,0,1.44,0.4,1.98,1.21l7.11,10.39l7.21-10.39c0.56-0.81,1.23-1.21,2.01-1.21
				s1.41,0.23,1.89,0.69c0.48,0.46,0.72,0.97,0.72,1.53s-0.23,1.15-0.7,1.78L125,73.11l8.2,10.84c0.53,0.74,0.8,1.41,0.8,2.01
				s-0.25,1.12-0.75,1.56c-0.5,0.44-1.15,0.66-1.95,0.66s-1.47-0.4-2.02-1.19l-7.36-10.64l-7.36,10.68
				c-0.52,0.77-1.18,1.15-1.98,1.15s-1.44-0.22-1.92-0.67c-0.48-0.45-0.72-0.96-0.72-1.54s0.25-1.2,0.76-1.87L119.05,73.15z"/>
		</g>
	</g>
</g>
</svg>
