<?xml version="1.0" encoding="utf-8"?>
<!-- Generator: Adobe Illustrator 23.0.1, SVG Export Plug-In . SVG Version: 6.00 Build 0)  -->
<svg version="1.1" id="Layer_1" xmlns="http://www.w3.org/2000/svg" xmlns:xlink="http://www.w3.org/1999/xlink" x="0px" y="0px"
	 width="750px" height="630.5px" viewBox="0 0 750 630.5" style="enable-background:new 0 0 750 630.5;" xml:space="preserve">
<style type="text/css">
	.st0{fill:none;}
	.st1{fill:#AAAAAA;}
	.st2{fill:#CCCCCC;}
	.st3{fill:url(#SVGID_1_);}
	.st4{fill:url(#SVGID_2_);}
	.st5{fill:url(#SVGID_3_);}
	.st6{fill:url(#SVGID_4_);}
	.st7{fill:url(#SVGID_5_);}
	.st8{fill:#888888;stroke:#888888;stroke-miterlimit:10;}
	.st9{fill:#FF531A;stroke:#BA0037;stroke-miterlimit:10;}
</style>
<pattern  y="630.5" width="26" height="67" patternUnits="userSpaceOnUse" id="新規パターンスウォッチ_1" viewBox="0 -67 26 67" style="overflow:visible;">
	<g>
		<rect y="-67" class="st0" width="26" height="67"/>
		<rect y="-67" class="st1" width="13" height="67"/>
		<rect y="-67" class="st1" width="13" height="67"/>
		<rect x="13" y="-67" class="st2" width="13" height="67"/>
	</g>
</pattern>
<g id="Layer_1-2">
	
		<pattern  id="SVGID_1_" xlink:href="#譁ｰ隕上ヱ繧ｿ繝ｼ繝ｳ繧ｹ繧ｦ繧ｩ繝メ_1" patternTransform="matrix(-0.7986 -0.6018 0.6018 -0.7986 -8906.4785 -20103.3906)">
	</pattern>
	<path class="st3" d="M664.4,214c-6.7-16.7-20.5-20.9-21.8-22c-11.7-10.3-2.5-21.2-20-30.7c-18.3-9.9-72-37-114.2-31.4
		c-9.2,1.2-27.8,17.6-41.2,17.6H282.8c-13.4,0-32-16.4-41.2-17.6c-42.2-5.6-95.9,21.5-114.2,31.4c-17.5,9.5-8.2,20.4-19.9,30.7
		c-1.3,1.1-15.1,5.3-21.8,22C22.9,370-1.7,469.1,0.1,529.1C3,623.5,76.7,630.5,76.7,630.5c37-8.6,111.6-129.1,168.5-129.1h259.6
		c57,0,131.5,120.5,168.5,129.1c0,0,73.7-6.9,76.6-101.3C751.8,469.1,727.1,370,664.4,214z"/>
	<g>
		<g>
			
				<pattern  id="SVGID_2_" xlink:href="#譁ｰ隕上ヱ繧ｿ繝ｼ繝ｳ繧ｹ繧ｦ繧ｩ繝メ_1" patternTransform="matrix(-0.7986 -0.6018 0.6018 -0.7986 -8906.4785 -20103.3906)">
			</pattern>
			<path class="st4" d="M549.1,5.5c-0.4-0.3-0.8-0.6-1.2-0.9l-2.3,110l53.3,7.2C586.7,5,555.8,10.8,549.1,5.5z"/>
			
				<pattern  id="SVGID_3_" xlink:href="#譁ｰ隕上ヱ繧ｿ繝ｼ繝ｳ繧ｹ繧ｦ繧ｩ繝メ_1" patternTransform="matrix(-0.7986 -0.6018 0.6018 -0.7986 -8906.4785 -20103.3906)">
			</pattern>
			<path class="st5" d="M522,0.1c-10.8,0.4-12,11.4-12.1,15.2v1.2c1.8,31,1.8,62.1,0,93.1c9.9,2.3,38.5,5.3,38.5,5.3
				s0-20.9,0.7-50.6c0.8-37.5-1.2-59.8-1.2-59.8C541.5,0.1,534.3-0.3,522,0.1z"/>
		</g>
		<g>
			
				<pattern  id="SVGID_4_" xlink:href="#譁ｰ隕上ヱ繧ｿ繝ｼ繝ｳ繧ｹ繧ｦ繧ｩ繝メ_1" patternTransform="matrix(-0.7986 -0.6018 0.6018 -0.7986 -8906.4785 -20103.3906)">
			</pattern>
			<path class="st6" d="M201,5.5c0.4-0.3,0.8-0.6,1.2-0.9l2.3,110l-53.3,7.2C163.4,5,194.2,10.8,201,5.5z"/>
			
				<pattern  id="SVGID_5_" xlink:href="#譁ｰ隕上ヱ繧ｿ繝ｼ繝ｳ繧ｹ繧ｦ繧ｩ繝メ_1" patternTransform="matrix(-0.7986 -0.6018 0.6018 -0.7986 -8906.4785 -20103.3906)">
			</pattern>
			<path class="st7" d="M228,0.1c10.8,0.4,12.1,11.4,12.2,15.2v1.2c-1.8,31-1.8,62.1,0,93.1c-9.9,2.3-38.5,5.3-38.5,5.3
				s0-20.9-0.7-50.6c-0.8-37.5,1.2-59.8,1.2-59.8C208.6,0.1,215.8-0.3,228,0.1z"/>
		</g>
	</g>
	<g>
		<path class="st8" d="M175.8,318.6c5.6,0,9.8,0.4,12.3,1.2c4.9,1.5,8.8,5,11.5,10.4c2,3.8,2.9,8.6,2.9,14.5c0,12-3.2,19.9-9.7,24.1
			c-2,1.3-4.1,2.1-6.3,2.5s-5.5,0.6-10,0.6h-17.5v-53.3H175.8z M167.6,365h9.8c6,0,10.3-1.7,12.7-5.2c2.3-3.2,3.4-7.9,3.4-14
			c0-6.7-1.3-12-3.9-15.7c-1.2-1.7-2.8-3-4.7-3.8c-2-0.7-4.7-1.1-8-1.1h-9.3V365z"/>
		<path class="st8" d="M209.8,318.6h7.8v8h-7.8V318.6z M217.6,332.9v38.9h-7.8v-38.9H217.6z"/>
		<path class="st8" d="M255.1,339h-14.5c-2.7,0-4.4,0.1-5.2,0.2c-0.7,0.1-1.3,0.4-1.9,0.9c-0.9,0.9-1.4,2.4-1.4,4.4s0.5,3.3,1.5,3.9
			c1,0.5,3,0.9,6.3,0.9h2.1c4.3,0.1,7,0.2,8,0.2s2,0.4,2.8,0.9c2.6,1.6,3.9,4.9,3.9,9.8c0,5.5-1.6,9.1-5,10.5
			c-0.9,0.4-2,0.7-3.2,0.9s-3.4,0.2-6.5,0.2h-17.4v-6.1h15.5c3.7,0,5.9-0.2,6.6-0.5c1.3-0.5,2-2,2-4.4s-0.8-3.8-2.4-4.3
			c-0.7-0.2-2.6-0.3-5.6-0.3h-0.1c-4.1,0-7-0.2-8.4-0.4s-2.7-0.9-3.9-1.7c-2.7-2.3-4.1-5.5-4.1-9.7c0-2.3,0.5-4.2,1.3-6
			s2.1-3,3.8-3.9c2-1,5.1-1.6,9.3-1.6h16.5V339z"/>
		<path class="st8" d="M295.1,339h-12.5c-2.4,0-4.4,0.3-5.8,0.9c-1.5,0.5-2.7,1.5-3.6,2.8c-1.6,2.3-2.3,5.5-2.3,9.8
			c0,5.1,1.1,8.8,3.3,10.9c1.6,1.6,4.4,2.4,8.4,2.4h12.5v6.1h-12.5c-4.1,0-7.2-0.4-9.4-1.1c-3.8-1.2-6.6-3.8-8.4-8.1
			c-1.3-2.9-1.9-6.1-1.9-9.5c0-6.3,1.7-11.3,5.2-15c1.7-1.9,3.8-3.2,5.9-4s5.1-1.2,8.6-1.2h12.5V339z"/>
		<path class="st8" d="M332.5,337.8c3.3,3.4,4.9,8.3,4.9,14.7c0,6-1.6,10.7-4.9,14.2c-3.5,3.7-8,5.5-13.2,5.5
			c-5.6,0-10.2-1.9-13.6-5.6c-3-3.2-4.5-7.7-4.5-13.6c0-6.3,1.6-11.3,5-15c3.4-3.7,7.9-5.5,13.6-5.6
			C324.8,332.5,329.1,334.3,332.5,337.8z M312.3,342.5c-2.1,2.3-3.1,5.7-3.1,10.1c0,4.1,0.9,7.3,2.5,9.4c2.1,2.7,4.6,4,7.5,4
			c6.8,0,10.2-4.4,10.2-13.1c0-4.5-1-7.9-3-10.3c-2-2.3-4.4-3.5-7-3.6C316.6,338.9,314.3,340,312.3,342.5z"/>
		<path class="st8" d="M360.8,332.9c3.4,0,6.1,0.4,8.2,1.1c2,0.7,3.7,2,4.9,3.7c1.6,2.2,2.5,5.9,2.6,10.9v23.2h-7.7v-22.3
			c0-4-0.7-6.7-2-8.2s-3.8-2.3-7.2-2.3h-9.1v32.8h-7.7v-38.9H360.8z"/>
		<path class="st8" d="M400.8,332.9c3.4,0,6.1,0.4,8.2,1.1c2,0.7,3.7,2,4.9,3.7c1.6,2.2,2.5,5.9,2.6,10.9v23.2h-7.7v-22.3
			c0-4-0.7-6.7-2-8.2s-3.8-2.3-7.2-2.3h-9.1v32.8h-7.7v-38.9H400.8z"/>
		<path class="st8" d="M455.4,355h-23.3c-0.1,3.5,0.8,6.2,2.7,8.1c0.9,1,2.1,1.7,3.4,2c1.4,0.5,3.4,0.6,6,0.6h11.2v6.1h-13.3
			c-3.4,0-5.9-0.2-7.8-0.8c-1.8-0.5-3.4-1.4-4.9-2.7c-3.7-3.4-5.5-8.4-5.5-15.2c0-8.2,2.8-14.1,8.4-17.5c2.9-1.8,6.9-2.7,12-2.7
			h11.2v6.1h-10c-2.7,0-4.8,0.2-6.3,0.6s-2.8,1.2-3.8,2.2c-1.6,1.6-2.7,3.9-3.1,7h23.3V355z"/>
		<path class="st8" d="M495.7,339h-12.5c-2.4,0-4.4,0.3-5.8,0.9c-1.5,0.5-2.7,1.5-3.6,2.8c-1.6,2.3-2.3,5.5-2.3,9.8
			c0,5.1,1.1,8.8,3.3,10.9c1.6,1.6,4.4,2.4,8.4,2.4h12.5v6.1h-12.5c-4.1,0-7.2-0.4-9.4-1.1c-3.8-1.2-6.6-3.8-8.4-8.1
			c-1.3-2.9-1.9-6.1-1.9-9.5c0-6.3,1.7-11.3,5.2-15c1.7-1.9,3.8-3.2,5.9-4s5.1-1.2,8.6-1.2h12.5V339z"/>
		<path class="st8" d="M508.3,318.6h7.8v14.4h11.3v6.1h-11.3v20.5c0,1.6,0.1,2.8,0.2,3.6c0.2,0.6,0.5,1.2,0.9,1.6
			c0.9,0.7,2.7,1.1,5.6,1.1h4.6v6.1H520c-2.6,0-4.5-0.2-5.7-0.5s-2.3-0.9-3.3-1.9s-1.6-2.1-2-3.4s-0.6-3.4-0.6-5.9V339H501v-6.1h7.3
			V318.6z"/>
		<path class="st8" d="M563.5,355h-23.3c-0.1,3.5,0.8,6.2,2.7,8.1c0.9,1,2.1,1.7,3.4,2c1.4,0.5,3.4,0.6,6,0.6h11.2v6.1h-13.3
			c-3.4,0-5.9-0.2-7.8-0.8c-1.8-0.5-3.4-1.4-4.9-2.7c-3.7-3.4-5.5-8.4-5.5-15.2c0-8.2,2.8-14.1,8.4-17.5c2.9-1.8,6.9-2.7,12-2.7
			h11.2v6.1h-10c-2.7,0-4.8,0.2-6.3,0.6s-2.8,1.2-3.8,2.2c-1.6,1.6-2.7,3.9-3.1,7h23.3V355z"/>
		<path class="st8" d="M597.9,318.6h7.7v53.3h-16.6c-3.4,0-6.1-0.2-8-0.8c-2-0.5-3.8-1.4-5.2-2.7c-1.8-1.5-3.1-3.6-4.1-6.4
			c-1-2.7-1.5-5.7-1.5-8.9c0-4.1,0.8-7.7,2.3-11.1c1.4-3.2,3.5-5.5,6.3-7s6.4-2.1,11-2.1h8.2V318.6z M597.9,339h-7.6
			c-2.6,0-4.7,0.3-6.2,0.9c-1.5,0.5-2.7,1.6-3.7,3c-1.6,2.2-2.3,5.3-2.3,9.4c0,4.9,0.9,8.4,2.5,10.4s4.5,3,8.4,3h8.8V339z"/>
	</g>
	<g>
		<path class="st9" d="M173.7,311.4c5.6,0,9.8,0.4,12.3,1.2c4.9,1.5,8.8,5,11.5,10.4c2,3.8,2.9,8.6,2.9,14.5c0,12-3.2,19.9-9.7,24.1
			c-2,1.3-4.1,2.1-6.3,2.5s-5.5,0.6-10,0.6H157v-53.3H173.7z M165.4,357.9h9.8c6,0,10.3-1.7,12.7-5.2c2.3-3.2,3.4-7.9,3.4-14
			c0-6.7-1.3-12-3.9-15.7c-1.2-1.7-2.8-3-4.7-3.8c-2-0.7-4.7-1.1-8-1.1h-9.3V357.9z"/>
		<path class="st9" d="M207.6,311.4h7.8v8h-7.8V311.4z M215.4,325.8v38.9h-7.8v-38.9H215.4z"/>
		<path class="st9" d="M253,331.9h-14.5c-2.7,0-4.4,0.1-5.2,0.2c-0.7,0.1-1.3,0.4-1.9,0.9c-0.9,0.9-1.4,2.4-1.4,4.4s0.5,3.3,1.5,3.9
			c1,0.5,3,0.9,6.3,0.9h2.1c4.3,0.1,7,0.2,8,0.2s2,0.4,2.8,0.9c2.6,1.6,3.9,4.9,3.9,9.8c0,5.5-1.6,9.1-5,10.5
			c-0.9,0.4-2,0.7-3.2,0.9s-3.4,0.2-6.5,0.2h-17.4v-6.1h15.5c3.7,0,5.9-0.2,6.6-0.5c1.3-0.5,2-2,2-4.4s-0.8-3.8-2.4-4.3
			c-0.7-0.2-2.6-0.3-5.6-0.3h-0.1c-4.1,0-7-0.2-8.4-0.4s-2.7-0.9-3.9-1.7c-2.7-2.3-4.1-5.5-4.1-9.7c0-2.3,0.5-4.2,1.3-6
			s2.1-3,3.8-3.9c2-1,5.1-1.6,9.3-1.6H253V331.9z"/>
		<path class="st9" d="M292.9,331.9h-12.5c-2.4,0-4.4,0.3-5.8,0.9c-1.5,0.5-2.7,1.5-3.6,2.8c-1.6,2.3-2.3,5.5-2.3,9.8
			c0,5.1,1.1,8.8,3.3,10.9c1.6,1.6,4.4,2.4,8.4,2.4h12.5v6.1h-12.5c-4.1,0-7.2-0.4-9.4-1.1c-3.8-1.2-6.6-3.8-8.4-8.1
			c-1.3-2.9-1.9-6.1-1.9-9.5c0-6.3,1.7-11.3,5.2-15c1.7-1.9,3.8-3.2,5.9-4s5.1-1.2,8.6-1.2h12.5V331.9z"/>
		<path class="st9" d="M330.3,330.7c3.3,3.4,4.9,8.3,4.9,14.7c0,6-1.6,10.7-4.9,14.2c-3.5,3.7-8,5.5-13.2,5.5
			c-5.6,0-10.2-1.9-13.6-5.6c-3-3.2-4.5-7.7-4.5-13.6c0-6.3,1.6-11.3,5-15c3.4-3.7,7.9-5.5,13.6-5.6
			C322.6,325.3,326.9,327.1,330.3,330.7z M310.1,335.3c-2.1,2.3-3.1,5.7-3.1,10.1c0,4.1,0.9,7.3,2.5,9.4c2.1,2.7,4.6,4,7.5,4
			c6.8,0,10.2-4.4,10.2-13.1c0-4.5-1-7.9-3-10.3c-2-2.3-4.4-3.5-7-3.6C314.5,331.7,312.1,332.9,310.1,335.3z"/>
		<path class="st9" d="M358.6,325.8c3.4,0,6.1,0.4,8.2,1.1c2,0.7,3.7,2,4.9,3.7c1.6,2.2,2.5,5.9,2.6,10.9v23.2h-7.7v-22.3
			c0-4-0.7-6.7-2-8.2s-3.8-2.3-7.2-2.3h-9.1v32.8h-7.7v-38.9H358.6z"/>
		<path class="st9" d="M398.6,325.8c3.4,0,6.1,0.4,8.2,1.1c2,0.7,3.7,2,4.9,3.7c1.6,2.2,2.5,5.9,2.6,10.9v23.2h-7.7v-22.3
			c0-4-0.7-6.7-2-8.2s-3.8-2.3-7.2-2.3h-9.1v32.8h-7.7v-38.9H398.6z"/>
		<path class="st9" d="M453.2,347.8H430c-0.1,3.5,0.8,6.2,2.7,8.1c0.9,1,2.1,1.7,3.4,2c1.4,0.5,3.4,0.6,6,0.6h11.2v6.1H440
			c-3.4,0-5.9-0.2-7.8-0.8c-1.8-0.5-3.4-1.4-4.9-2.7c-3.7-3.4-5.5-8.4-5.5-15.2c0-8.2,2.8-14.1,8.4-17.5c2.9-1.8,6.9-2.7,12-2.7
			h11.2v6.1h-10c-2.7,0-4.8,0.2-6.3,0.6s-2.8,1.2-3.8,2.2c-1.6,1.6-2.7,3.9-3.1,7h23.3V347.8z"/>
		<path class="st9" d="M493.5,331.9H481c-2.4,0-4.4,0.3-5.8,0.9c-1.5,0.5-2.7,1.5-3.6,2.8c-1.6,2.3-2.3,5.5-2.3,9.8
			c0,5.1,1.1,8.8,3.3,10.9c1.6,1.6,4.4,2.4,8.4,2.4h12.5v6.1H481c-4.1,0-7.2-0.4-9.4-1.1c-3.8-1.2-6.6-3.8-8.4-8.1
			c-1.3-2.9-1.9-6.1-1.9-9.5c0-6.3,1.7-11.3,5.2-15c1.7-1.9,3.8-3.2,5.9-4s5.1-1.2,8.6-1.2h12.5V331.9z"/>
		<path class="st9" d="M506.2,311.4h7.8v14.4h11.3v6.1H514v20.5c0,1.6,0.1,2.8,0.2,3.6c0.2,0.6,0.5,1.2,0.9,1.6
			c0.9,0.7,2.7,1.1,5.6,1.1h4.6v6.1h-7.5c-2.6,0-4.5-0.2-5.7-0.5s-2.3-0.9-3.3-1.9s-1.6-2.1-2-3.4s-0.6-3.4-0.6-5.9v-21.1h-7.3v-6.1
			h7.3V311.4z"/>
		<path class="st9" d="M561.4,347.8h-23.3c-0.1,3.5,0.8,6.2,2.7,8.1c0.9,1,2.1,1.7,3.4,2c1.4,0.5,3.4,0.6,6,0.6h11.2v6.1h-13.3
			c-3.4,0-5.9-0.2-7.8-0.8c-1.8-0.5-3.4-1.4-4.9-2.7c-3.7-3.4-5.5-8.4-5.5-15.2c0-8.2,2.8-14.1,8.4-17.5c2.9-1.8,6.9-2.7,12-2.7
			h11.2v6.1h-10c-2.7,0-4.8,0.2-6.3,0.6s-2.8,1.2-3.8,2.2c-1.6,1.6-2.7,3.9-3.1,7h23.3V347.8z"/>
		<path class="st9" d="M595.7,311.4h7.7v53.3h-16.6c-3.4,0-6.1-0.2-8-0.8c-2-0.5-3.8-1.4-5.2-2.7c-1.8-1.5-3.1-3.6-4.1-6.4
			c-1-2.7-1.5-5.7-1.5-8.9c0-4.1,0.8-7.7,2.3-11.1c1.4-3.2,3.5-5.5,6.3-7s6.4-2.1,11-2.1h8.2V311.4z M595.7,331.9h-7.6
			c-2.6,0-4.7,0.3-6.2,0.9c-1.5,0.5-2.7,1.6-3.7,3c-1.6,2.2-2.3,5.3-2.3,9.4c0,4.9,0.9,8.4,2.5,10.4s4.5,3,8.4,3h8.8V331.9z"/>
	</g>
</g>
</svg>
