<?xml version="1.0" encoding="utf-8"?>
<!-- Generator: Adobe Illustrator 23.0.1, SVG Export Plug-In . SVG Version: 6.00 Build 0)  -->
<svg version="1.1" id="Layer_1" xmlns="http://www.w3.org/2000/svg" xmlns:xlink="http://www.w3.org/1999/xlink" x="0px" y="0px"
	 width="168.77px" height="83.38px" viewBox="0 0 168.77 83.38" enable-background="new 0 0 168.77 83.38" xml:space="preserve">
<g>
	<g>
		<path fill="#00A3B0" d="M168.77,41.7c-0.01,23.02-18.68,41.69-41.7,41.68S85.38,64.7,85.39,41.68C85.4,18.66,104.05,0.01,127.07,0
			c23.02-0.01,41.69,18.64,41.7,41.66C168.77,41.67,168.77,41.69,168.77,41.7z"/>
		<path fill="#CCFFFF" d="M127.07,0h-1.26h-0.75l1,20c0.35,0,0.68,0,1,0V0H127.07z M123.07,0.19h-0.16h-0.15
			c-0.56,0.06-1.12,0.13-1.67,0.21l2.84,19.79c0.35,0,0.69-0.09,1-0.12L123.07,0.19z M119.12,0.76h-0.09h-0.43
			c-0.48,0.1-1,0.2-1.44,0.32l4.74,19.43c0.33-0.08,0.67-0.16,1-0.22L119.12,0.76z M115.23,1.76L114.43,2l0,0h-0.06l0,0h-0.06l0,0
			l0,0l-0.93,0.31l6.59,18.88c0.32-0.11,0.65-0.22,1-0.31l-5.74-19.17V1.76z M111.46,3c-0.62,0.25-1.23,0.52-1.84,0.8L118,22
			c0.32-0.15,0.63-0.29,1-0.42L111.46,3z M107.83,4.7c-0.59,0.31-1.18,0.63-1.75,1l10.09,17.28c0.29-0.18,0.6-0.35,0.9-0.51
			L107.83,4.7z M104.38,6.7c-0.56,0.36-1.11,0.73-1.66,1.13l11.7,16.22l0.86-0.59l-10.9-16.74L104.38,6.7z M101.13,9.03
			c-0.52,0.42-1.03,0.85-1.53,1.29l13.18,15c0.27-0.23,0.53-0.45,0.81-0.67l-12.46-15.6L101.13,9.03z M98.13,11.67l-0.84,0.84l0,0
			l0,0l0,0l0,0l0,0l0,0l0,0l-0.43,0.45l14.56,13.71c0.24-0.25,0.49-0.5,0.74-0.74L98.12,11.69L98.13,11.67z M95.38,14.6L95.38,14.6
			L95.38,14.6L95.38,14.6L95.38,14.6L95.38,14.6L95.38,14.6L95.38,14.6c-0.38,0.45-0.74,0.9-1.1,1.36l0,0l15.8,12.26
			c0.21-0.27,0.44-0.54,0.66-0.81l-15.2-13L95.38,14.6z M92.93,17.76l-0.15,0.23l0,0l0,0l0,0c-0.32,0.46-0.63,0.92-0.93,1.39
			l16.9,10.7c0.19-0.29,0.38-0.59,0.58-0.87L92.93,17.76z M90.79,21.14l-0.45,0.81l0,0c-0.17,0.31-0.33,0.62-0.49,0.93l17.85,9
			c0.15-0.31,0.32-0.62,0.49-0.92l-17.4-9.87V21.14z M89,24.71l-0.2,0.45l0,0v0.06l0,0v0.06l0,0c-0.18,0.42-0.35,0.84-0.52,1.27
			l18.63,7.26c0.13-0.32,0.26-0.64,0.4-1L89,24.71z M87.55,28.43c-0.09,0.27-0.18,0.54-0.26,0.81l0,0l0,0l0,0l0,0l0,0l0,0l0,0l0,0
			l0,0l0,0l0,0l0,0l0,0l0,0l0,0l0,0l0,0l0,0l0,0l0,0l0,0l0,0l0,0l0,0l0,0l0,0l0,0l0,0l0,0l0,0l0,0l0,0l0,0l0,0l0,0l0,0l0,0
			c-0.06,0.18-0.11,0.36-0.16,0.55l19.24,5.43c0.1-0.33,0.2-0.66,0.31-1l-19-6.35L87.55,28.43z M86.46,32.28
			c-0.12,0.53-0.23,1.06-0.33,1.59c0,0.13-0.05,0.25-0.07,0.37l19.68,3.55c0.06-0.34,0.13-0.68,0.21-1L86.46,32.28L86.46,32.28z
			 M85.75,36.22L85.6,37.5l0,0l0,0l0,0l0,0l0,0l0,0l0,0l-0.06,0.59l19.93,1.66c0-0.35,0.07-0.7,0.12-1l-19.84-2.6L85.75,36.22z
			 M85.42,40.22c0,0.32,0,0.64,0,1l0,0l0,0l0,0v0.06l0,0v0.24l0,0l0,0l0,0l0,0l0,0l0,0l0,0l0,0l0,0l0,0l0,0l0,0l0,0v0.4l20-0.23
			v0.01c0-0.26,0-0.53,0-0.79l-20-0.71V40.22z M105.42,43.04l-20,1.18c0,0.57,0.08,1.14,0.13,1.7l0,0l0,0l0,0l0,0l0,0l0,0l0,0
			c0,0.06,0,0.12,0,0.18l19.89-2.13c0-0.34-0.07-0.69-0.09-1L105.42,43.04z M105.65,45.12l-19.76,3.06l0,0l0,0l0,0l0,0l0,0l0,0
			c0.09,0.53,0.18,1.05,0.28,1.57l0,0l0,0l0,0l0,0l0,0l0,0l0,0c0,0.05,0,0.11,0,0.17l19.59-4c-0.07-0.34-0.13-0.67-0.18-1
			L105.65,45.12z M106.06,47.12l-19.37,5c0.17,0.65,0.35,1.29,0.54,1.93l19.11-5.9c-0.1-0.33-0.19-0.67-0.28-1V47.12z M106.67,49.12
			l-18.8,6.81c0.23,0.63,0.47,1.25,0.73,1.87l18.45-7.72c-0.13-0.32-0.26-0.64-0.38-1L106.67,49.12z M107.47,51.02L89.41,59.6
			c0,0.07,0.07,0.15,0.11,0.22l0,0l0,0l0,0c0.17,0.37,0.36,0.73,0.55,1.1l0,0l0,0l0,0l0,0l0,0l0,0l0,0l0.17,0.32l17.63-9.45
			c-0.16-0.31-0.32-0.62-0.47-0.93L107.47,51.02z M108.47,52.85L91.3,63.12l0.3,0.48l0,0l0,0l0,0l0,0l0,0
			c0.24,0.38,0.49,0.77,0.74,1.14L109,53.71c-0.19-0.29-0.38-0.58-0.56-0.88L108.47,52.85z M109.63,54.58L93.52,66.45l0.23,0.3l0,0
			l0,0l0,0l0,0l0,0l0,0l0,0l0,0l0,0l0,0l0,0l0,0l0,0l0,0l0,0l0,0l0,0l0,0l0,0l0,0l0,0l0,0l0,0l0,0l0,0l0,0l0,0
			c0.23,0.3,0.47,0.6,0.71,0.89L109.96,55c-0.22-0.27-0.44-0.55-0.64-0.83L109.63,54.58z M110.95,56.2l-14.9,13.35
			c0.45,0.49,0.9,1,1.37,1.45l14.23-14.06c-0.25-0.24-0.49-0.5-0.72-0.76L110.95,56.2z M112.42,57.69l-13.56,14.7l0.76,0.68h0.06
			l0,0l0,0l0.67,0.57l12.82-15.35c-0.27-0.22-0.54-0.46-0.79-0.69L112.42,57.69z M114,59l-12.07,16l0.93,0.68l0.69,0.48l11.3-16.5
			L114,59z M115.72,60.18l-10.49,17l0.1,0.07l0,0l0,0l0,0c0.5,0.3,1,0.6,1.52,0.88l0,0l9.66-17.51l-0.9-0.52L115.72,60.18z
			 M117.54,61.18l-8.81,18l0.34,0.17h0.16l0,0l0,0c0.42,0.2,0.84,0.39,1.27,0.57l7.93-18.36c-0.31-0.13-0.63-0.28-0.94-0.43
			L117.54,61.18z M119.44,62l-7,18.72c0.63,0.24,1.25,0.45,1.89,0.66l6.13-19l-1-0.34L119.44,62z M121.44,62.63L116.21,82l0.24,0.06
			h0.2c0.5,0.13,1,0.25,1.5,0.36l4.26-19.55c-0.34-0.07-0.67-0.15-1-0.24L121.44,62.63z M123.44,63.07l-3.31,19.73
			c0.5,0.08,1,0.16,1.51,0.22l0.47,0.06l2.36-19.86c-0.35,0-0.69-0.09-1-0.15H123.44z M125.51,63.32l-1.41,20h0.4h0.09h1h0.54
			l0.47-20c-0.35,0-0.71,0-1,0H125.51z M128.67,63.32l-1,0.05l0.47,20h0.57h0.12l1.19-0.06h0.12l-1.42-20L128.67,63.32z
			 M130.74,63.07c-0.34,0.06-0.69,0.11-1,0.15l2.37,19.86c0.62-0.08,1.23-0.16,1.83-0.26h0.15l-3.32-19.73L130.74,63.07z
			 M132.74,62.63c-0.33,0.09-0.67,0.17-1,0.24L136,82.42h0.22h0.2l0.76-0.18h0.36L138,82l-5.2-19.32L132.74,62.63z M134.74,62
			l-1,0.34l6.14,19l0.92-0.31h0.2l0.77-0.29l-7-18.71L134.74,62z M136.64,61.17l-0.94,0.44L143.62,80c0.35-0.15,0.7-0.3,1-0.47h0.16
			l0.61-0.29l-8.81-18L136.64,61.17z M138.46,60.17c-0.3,0.18-0.6,0.36-0.9,0.52l9.67,17.51l0.18-0.1l0,0l0,0h0.1l0,0l0,0
			c0.47-0.26,0.92-0.53,1.37-0.8l-10.49-17L138.46,60.17z M140.16,59c-0.28,0.21-0.56,0.42-0.85,0.61l11.3,16.5
			c0.25-0.17,0.51-0.35,0.75-0.53l0,0l0,0l0,0l0,0l0,0l0,0h0.15l0,0l0,0l0.6-0.45L140.16,59z M141.76,57.66
			c-0.25,0.24-0.52,0.47-0.78,0.69L153.8,73.7h0.34l0,0l0,0l0,0l0,0c0.34-0.28,0.66-0.57,1-0.86h0.06l0,0l0,0l0,0l0,0L141.76,57.66
			L141.76,57.66z M143.23,56.17c-0.23,0.26-0.47,0.52-0.72,0.77l14.23,14l0,0l0,0l0,0c0.31-0.32,0.62-0.64,0.92-1l0,0l0,0l0,0l0,0
			l0,0l0,0l0,0l0.32-0.35L143.23,56.17L143.23,56.17z M144.55,54.56c-0.2,0.27-0.42,0.55-0.64,0.82L159.41,68l0,0l0,0l0,0l0,0l0,0
			l0,0l0,0l0,0l0,0l0,0l0,0c0.2-0.26,0.41-0.52,0.61-0.79l0,0l0,0l0,0l0,0l0,0l0,0l0,0l0,0l0,0l0.36-0.47L144.55,54.56L144.55,54.56
			z M145.71,52.82c-0.18,0.3-0.37,0.59-0.56,0.88l16.64,11.1l0.14-0.21l0,0l0,0c0.31-0.47,0.61-0.95,0.9-1.43l0,0l0,0l0,0
			L145.71,52.82L145.71,52.82z M146.71,50.99c-0.15,0.32-0.31,0.63-0.47,0.93l17.63,9.45l0.27-0.51c0.14-0.28,0.28-0.55,0.41-0.83
			l0,0l0,0l0,0l0,0l0,0l0,0l0,0c0-0.11,0.1-0.22,0.16-0.33L146.69,51L146.71,50.99z M147.51,49.09c-0.12,0.32-0.25,0.64-0.38,1
			l18.45,7.71l0.29-0.69l0,0l0,0l0,0l0,0l0,0l0,0l0,0c0.14-0.36,0.27-0.71,0.4-1.06l-18.8-6.81L147.51,49.09z M148.11,47.09
			c-0.08,0.33-0.18,0.67-0.28,1l19.1,5.91l0.12-0.41l0,0l0,0l0,0l0,0l0,0l0,0l0,0l0,0l0,0l0,0l0,0l0,0l0,0l0,0l0,0l0,0l0,0l0,0l0,0
			l0,0l0,0l0.33-1.21l-19.38-5L148.11,47.09z M148.53,45.09c0,0.34-0.12,0.68-0.18,1l19.59,4c0.11-0.57,0.22-1.15,0.31-1.72
			c0-0.09,0-0.17,0-0.25l-19.76-3.07L148.53,45.09z M148.75,43.01c0,0.35,0,0.7-0.08,1l19.88,2.13c0-0.24,0.05-0.47,0.07-0.71l0,0
			l0,0l0,0l0,0l0,0l0,0c0-0.38,0.06-0.76,0.08-1.14v-0.06l-20-1.18L148.75,43.01z M168.75,40.19l-20,0.71c0,0.27,0,0.53,0,0.8V42
			l20,0.23V41.8l0,0l0,0l0,0l0,0l0,0l0,0l0,0v-0.09l0,0l0,0l0,0v-0.17l0,0l0,0l0,0V41.2l0,0l0,0l0,0c0-0.15,0-0.29,0-0.44l0,0v-0.09
			l0,0v-0.15l0,0c0-0.09,0-0.18,0-0.27V40.19z M168.42,36.19l-19.83,2.61c0,0.34,0.08,0.69,0.11,1l19.93-1.66c0-0.16,0-0.31,0-0.47
			l0,0l0,0l0,0l0,0l0,0l0,0l0,0l0,0l0,0c0-0.46-0.1-0.92-0.16-1.37L168.42,36.19z M167.71,32.26l-19.49,4.5
			c0.08,0.33,0.15,0.68,0.21,1l19.68-3.56l-0.18-0.95l0,0l0,0l0,0l0,0l0,0l0,0l0,0l0,0l0,0l0,0l0,0l0,0l0,0l0,0l0,0l0,0l0,0l0,0l0,0
			l0,0l0,0l0,0l0,0l-0.06-0.32l0,0v-0.06l0,0l0,0l0,0l-0.06-0.24L167.71,32.26z M166.62,28.41l-19,6.36c0.11,0.33,0.21,0.66,0.3,1
			l19.25-5.44l0,0l0,0l0,0l0,0l0,0l0,0l0,0c-0.14-0.49-0.29-1-0.45-1.46l0,0l0,0l0,0c0-0.1-0.07-0.19-0.1-0.29V28.41z M165.17,24.68
			l-18.27,8.17c0.14,0.32,0.27,0.64,0.4,1l18.63-7.27c-0.24-0.62-0.5-1.24-0.77-1.85L165.17,24.68z M163.36,21.11L146,31
			c0.17,0.3,0.34,0.61,0.49,0.92l17.85-9c-0.27-0.52-0.54-1-0.83-1.55l0,0l0,0l0,0l0,0l0,0l0,0l0,0l0,0l0,0l0,0l0,0l0,0l0,0l0,0l0,0
			L163.36,21.11z M161.22,17.74l-16.36,11.5c0.2,0.28,0.39,0.57,0.58,0.86l16.89-10.7l-0.13-0.2l0,0l0,0l0,0l-0.66-1l0,0l0,0l0,0
			l-0.27-0.38L161.22,17.74z M158.77,14.58l-15.19,13c0.22,0.26,0.44,0.53,0.66,0.81L160,16.14l-0.11-0.15l0,0l0,0l0,0l0,0l0,0l0,0
			l0,0l0,0l0,0l0,0l0,0l0,0l0,0l0,0l0,0l0,0l0,0l0,0l0,0l0,0l0,0l0,0l0,0l0,0l0,0l0,0l0,0l0,0l0,0l0,0l0,0l0,0l0,0l0,0l0,0l0,0l0,0
			l0,0l0,0l0,0l0,0l0,0l0,0l0,0l0,0l0,0l0,0l0,0l0,0l0,0l0,0l0,0l0,0l0,0l0,0l0,0l0,0l0,0l0,0l0,0l0,0l0,0l0,0l0,0l0,0l0,0l0,0l0,0
			l0,0l0,0l0,0l0,0l0,0l0,0l0,0l0,0l0,0l0,0l0,0l0,0l0,0l0,0l0,0l-0.13-0.15L158.77,14.58z M156,11.68l-13.89,14.4l0.74,0.74
			l14.57-13.72l0,0c-0.46-0.49-0.92-1-1.4-1.42H156z M153,9l-12.44,15.7c0.27,0.21,0.54,0.44,0.8,0.67l13.18-15l-0.23-0.21l0,0l0,0
			l0,0L153,9z M149.75,6.67l-10.88,16.81c0.29,0.19,0.58,0.38,0.86,0.59l11.69-16.23L151,7.51h-0.06l-0.51-0.36h-0.08l-0.55-0.36
			L149.75,6.67z M146.3,4.67l-9.24,17.74c0.31,0.16,0.61,0.33,0.91,0.5l10.09-17.25l-0.43-0.25l0,0h-0.06l0,0l0,0l0,0
			c-0.4-0.23-0.8-0.44-1.21-0.66L146.3,4.67z M142.68,3l-7.49,18.54l0.95,0.41l8.38-18.16h-0.32c-0.5-0.23-1-0.44-1.52-0.65
			L142.68,3z M138.9,1.7l-5.66,19.18l1,0.32l6.59-18.89l-1.34-0.44h-0.15l-0.42-0.13L138.9,1.7z M135,0.76l-3.79,19.63l1,0.22
			L137,1.18h-0.23l-0.82-0.19h-0.23c-0.23-0.06-0.45-0.1-0.67-0.14L135,0.76z M131,0.19l-1.83,19.91c0.35,0,0.7,0.07,1,0.12
			l2.88-19.8l-0.5-0.06h-0.21l-0.9-0.1h-0.11h-0.27L131,0.19z M127,0v20h1.06L129,0c-0.41,0-0.81,0-1.22,0H127z"/>
	</g>
	<path fill="#00C5B0" d="M127.07,2c21.92-0.01,39.69,17.76,39.7,39.68c0.01,21.92-17.76,39.69-39.68,39.7
		c-21.92,0.01-39.69-17.76-39.7-39.68C87.42,19.79,105.16,2.04,127.07,2 M127.07,0c-23.02,0.01-41.69,18.68-41.68,41.7
		c0.01,23.02,18.68,41.69,41.7,41.68c23.02-0.01,41.67-18.66,41.68-41.68c0.01-23.02-18.66-41.69-41.68-41.7
		C127.08,0,127.08,0,127.07,0z"/>
	<g opacity="0.06">
		<path fill="#FFFFFF" d="M163.09,41.7c0,19.88-16.12,36-36,36s-36-16.12-36-36s16.12-36,36-36S163.09,21.82,163.09,41.7z"/>
	</g>
	<g>
		<path fill="#00C5B0" d="M127.07,69.83c-15.54,0-28.13-12.59-28.13-28.13c0-15.54,12.59-28.13,28.13-28.13
			c15.54,0,28.13,12.59,28.13,28.13l0,0C155.19,57.23,142.6,69.82,127.07,69.83z"/>
		<path fill="#00B1B0" d="M127.07,16.58c13.88-0.03,25.16,11.19,25.19,25.07c0.03,13.88-11.19,25.16-25.07,25.19
			c-13.88,0.03-25.16-11.19-25.19-25.07c0-0.02,0-0.05,0-0.07c0.02-13.87,11.25-25.1,25.12-25.12 M127.12,10.58
			c-17.19-0.03-31.15,13.89-31.18,31.08s13.89,31.15,31.08,31.18c17.19,0.03,31.15-13.89,31.18-31.08c0-0.02,0-0.04,0-0.06
			c0-17.19-13.93-31.12-31.12-31.12c0,0-0.01,0-0.01,0H127.12z"/>
	</g>
</g>
<g id="LS_pressed">
	<g>
		<path fill="#E5E5E5" d="M83.39,41.7c0,23.03-18.67,41.7-41.7,41.7s-41.7-18.67-41.7-41.7C-0.01,18.67,18.66,0,41.69,0
			c23.02-0.01,41.69,18.66,41.7,41.68C83.39,41.69,83.39,41.69,83.39,41.7z"/>
		<path fill="#BFBFBF" d="M41.69,0h-1.26h-0.75l0.94,20h1.07V0z M37.69,0.19h-0.17h-0.14c-0.56,0.06-1.12,0.13-1.67,0.21l2.84,19.79
			c0.34,0,0.69-0.09,1-0.12L37.69,0.19z M33.69,0.76H33.6h-0.42c-0.48,0.1-1,0.2-1.44,0.32l4.73,19.43c0.34-0.08,0.68-0.16,1-0.22
			L33.73,0.76H33.69z M29.81,1.76L29.01,2l0,0H29l0,0h-0.05l0,0H28.9l-0.93,0.31l6.6,18.88c0.32-0.11,0.65-0.22,1-0.31L29.85,1.71
			L29.81,1.76z M26.07,3c-0.62,0.25-1.23,0.52-1.83,0.8L32.62,22c0.31-0.15,0.63-0.29,1-0.42L26.07,3z M22.44,4.7
			c-0.59,0.31-1.17,0.63-1.75,1l10.09,17.24c0.3-0.18,0.6-0.35,0.91-0.51L22.44,4.7z M19,6.72c-0.56,0.36-1.11,0.73-1.65,1.13
			L29,24.07c0.29-0.2,0.57-0.4,0.87-0.59L19,6.72z M15.75,9.05c-0.53,0.42-1,0.85-1.54,1.29l13.19,15c0.26-0.23,0.53-0.45,0.8-0.67
			L15.75,9.05z M12.75,11.69c-0.29,0.27-0.56,0.55-0.84,0.84l0,0l0,0l0,0l0,0l0,0l0,0l0,0l-0.43,0.45L25.9,26.82
			c0.23-0.25,0.48-0.5,0.73-0.74L12.74,11.69L12.75,11.69z M10,14.6L10,14.6L10,14.6L10,14.6L10,14.6H9.87l0,0l0,0
			c-0.38,0.45-0.75,0.9-1.1,1.36l0,0l15.8,12.26c0.21-0.27,0.43-0.54,0.66-0.81L10,14.6z M7.55,17.76L7.39,18l0,0l0,0l0,0
			c-0.32,0.46-0.62,0.92-0.92,1.39l16.9,10.7c0.18-0.29,0.38-0.59,0.58-0.87L7.55,17.76z M5.41,21.14L5,22l0,0l-0.49,0.93l17.85,9
			c0.16-0.31,0.32-0.62,0.5-0.92L5.41,21.14z M3.61,24.71c-0.07,0.15-0.14,0.3-0.2,0.45l0,0v0.06l0,0c0,0.02,0,0.04,0,0.06l0,0
			c-0.18,0.42-0.36,0.84-0.52,1.27l18.63,7.26c0.13-0.32,0.26-0.64,0.4-1L3.61,24.71z M2.15,28.43c-0.09,0.27-0.17,0.54-0.26,0.81
			l0,0l0,0l0,0l0,0l0,0l0,0l0,0l0,0l0,0l0,0l0,0l0,0l0,0l0,0l0,0l0,0l0,0l0,0l0,0l0,0l0,0l0,0l0,0l0,0l0,0l0,0l0,0l0,0l0,0l0,0l0,0
			l0,0l0,0l0,0l0,0l0,0l0,0c-0.06,0.18-0.11,0.36-0.16,0.55l19.25,5.43c0.09-0.33,0.19-0.67,0.3-1l-19-6.35L2.15,28.43z M1.07,32.28
			C1,32.81,0.83,33.34,0.73,33.87c0,0.13,0,0.25-0.07,0.37l19.69,3.55c0.06-0.34,0.13-0.68,0.2-1L1.07,32.28z M0.36,36.22
			c-0.06,0.42-0.11,0.85-0.15,1.28l0,0l0,0l0,0l0,0l0,0l0,0l0,0c0,0.2,0,0.39-0.05,0.59l19.93,1.66c0-0.35,0.07-0.7,0.11-1
			L0.36,36.22z M0,40.2v1l0,0l0,0l0,0v0.06l0,0v0.24l0,0l0,0l0,0l0,0l0,0l0,0l0,0l0,0l0,0l0,0l0,0l0,0l0,0c0,0.13,0,0.27,0,0.4
			L20,42v-0.3c0-0.26,0-0.53,0-0.79L0,40.2z M20,43L0.07,44.2c0,0.57,0.08,1.14,0.14,1.7l0,0l0,0l0,0l0,0l0,0l0,0l0,0
			c0,0.06,0,0.12,0,0.18l19.88-2.13c0-0.34-0.06-0.69-0.08-1L20,43z M20.22,45.08L0.5,48.17l0,0l0,0l0,0l0,0l0,0l0,0
			c0.08,0.53,0.17,1.05,0.28,1.57l0,0l0,0l0,0l0,0l0,0l0,0l0,0v0.16l19.59-4c-0.06-0.34-0.13-0.68-0.18-1L20.22,45.08z M20.64,47.08
			l-19.37,5c0.16,0.65,0.34,1.29,0.54,1.93L21,48.12c-0.1-0.33-0.2-0.67-0.28-1L20.64,47.08z M21.25,49.08L2.48,55.91
			c0.23,0.63,0.47,1.25,0.73,1.87l18.45-7.72c-0.13-0.32-0.26-0.64-0.37-1L21.25,49.08z M22.04,50.98L4,59.6l0.1,0.22l0,0l0,0l0,0
			c0.18,0.37,0.36,0.73,0.55,1.1l0,0l0,0l0,0l0,0l0,0l0,0l0,0c0,0.11,0.11,0.22,0.17,0.33l17.62-9.46
			c-0.16-0.31-0.32-0.62-0.47-0.93L22.04,50.98z M23.04,52.81L5.92,63.12l0.29,0.48l0,0l0,0l0,0l0,0l0,0
			c0.24,0.38,0.49,0.77,0.74,1.14l16.63-11.1c-0.19-0.29-0.38-0.58-0.55-0.88L23.04,52.81z M24.19,54.54L8.14,66.45l0.22,0.3l0,0
			l0,0l0,0l0,0l0,0l0,0l0,0l0,0l0,0l0,0l0,0l0,0l0,0l0,0l0,0l0,0l0,0l0,0l0,0l0,0l0,0l0,0l0,0l0,0l0,0l0,0l0,0
			c0.23,0.3,0.46,0.6,0.7,0.89L24.56,55c-0.22-0.27-0.43-0.55-0.64-0.83L24.19,54.54z M25.51,56.16L10.67,69.55
			c0.44,0.49,0.9,1,1.37,1.45l14.22-14.06c-0.24-0.24-0.49-0.5-0.72-0.76L25.51,56.16z M27,57.67L13.48,72.39
			c0.25,0.23,0.5,0.46,0.76,0.68h0.06l0,0l0,0l0.66,0.57L27.8,58.36C27.53,58.14,27.27,57.9,27,57.67L27,57.67z M28.62,59L16.55,75
			c0.3,0.23,0.61,0.46,0.93,0.68l0.69,0.48l11.29-16.5c-0.28-0.2-0.57-0.4-0.84-0.61L28.62,59z M30.34,60.18l-10.49,17l0.1,0.07l0,0
			l0,0l0,0c0.5,0.3,1,0.6,1.52,0.88l0,0l9.67-17.51c-0.31-0.17-0.61-0.34-0.9-0.52L30.34,60.18z M32.16,61.18l-8.81,18l0.33,0.17
			h0.16l0,0l0,0c0.42,0.2,0.84,0.39,1.26,0.57l8-18.3C32.78,61.49,32.46,61.34,32.16,61.18L32.16,61.18z M34.06,62L27,80.73
			c0.62,0.24,1.25,0.45,1.89,0.66l6.12-19l-1-0.34L34.06,62z M36.06,62.63L30.82,82l0.24,0.06h0.21c0.49,0.13,0.99,0.25,1.5,0.36
			L37,62.88c-0.34-0.07-0.68-0.15-1-0.24L36.06,62.63z M38.06,63.07l-3.33,19.74c0.5,0.08,1,0.16,1.51,0.22l0.47,0.06l2.36-19.86
			C38.73,63.23,38.38,63.14,38.06,63.07L38.06,63.07z M40.13,63.32l-1.41,20h0.41h0.09h1h0.54l0.46-20c-0.35,0-0.7,0-1,0H40.13z
			 M43.29,63.32l-1.05,0.05l0.48,20h0.56h0.13l1.18-0.06h0.13l-1.43-20L43.29,63.32z M45.37,63.07c-0.34,0.06-0.69,0.11-1,0.15
			l2.37,19.86c0.61-0.08,1.22-0.16,1.83-0.26h0.15l-3.37-19.74L45.37,63.07z M47.37,62.63c-0.33,0.09-0.67,0.17-1,0.24l4.27,19.54
			h0.22h0.21l0.76-0.18h0.36l0.39-0.1l-5.2-19.32L47.37,62.63z M49.37,62l-1,0.34l6.13,19l0.92-0.31h0.19l0.78-0.29L49.33,62H49.37z
			 M51.28,61.17l-1,0.44L58.23,80c0.35-0.15,0.7-0.3,1.05-0.47h0.15l0.62-0.29l-8.81-18L51.28,61.17z M53.09,60.17
			c-0.29,0.18-0.59,0.36-0.89,0.52l9.66,17.51l0.18-0.1l0,0l0,0h0.1l0,0l0,0l1.37-0.8l-10.5-17L53.09,60.17z M54.77,59
			c-0.27,0.21-0.56,0.42-0.84,0.61l11.3,16.5l0.75-0.53l0,0l0,0l0,0l0,0l0,0l0,0h0.14l0,0l0,0l0.6-0.45L54.77,59z M56.38,57.66
			c-0.26,0.24-0.52,0.47-0.79,0.69L68.41,73.7h0.34l0,0l0,0l0,0l0,0l1-0.86l0,0l0,0l0,0l0,0l0,0L56.38,57.66z M57.85,56.17
			c-0.23,0.26-0.48,0.52-0.72,0.77L71.36,71l0,0l0,0l0,0l0.93-1l0,0l0,0l0,0l0,0l0,0l0,0l0,0c0.1-0.12,0.21-0.24,0.32-0.35
			C72.61,69.65,57.85,56.17,57.85,56.17z M59.17,54.56c-0.21,0.27-0.42,0.55-0.64,0.82L74,68l0,0l0,0l0,0l0,0l0,0l0,0l0,0l0,0l0,0
			l0,0l0,0c0.21-0.26,0.42-0.52,0.62-0.79l0,0l0,0l0,0l0,0l0,0l0,0l0,0l0,0l0,0c0.11-0.16,0.23-0.31,0.35-0.47
			C74.97,66.74,59.17,54.56,59.17,54.56z M60.32,52.82c-0.17,0.3-0.36,0.59-0.55,0.88L76.4,64.8l0.14-0.21l0,0l0,0
			c0.31-0.47,0.61-0.95,0.9-1.43l0,0l0,0l0,0C77.44,63.16,60.32,52.82,60.32,52.82z M61.32,50.99c-0.14,0.32-0.3,0.63-0.46,0.93
			l17.62,9.45l0.27-0.51l0.42-0.83l0,0l0,0l0,0l0,0l0,0l0,0l0,0c0.06-0.11,0.11-0.22,0.16-0.33L61.3,51L61.32,50.99z M62.12,49.09
			c-0.12,0.32-0.24,0.64-0.37,1L80.2,57.8c0.1-0.23,0.19-0.46,0.28-0.69l0,0l0,0l0,0l0,0l0,0l0,0l0,0c0.13-0.36,0.27-0.71,0.4-1.06
			L62.1,49.09L62.12,49.09z M62.73,47.09c-0.09,0.33-0.18,0.67-0.28,1L81.54,54c0-0.14,0.08-0.27,0.13-0.41l0,0l0,0l0,0l0,0l0,0l0,0
			l0,0l0,0l0,0l0,0l0,0l0,0l0,0l0,0l0,0l0,0l0,0l0,0l0,0l0,0l0,0c0.12-0.4,0.23-0.81,0.33-1.21l-19.37-5L62.73,47.09z M63.14,45.09
			c-0.05,0.34-0.11,0.67-0.18,1l19.59,4c0.12-0.57,0.22-1.15,0.32-1.72c-0.01-0.08-0.01-0.17,0-0.25l-19.75-3.03L63.14,45.09z
			 M63.35,43c0,0.35-0.05,0.7-0.09,1l19.89,2.13c0-0.24,0-0.47,0.07-0.71l0,0l0,0l0,0l0,0l0,0l0,0c0-0.38,0.06-0.76,0.09-1.14v-0.06
			L63.35,43z M83.35,40.18l-20,0.71c0,0.27,0,0.53,0,0.8V42l20,0.23V41.8l0,0l0,0l0,0l0,0l0,0l0,0l0,0v-0.09l0,0l0,0l0,0v-0.17l0,0
			l0,0l0,0V41.2l0,0l0,0l0,0c0-0.15,0-0.29,0-0.44l0,0v-0.09l0,0v-0.15l0,0c0-0.09,0-0.18,0-0.27V40.18z M83.02,36.18L63.2,38.81
			c0,0.34,0.08,0.69,0.11,1l19.93-1.66c0-0.16,0-0.31,0-0.47l0,0l0,0l0,0l0,0l0,0l0,0l0,0l0,0l0,0c0-0.46-0.1-0.92-0.15-1.37
			L83.02,36.18z M82.3,32.25l-19.48,4.5l0.21,1l19.68-3.56c-0.06-0.31-0.12-0.63-0.19-0.95l0,0l0,0l0,0l0,0l0,0l0,0l0,0l0,0l0,0l0,0
			l0,0l0,0l0,0l0,0l0,0l0,0l0,0l0,0l0,0l0,0l0,0l0,0l0,0l-0.07-0.32l0,0v-0.06l0,0l0,0l0,0l-0.06-0.24L82.3,32.25z M81.22,28.4
			l-19,6.36c0.11,0.33,0.21,0.66,0.3,1l19.25-5.44l0,0l0,0l0,0l0,0l0,0l0,0l0,0c-0.14-0.49-0.29-1-0.45-1.46l0,0l0,0l0,0
			c0-0.1-0.07-0.19-0.1-0.29V28.4z M79.76,24.67l-18.25,8.18c0.14,0.32,0.28,0.64,0.4,1l18.63-7.27c-0.24-0.62-0.5-1.24-0.77-1.85
			L79.76,24.67z M78,21.12L60.58,31c0.17,0.3,0.33,0.61,0.49,0.92l17.84-9c-0.26-0.52-0.54-1-0.82-1.55l0,0l0,0l0,0l0,0l0,0l0,0l0,0
			l0,0l0,0l0,0l0,0l0,0l0,0l0,0l0,0L78,21.12z M75.86,17.75l-16.4,11.5c0.2,0.28,0.4,0.57,0.58,0.86l16.9-10.7l-0.13-0.2l0,0l0,0
			l0,0c-0.21-0.33-0.43-0.66-0.65-1l0,0l0,0l0,0l-0.26-0.38L75.86,17.75z M73.41,14.59l-15.2,13c0.23,0.26,0.45,0.53,0.66,0.81
			l15.8-12.27L74.52,16l0,0l0,0l0,0l0,0l0,0l0,0l0,0l0,0l0,0l0,0l0,0l0,0l0,0l0,0l0,0l0,0l0,0l0,0l0,0l0,0l0,0l0,0l0,0l0,0l0,0l0,0
			l0,0l0,0l0,0l0,0l0,0l0,0l0,0l0,0l0,0l0,0l0,0l0,0l0,0l0,0l0,0l0,0l0,0l0,0l0,0l0,0l0,0l0,0l0,0l0,0l0,0l0,0l0,0l0,0l0,0l0,0l0,0
			l0,0l0,0l0,0l0,0l0,0l0,0l0,0l0,0l0,0l0,0l0,0l0,0l0,0l0,0l0,0l0,0l0,0l0,0l0,0l0,0l0,0l0,0l-0.12-0.15L73.41,14.59z M70.66,11.68
			l-13.91,14.4c0.25,0.24,0.5,0.49,0.73,0.74L72,13.1l0,0c-0.46-0.49-0.93-1-1.41-1.42H70.66z M67.62,9L55.17,24.7
			c0.28,0.21,0.55,0.44,0.81,0.67l13.18-15l-0.23-0.21l0,0l0,0l0,0c-0.41-0.35-0.83-0.7-1.26-1L67.62,9z M64.38,6.71l-10.9,16.77
			c0.29,0.19,0.58,0.38,0.86,0.59L66,7.84l-0.46-0.33l0,0L65,7.12l0,0l0,0l0,0l0,0l0,0l-0.55-0.36L64.38,6.71z M60.93,4.71
			l-9.24,17.72l0.91,0.5L62.68,5.66l-0.44-0.25l0,0h-0.05l0,0l0,0l0,0c-0.4-0.23-0.81-0.44-1.21-0.66L60.93,4.71z M57.29,3
			l-7.48,18.56l0.95,0.41l8.37-18.16h-0.31c-0.5-0.23-1-0.44-1.53-0.65V3z M53.52,1.7l-5.66,19.18l1,0.32l6.56-18.89l-1.33-0.44
			h-0.15l-0.42-0.13L53.52,1.7z M49.63,0.76l-3.78,19.63l1,0.22l4.74-19.43h-0.23l-0.82-0.24H50.3L49.63,0.76z M45.63,0.19
			L43.79,20.1c0.34,0,0.69,0.07,1,0.12l2.87-19.8l-0.5-0.06H47l-0.9-0.1H46h-0.27L45.63,0.19z M41.63,0v20h1.05l0.94-20
			c-0.4,0-0.81,0-1.21,0H41.63z"/>
	</g>
	<path fill="#D9D9D9" d="M41.69,2c21.92,0,39.69,17.77,39.69,39.69S63.61,81.38,41.69,81.38C19.77,81.38,2.01,63.62,2,41.7
		C2.03,19.79,19.78,2.03,41.69,2 M41.69,0C18.67,0.01,0,18.68,0.01,41.7s18.68,41.69,41.7,41.68c23.02-0.01,41.67-18.66,41.68-41.68
		C83.4,18.68,64.73,0.01,41.71,0C41.7,0,41.7,0,41.69,0z"/>
	<g opacity="0.06">
		<path d="M77.71,41.7c0,19.88-16.12,36-36,36s-36-16.12-36-36s16.12-36,36-36S77.71,21.82,77.71,41.7z"/>
	</g>
	<g>
		<path fill="#DEDEDE" d="M41.69,69.83c-15.54,0.01-28.13-12.58-28.14-28.12c-0.01-15.54,12.58-28.13,28.12-28.14
			c15.54-0.01,28.13,12.58,28.14,28.12c0,0,0,0.01,0,0.01C69.79,57.23,57.22,69.81,41.69,69.83z"/>
		<path fill="#E5E5E5" d="M41.69,16.58c13.88,0,25.13,11.25,25.13,25.13S55.57,66.84,41.69,66.84S16.56,55.59,16.56,41.71
			c0,0,0-0.01,0-0.01C16.58,27.83,27.82,16.59,41.69,16.58 M41.69,10.58C24.5,10.57,10.56,24.51,10.55,41.7
			c-0.01,17.19,13.93,31.13,31.12,31.14S72.8,58.91,72.81,41.72c0-0.01,0-0.01,0-0.02C72.81,24.51,58.88,10.58,41.69,10.58z"/>
	</g>
</g>
</svg>
