<?xml version="1.0" encoding="utf-8"?>
<!-- Generator: Adobe Illustrator 23.0.1, SVG Export Plug-In . SVG Version: 6.00 Build 0)  -->
<svg version="1.1" id="Layer_1" xmlns="http://www.w3.org/2000/svg" xmlns:xlink="http://www.w3.org/1999/xlink" x="0px" y="0px"
	 width="168.8px" height="83.4px" viewBox="0 0 168.8 83.4" style="enable-background:new 0 0 168.8 83.4;" xml:space="preserve">
<style type="text/css">
	.st0{fill:#333333;}
	.st1{fill:url(#SVGID_1_);}
	.st2{fill:#444444;}
	.st3{opacity:0.46;fill:url(#SVGID_2_);}
	.st4{fill:#666666;}
	.st5{fill:#E5E5E5;}
	.st6{fill:#BFBFBF;}
	.st7{fill:#D9D9D9;}
	.st8{opacity:6.000000e-02;}
	.st9{fill:#DEDEDE;}
</style>
<g>
	<g>
		<g>
			<path class="st0" d="M168.8,41.7c0,23-18.7,41.7-41.7,41.7S85.4,64.7,85.4,41.7S104.1,0,127.1,0S168.8,18.6,168.8,41.7
				L168.8,41.7z"/>
			<path class="st0" d="M127.1,0.8c-22.6,0-40.9,18.3-40.9,40.9s18.3,40.9,40.9,40.9c22.6,0,40.9-18.3,40.9-40.9
				C168,19,149.7,0.8,127.1,0.8z M127.1,71.8C110.5,71.8,97,58.3,97,41.7c0-16.6,13.5-30.1,30.1-30.1c16.6,0,30.1,13.4,30.1,30.1
				C157.2,58.3,143.7,71.8,127.1,71.8z"/>
			<path class="st0" d="M168.8,41.7c0,23-18.7,41.7-41.7,41.7S85.4,64.7,85.4,41.7S104.1,0,127.1,0S168.8,18.6,168.8,41.7
				L168.8,41.7z"/>
		</g>
		<g>
			<g>
				<path class="st0" d="M127.1,10.6c-0.5,0-0.9-0.4-0.9-0.9v-8c0-0.5,0.4-0.9,0.9-0.9s0.9,0.4,0.9,0.9v8
					C128,10.2,127.6,10.6,127.1,10.6z"/>
				<path class="st0" d="M127.1,1.2c0.3,0,0.5,0.2,0.5,0.5v8c0,0.3-0.2,0.5-0.5,0.5s-0.5-0.2-0.5-0.5v-8
					C126.6,1.4,126.8,1.2,127.1,1.2 M127.1,0.5c-0.7,0-1.3,0.6-1.3,1.3v8c0,0.7,0.6,1.3,1.3,1.3s1.3-0.6,1.3-1.3v-8
					C128.3,1,127.8,0.5,127.1,0.5L127.1,0.5z"/>
			</g>
			<g>
				<path class="st0" d="M87.1,42.6c-0.5,0-0.9-0.4-0.9-0.9s0.4-0.9,0.9-0.9h8c0.5,0,0.9,0.4,0.9,0.9s-0.4,0.9-0.9,0.9H87.1z"/>
				<path class="st0" d="M95.1,41.2c0.3,0,0.5,0.2,0.5,0.5s-0.2,0.5-0.5,0.5h-8c-0.3,0-0.5-0.2-0.5-0.5s0.2-0.5,0.5-0.5H95.1
					 M95.1,40.5h-8c-0.7,0-1.3,0.6-1.3,1.3s0.6,1.3,1.3,1.3h8c0.7,0,1.3-0.6,1.3-1.3S95.8,40.5,95.1,40.5L95.1,40.5z"/>
			</g>
			<g>
				<path class="st0" d="M127.1,82.5c-0.5,0-0.9-0.4-0.9-0.9v-8c0-0.5,0.4-0.9,0.9-0.9s0.9,0.4,0.9,0.9v8
					C128,82.2,127.6,82.5,127.1,82.5z"/>
				<path class="st0" d="M127.1,73.2c0.3,0,0.5,0.2,0.5,0.5v8c0,0.3-0.2,0.5-0.5,0.5s-0.5-0.2-0.5-0.5v-8
					C126.6,73.4,126.8,73.2,127.1,73.2 M127.1,72.4c-0.7,0-1.3,0.6-1.3,1.3v8c0,0.7,0.6,1.3,1.3,1.3s1.3-0.6,1.3-1.3v-8
					C128.4,73,127.8,72.4,127.1,72.4L127.1,72.4z"/>
			</g>
			<g>
				<path class="st0" d="M159.1,42.6c-0.5,0-0.9-0.4-0.9-0.9s0.4-0.9,0.9-0.9h8c0.5,0,0.9,0.4,0.9,0.9s-0.4,0.9-0.9,0.9H159.1z"/>
				<path class="st0" d="M167.1,41.2c0.3,0,0.5,0.2,0.5,0.5s-0.2,0.5-0.5,0.5h-8c-0.3,0-0.5-0.2-0.5-0.5s0.2-0.5,0.5-0.5H167.1
					 M167.1,40.4h-8c-0.7,0-1.3,0.6-1.3,1.3s0.6,1.3,1.3,1.3h8c0.7,0,1.3-0.6,1.3-1.3S167.8,40.4,167.1,40.4L167.1,40.4z"/>
			</g>
			<g>
				<path class="st0" d="M104.5,19.9c-0.2,0-0.5-0.1-0.6-0.3l-5.6-5.6c-0.3-0.3-0.3-0.9,0-1.2c0.2-0.2,0.4-0.3,0.6-0.3
					s0.5,0.1,0.6,0.3l5.6,5.6c0.3,0.3,0.3,0.9,0,1.2C104.9,19.9,104.7,19.9,104.5,19.9z"/>
				<path class="st0" d="M98.8,12.9c0.1,0,0.3,0,0.4,0.1l5.6,5.6c0.2,0.2,0.2,0.5,0,0.7c-0.1,0.1-0.2,0.1-0.4,0.1s-0.3,0-0.4-0.1
					l-5.6-5.6c-0.2-0.2-0.2-0.5,0-0.7C98.6,13,98.7,12.9,98.8,12.9 M98.8,12.2c-0.3,0-0.6,0.1-0.9,0.4c-0.5,0.5-0.5,1.3,0,1.8
					l5.6,5.6c0.2,0.2,0.6,0.4,0.9,0.4c0.3,0,0.6-0.1,0.9-0.4c0.5-0.5,0.5-1.3,0-1.8l-5.6-5.6C99.5,12.3,99.2,12.2,98.8,12.2
					L98.8,12.2z"/>
			</g>
			<g>
				<path class="st0" d="M98.8,70.8c-0.2,0-0.5-0.1-0.6-0.3c-0.3-0.3-0.3-0.9,0-1.2l5.6-5.6c0.2-0.2,0.4-0.3,0.6-0.3
					s0.5,0.1,0.6,0.3c0.2,0.2,0.3,0.4,0.3,0.6s-0.1,0.5-0.3,0.6l-5.6,5.6C99.3,70.8,99.1,70.8,98.8,70.8z"/>
				<path class="st0" d="M104.5,63.8c0.1,0,0.3,0,0.4,0.1c0.2,0.2,0.2,0.5,0,0.7l-5.6,5.6c-0.1,0.1-0.2,0.1-0.4,0.1s-0.3,0-0.4-0.1
					c-0.2-0.2-0.2-0.5,0-0.7l5.6-5.6C104.2,63.9,104.3,63.8,104.5,63.8 M104.5,63.1c-0.3,0-0.6,0.1-0.9,0.4L98,69.1
					c-0.5,0.5-0.5,1.3,0,1.8c0.2,0.2,0.6,0.4,0.9,0.4c0.3,0,0.6-0.1,0.9-0.4l5.6-5.6c0.5-0.5,0.5-1.3,0-1.8
					C105.1,63.2,104.8,63.1,104.5,63.1L104.5,63.1z"/>
			</g>
			<g>
				<path class="st0" d="M155.4,70.8c-0.2,0-0.5-0.1-0.6-0.3l-5.6-5.6c-0.2-0.2-0.3-0.4-0.3-0.6s0.1-0.5,0.3-0.6
					c0.2-0.2,0.4-0.3,0.6-0.3s0.5,0.1,0.6,0.3l5.6,5.6c0.2,0.2,0.3,0.4,0.3,0.6s-0.1,0.5-0.3,0.6C155.8,70.7,155.6,70.8,155.4,70.8z
					"/>
				<path class="st0" d="M149.7,63.8c0.1,0,0.3,0,0.4,0.1l5.6,5.6c0.2,0.2,0.2,0.5,0,0.7c-0.1,0.1-0.2,0.1-0.4,0.1
					c-0.1,0-0.3,0-0.4-0.1l-5.6-5.6c-0.2-0.2-0.2-0.5,0-0.7C149.5,63.9,149.6,63.8,149.7,63.8 M149.7,63.1c-0.3,0-0.6,0.1-0.9,0.4
					c-0.5,0.5-0.5,1.3,0,1.8l5.6,5.6c0.2,0.2,0.6,0.4,0.9,0.4s0.6-0.1,0.9-0.4c0.5-0.5,0.5-1.3,0-1.8l-5.6-5.6
					C150.4,63.2,150.1,63.1,149.7,63.1L149.7,63.1z"/>
			</g>
			<g>
				<path class="st0" d="M149.7,19.9c-0.2,0-0.5-0.1-0.6-0.3c-0.3-0.3-0.3-0.9,0-1.2l5.6-5.6c0.2-0.2,0.4-0.3,0.6-0.3
					s0.5,0.1,0.6,0.3c0.3,0.3,0.3,0.9,0,1.2l-5.6,5.6C150.2,19.9,150,19.9,149.7,19.9z"/>
				<path class="st0" d="M155.4,12.9c0.1,0,0.3,0,0.4,0.1c0.2,0.2,0.2,0.5,0,0.7l-5.6,5.6c-0.1,0.1-0.2,0.1-0.4,0.1
					c-0.1,0-0.3,0-0.4-0.1c-0.2-0.2-0.2-0.5,0-0.7l5.6-5.6C155.1,13,155.2,12.9,155.4,12.9 M155.4,12.2c-0.3,0-0.6,0.1-0.9,0.4
					l-5.6,5.6c-0.5,0.5-0.5,1.3,0,1.8c0.2,0.2,0.6,0.4,0.9,0.4c0.3,0,0.6-0.1,0.9-0.4l5.6-5.6c0.5-0.5,0.5-1.3,0-1.8
					C156,12.3,155.7,12.2,155.4,12.2L155.4,12.2z"/>
			</g>
			<g>
				<path class="st0" d="M114.9,13c-0.4,0-0.7-0.2-0.8-0.5L111,5.1c-0.1-0.2-0.1-0.5,0-0.7c0.1-0.2,0.3-0.4,0.5-0.5
					c0.1,0,0.2-0.1,0.3-0.1c0.4,0,0.7,0.2,0.8,0.5l3.1,7.4c0.1,0.2,0.1,0.5,0,0.7c-0.1,0.2-0.3,0.4-0.5,0.5
					C115.1,13,115,13,114.9,13z"/>
				<path class="st0" d="M111.8,4.3c0.2,0,0.4,0.1,0.5,0.3l3.1,7.4c0.1,0.3,0,0.5-0.3,0.7c-0.1,0-0.1,0-0.2,0
					c-0.2,0-0.4-0.1-0.5-0.3L111.3,5c-0.1-0.3,0-0.5,0.3-0.7C111.7,4.3,111.7,4.3,111.8,4.3 M111.8,3.5c-0.2,0-0.3,0-0.5,0.1
					c-0.6,0.3-0.9,1-0.7,1.6l3.1,7.4c0.2,0.5,0.6,0.8,1.2,0.8c0.2,0,0.3,0,0.5-0.1c0.6-0.3,0.9-1,0.7-1.6L113,4.3
					C112.8,3.8,112.3,3.5,111.8,3.5L111.8,3.5z"/>
			</g>
			<g>
				<path class="st0" d="M90.2,57.9c-0.4,0-0.7-0.2-0.8-0.5c-0.2-0.4,0-1,0.5-1.1l7.4-3.1c0.1,0,0.2-0.1,0.3-0.1
					c0.4,0,0.7,0.2,0.8,0.5c0.2,0.4,0,1-0.5,1.1l-7.4,3.1C90.4,57.9,90.3,57.9,90.2,57.9z"/>
				<path class="st0" d="M97.5,53.4c0.2,0,0.4,0.1,0.5,0.3c0.1,0.3,0,0.5-0.3,0.7l-7.4,3.1c-0.1,0-0.1,0-0.2,0
					c-0.2,0-0.4-0.1-0.5-0.3c-0.1-0.3,0-0.5,0.3-0.7l7.4-3.1C97.4,53.5,97.5,53.4,97.5,53.4 M97.5,52.7c-0.2,0-0.3,0-0.5,0.1
					l-7.4,3.1c-0.6,0.3-0.9,1-0.7,1.6c0.2,0.5,0.6,0.8,1.2,0.8c0.2,0,0.3,0,0.5-0.1l7.4-3.1c0.3-0.1,0.5-0.4,0.7-0.7
					c0.1-0.3,0.1-0.6,0-1C98.5,53,98,52.7,97.5,52.7L97.5,52.7z"/>
			</g>
			<g>
				<path class="st0" d="M142.4,79.5c-0.4,0-0.7-0.2-0.8-0.5l-3.1-7.4c-0.2-0.4,0-1,0.5-1.1c0.1,0,0.2-0.1,0.3-0.1
					c0.4,0,0.7,0.2,0.8,0.5l3.1,7.4c0.1,0.2,0.1,0.5,0,0.7s-0.3,0.4-0.5,0.5C142.6,79.5,142.5,79.5,142.4,79.5z"/>
				<path class="st0" d="M139.3,70.8c0.2,0,0.4,0.1,0.5,0.3l3.1,7.4c0.1,0.3,0,0.5-0.3,0.7c-0.1,0-0.1,0-0.2,0
					c-0.2,0-0.4-0.1-0.5-0.3l-3.1-7.4c-0.1-0.3,0-0.5,0.3-0.7C139.2,70.8,139.3,70.8,139.3,70.8 M139.3,70L139.3,70
					c-0.2,0-0.3,0-0.5,0.1c-0.3,0.1-0.5,0.4-0.7,0.7c-0.1,0.3-0.1,0.6,0,1l3.1,7.4c0.2,0.5,0.6,0.8,1.2,0.8c0.2,0,0.3,0,0.5-0.1
					c0.3-0.1,0.5-0.4,0.7-0.7c0.1-0.3,0.1-0.6,0-1l-3.1-7.4C140.3,70.3,139.9,70,139.3,70L139.3,70z"/>
			</g>
			<g>
				<path class="st0" d="M156.7,30.3c-0.4,0-0.7-0.2-0.8-0.5c-0.1-0.2-0.1-0.5,0-0.7c0.1-0.2,0.3-0.4,0.5-0.5l7.4-3.1
					c0.1,0,0.2-0.1,0.3-0.1c0.4,0,0.7,0.2,0.8,0.5c0.2,0.4,0,1-0.5,1.1l-7.4,3.1C156.9,30.3,156.8,30.3,156.7,30.3z"/>
				<path class="st0" d="M164,25.9c0.2,0,0.4,0.1,0.5,0.3c0.1,0.3,0,0.5-0.3,0.7l-7.4,3.1c-0.1,0-0.1,0-0.2,0
					c-0.2,0-0.4-0.1-0.5-0.3c-0.1-0.3,0-0.5,0.3-0.7l7.4-3.1C163.9,25.9,164,25.9,164,25.9 M164,25.2c-0.2,0-0.3,0-0.5,0.1l-7.4,3.1
					c-0.6,0.3-0.9,1-0.7,1.6c0.2,0.5,0.6,0.8,1.2,0.8c0.2,0,0.3,0,0.5-0.1l7.4-3.1c0.6-0.3,0.9-1,0.7-1.6
					C165,25.5,164.5,25.2,164,25.2L164,25.2z"/>
			</g>
			<g>
				<path class="st0" d="M97.5,30.3c-0.1,0-0.2,0-0.3-0.1l-7.4-3.1c-0.2-0.1-0.4-0.3-0.5-0.5c-0.1-0.2-0.1-0.5,0-0.7
					c0.1-0.3,0.5-0.5,0.8-0.5c0.1,0,0.2,0,0.3,0.1l7.4,3.1c0.4,0.2,0.7,0.7,0.5,1.1C98.2,30.1,97.9,30.3,97.5,30.3z"/>
				<path class="st0" d="M90.2,25.9c0.1,0,0.1,0,0.2,0l7.4,3.1c0.3,0.1,0.4,0.4,0.3,0.7c-0.1,0.2-0.3,0.3-0.5,0.3
					c-0.1,0-0.1,0-0.2,0L90,26.9c-0.3-0.1-0.4-0.4-0.3-0.7C89.8,26,90,25.9,90.2,25.9 M90.2,25.2c-0.5,0-1,0.3-1.2,0.8
					c-0.3,0.6,0,1.4,0.7,1.6l7.4,3.1c0.2,0.1,0.3,0.1,0.5,0.1c0.5,0,1-0.3,1.2-0.8c0.3-0.6,0-1.4-0.7-1.6l-7.4-3.1
					C90.5,25.2,90.3,25.2,90.2,25.2L90.2,25.2z"/>
			</g>
			<g>
				<path class="st0" d="M111.8,79.5c-0.1,0-0.2,0-0.3-0.1c-0.2-0.1-0.4-0.3-0.5-0.5c-0.1-0.2-0.1-0.5,0-0.7l3.1-7.4
					c0.1-0.3,0.5-0.5,0.8-0.5c0.1,0,0.2,0,0.3,0.1c0.4,0.2,0.7,0.7,0.5,1.1l-3.1,7.4C112.5,79.3,112.2,79.5,111.8,79.5z"/>
				<path class="st0" d="M114.9,70.8c0.1,0,0.1,0,0.2,0c0.3,0.1,0.4,0.4,0.3,0.7l-3.1,7.4c-0.1,0.2-0.3,0.3-0.5,0.3
					c-0.1,0-0.1,0-0.2,0c-0.3-0.1-0.4-0.4-0.3-0.7l3.1-7.4C114.5,70.9,114.7,70.8,114.9,70.8 M114.9,70c-0.5,0-1,0.3-1.2,0.8
					l-3.1,7.4c-0.3,0.6,0,1.4,0.7,1.6c0.2,0.1,0.3,0.1,0.5,0.1c0.5,0,1-0.3,1.2-0.8l3.1-7.4c0.1-0.3,0.1-0.6,0-1
					c-0.1-0.3-0.4-0.5-0.7-0.7C115.2,70,115,70,114.9,70L114.9,70z"/>
			</g>
			<g>
				<path class="st0" d="M164,57.9c-0.1,0-0.2,0-0.3-0.1l-7.4-3c-0.4-0.2-0.7-0.7-0.5-1.1c0.1-0.3,0.5-0.5,0.8-0.5
					c0.1,0,0.2,0,0.3,0.1l7.4,3c0.4,0.2,0.7,0.7,0.5,1.1C164.7,57.7,164.4,57.9,164,57.9z"/>
				<path class="st0" d="M156.7,53.4c0.1,0,0.1,0,0.2,0l7.4,3.1c0.3,0.1,0.4,0.4,0.3,0.7c-0.1,0.2-0.3,0.3-0.5,0.3
					c-0.1,0-0.1,0-0.2,0l-7.4-3.1c-0.3-0.1-0.4-0.4-0.3-0.7C156.3,53.6,156.5,53.4,156.7,53.4 M156.7,52.7c-0.5,0-1,0.3-1.2,0.8
					c-0.3,0.6,0,1.4,0.7,1.6l7.4,3.1c0.2,0.1,0.3,0.1,0.5,0.1c0.5,0,1-0.3,1.2-0.8c0.3-0.6,0-1.4-0.7-1.6l-7.4-3.1
					C157,52.7,156.8,52.7,156.7,52.7L156.7,52.7z"/>
			</g>
			<g>
				<path class="st0" d="M139.3,13c-0.1,0-0.2,0-0.3-0.1c-0.2-0.1-0.4-0.3-0.5-0.5c-0.1-0.2-0.1-0.5,0-0.7l3-7.4
					c0.1-0.3,0.5-0.5,0.8-0.5c0.1,0,0.2,0,0.3,0.1c0.4,0.2,0.7,0.7,0.5,1.1l-3.1,7.4C140,12.8,139.7,13,139.3,13z"/>
				<path class="st0" d="M142.4,4.3c0.1,0,0.1,0,0.2,0c0.3,0.1,0.4,0.4,0.3,0.7l-3.1,7.4c-0.1,0.2-0.3,0.3-0.5,0.3
					c-0.1,0-0.1,0-0.2,0c-0.3-0.1-0.4-0.4-0.3-0.7l3.1-7.4C142,4.4,142.2,4.3,142.4,4.3 M142.4,3.5L142.4,3.5c-0.5,0-1,0.3-1.2,0.8
					l-3.1,7.4c-0.3,0.6,0,1.4,0.7,1.6c0.2,0.1,0.3,0.1,0.5,0.1c0.5,0,1-0.3,1.2-0.8l3.1-7.4c0.3-0.6,0-1.4-0.7-1.6
					C142.7,3.6,142.6,3.5,142.4,3.5L142.4,3.5z"/>
			</g>
			<g>
				<path class="st0" d="M120.9,11.2c-0.4,0-0.8-0.3-0.9-0.7l-1.6-7.8c-0.1-0.5,0.2-0.9,0.7-1l0,0l0.1,0c0.4,0,0.8,0.3,0.9,0.7
					l1.6,7.8c0,0.2,0,0.5-0.1,0.7c-0.1,0.2-0.3,0.3-0.6,0.4l0,0L120.9,11.2z"/>
				<path class="st0" d="M119.3,2c0.2,0,0.4,0.2,0.5,0.4l1.6,7.8c0.1,0.3-0.1,0.5-0.4,0.6c0,0-0.1,0-0.1,0c-0.2,0-0.4-0.2-0.5-0.4
					l-1.6-7.8C118.8,2.3,118.9,2.1,119.3,2C119.2,2,119.3,2,119.3,2 M119.3,1.2L119.3,1.2c-0.1,0-0.2,0-0.2,0
					c-0.7,0.1-1.1,0.8-1,1.5l1.6,7.8c0.1,0.6,0.6,1,1.2,1c0.1,0,0.2,0,0.2,0c0.7-0.1,1.1-0.8,1-1.5l-1.6-7.8
					C120.4,1.7,119.9,1.2,119.3,1.2L119.3,1.2z"/>
			</g>
			<g>
				<path class="st0" d="M87.9,50.4c-0.4,0-0.8-0.3-0.9-0.7c0-0.2,0-0.5,0.1-0.7c0.1-0.2,0.3-0.3,0.6-0.4l7.9-1.6l0.1,0
					c0.4,0,0.8,0.3,0.9,0.7c0,0.2,0,0.5-0.1,0.7s-0.3,0.3-0.6,0.4L88,50.4L87.9,50.4z"/>
				<path class="st0" d="M95.7,47.4c0.2,0,0.4,0.2,0.5,0.4c0.1,0.3-0.1,0.5-0.4,0.6L88,50c0,0-0.1,0-0.1,0c-0.2,0-0.4-0.2-0.5-0.4
					c-0.1-0.3,0.1-0.5,0.4-0.6L95.7,47.4C95.7,47.4,95.7,47.4,95.7,47.4 M95.7,46.7L95.7,46.7c-0.1,0-0.2,0-0.2,0l-7.8,1.6
					c-0.3,0.1-0.6,0.3-0.8,0.5c-0.2,0.3-0.3,0.6-0.2,0.9c0.1,0.6,0.6,1,1.2,1c0.1,0,0.2,0,0.2,0l7.8-1.6c0.3-0.1,0.6-0.3,0.8-0.5
					c0.2-0.3,0.3-0.6,0.2-0.9C96.8,47.1,96.3,46.7,95.7,46.7L95.7,46.7z"/>
			</g>
			<g>
				<path class="st0" d="M134.9,81.8c-0.4,0-0.8-0.3-0.9-0.7l-1.6-7.8c0-0.2,0-0.5,0.1-0.7c0.1-0.2,0.3-0.3,0.6-0.4l0,0l0.1,0
					c0.4,0,0.8,0.3,0.9,0.7l1.6,7.8c0,0.2,0,0.5-0.1,0.7c-0.1,0.2-0.3,0.3-0.6,0.4l0,0L134.9,81.8z"/>
				<path class="st0" d="M133.3,72.6c0.2,0,0.4,0.2,0.5,0.4l1.6,7.8c0.1,0.3-0.1,0.5-0.4,0.6c0,0-0.1,0-0.1,0
					c-0.2,0-0.4-0.2-0.5-0.4l-1.6-7.8C132.8,72.9,133,72.6,133.3,72.6C133.3,72.6,133.3,72.6,133.3,72.6 M133.3,71.8L133.3,71.8
					c-0.1,0-0.2,0-0.2,0c-0.3,0.1-0.6,0.3-0.8,0.5c-0.2,0.3-0.3,0.6-0.2,0.9l1.6,7.8c0.1,0.6,0.6,1,1.2,1c0.1,0,0.2,0,0.2,0
					c0.3-0.1,0.6-0.3,0.8-0.5c0.2-0.3,0.3-0.6,0.2-0.9l-1.6-7.8C134.5,72.3,133.9,71.8,133.3,71.8L133.3,71.8z"/>
			</g>
			<g>
				<path class="st0" d="M158.5,36.3c-0.4,0-0.8-0.3-0.9-0.7c0-0.2,0-0.5,0.1-0.7c0.1-0.2,0.3-0.3,0.6-0.4l7.9-1.6l0.1,0
					c0.4,0,0.8,0.3,0.9,0.7c0.1,0.5-0.2,0.9-0.7,1l-7.9,1.6L158.5,36.3z"/>
				<path class="st0" d="M166.3,33.4c0.2,0,0.4,0.2,0.5,0.4c0.1,0.3-0.1,0.5-0.4,0.6l-7.8,1.6c0,0-0.1,0-0.1,0
					c-0.2,0-0.4-0.2-0.5-0.4c-0.1-0.3,0.1-0.5,0.4-0.6L166.3,33.4C166.2,33.4,166.3,33.4,166.3,33.4 M166.3,32.7L166.3,32.7
					c-0.1,0-0.2,0-0.2,0l-7.8,1.6c-0.3,0.1-0.6,0.3-0.8,0.5c-0.2,0.3-0.3,0.6-0.2,0.9c0.1,0.6,0.6,1,1.2,1c0.1,0,0.2,0,0.2,0
					l7.8-1.6c0.7-0.1,1.1-0.8,1-1.5C167.4,33.1,166.9,32.7,166.3,32.7L166.3,32.7z"/>
			</g>
			<g>
				<path class="st0" d="M100.5,24.8c-0.2,0-0.3-0.1-0.5-0.1l-6.6-4.4c-0.2-0.1-0.3-0.3-0.4-0.6c0-0.2,0-0.5,0.1-0.7
					c0.2-0.2,0.4-0.4,0.7-0.4c0.2,0,0.3,0.1,0.5,0.1l6.6,4.4c0.2,0.1,0.3,0.3,0.4,0.6c0,0.2,0,0.5-0.1,0.7
					C101.1,24.7,100.8,24.8,100.5,24.8z"/>
				<path class="st0" d="M93.9,19c0.1,0,0.2,0,0.3,0.1l6.6,4.4c0.2,0.2,0.3,0.5,0.1,0.7c-0.1,0.1-0.3,0.2-0.4,0.2
					c-0.1,0-0.2,0-0.3-0.1l-6.6-4.4c-0.2-0.2-0.3-0.5-0.1-0.7C93.5,19.1,93.7,19,93.9,19 M93.9,18.2c-0.4,0-0.8,0.2-1,0.6
					c-0.2,0.3-0.3,0.6-0.2,0.9s0.3,0.6,0.5,0.8l6.6,4.4c0.2,0.1,0.4,0.2,0.7,0.2c0.4,0,0.8-0.2,1-0.6c0.4-0.6,0.2-1.4-0.3-1.7
					l-6.6-4.4C94.4,18.3,94.1,18.2,93.9,18.2L93.9,18.2z"/>
			</g>
			<g>
				<path class="st0" d="M104.9,75.8c-0.2,0-0.3-0.1-0.5-0.1c-0.2-0.1-0.3-0.3-0.4-0.6c0-0.2,0-0.5,0.1-0.7l4.4-6.6
					c0.2-0.2,0.4-0.4,0.7-0.4c0.2,0,0.3,0.1,0.5,0.1c0.2,0.1,0.3,0.3,0.4,0.6s0,0.5-0.1,0.7l-4.4,6.6
					C105.5,75.7,105.2,75.8,104.9,75.8z"/>
				<path class="st0" d="M109.3,67.8c0.1,0,0.2,0,0.3,0.1c0.2,0.2,0.3,0.5,0.1,0.7l-4.4,6.6c-0.1,0.1-0.3,0.2-0.4,0.2
					c-0.1,0-0.2,0-0.3-0.1c-0.2-0.2-0.3-0.5-0.1-0.7l4.4-6.6C109,67.9,109.2,67.8,109.3,67.8 M109.3,67.1c-0.4,0-0.8,0.2-1,0.6
					l-4.4,6.6c-0.2,0.3-0.3,0.6-0.2,0.9c0.1,0.3,0.3,0.6,0.5,0.8c0.2,0.1,0.4,0.2,0.7,0.2c0.4,0,0.8-0.2,1-0.6l4.4-6.6
					c0.4-0.6,0.2-1.4-0.3-1.7C109.8,67.1,109.6,67.1,109.3,67.1L109.3,67.1z"/>
			</g>
			<g>
				<path class="st0" d="M160.3,64.8c-0.2,0-0.3-0.1-0.5-0.1l-6.6-4.4c-0.2-0.1-0.3-0.3-0.4-0.6c0-0.2,0-0.5,0.1-0.7
					c0.2-0.2,0.4-0.4,0.7-0.4c0.2,0,0.3,0.1,0.5,0.1l6.6,4.4c0.4,0.3,0.5,0.8,0.2,1.2C160.9,64.6,160.6,64.8,160.3,64.8z"/>
				<path class="st0" d="M153.7,59c0.1,0,0.2,0,0.3,0.1l6.6,4.4c0.2,0.2,0.3,0.5,0.1,0.7c-0.1,0.1-0.3,0.2-0.4,0.2
					c-0.1,0-0.2,0-0.3-0.1l-6.6-4.4c-0.2-0.2-0.3-0.5-0.1-0.7C153.4,59.1,153.5,59,153.7,59 M153.7,58.2c-0.4,0-0.8,0.2-1,0.6
					c-0.4,0.6-0.2,1.4,0.3,1.7l6.6,4.4c0.2,0.1,0.4,0.2,0.7,0.2c0.4,0,0.8-0.2,1-0.6c0.4-0.6,0.2-1.4-0.3-1.7l-6.6-4.4
					C154.2,58.3,154,58.2,153.7,58.2L153.7,58.2z"/>
			</g>
			<g>
				<path class="st0" d="M144.9,16c-0.2,0-0.3-0.1-0.5-0.1c-0.4-0.3-0.5-0.8-0.2-1.2l4.4-6.6c0.2-0.2,0.4-0.4,0.7-0.4
					c0.2,0,0.3,0.1,0.5,0.1c0.4,0.3,0.5,0.8,0.2,1.2l-4.4,6.6C145.4,15.8,145.2,16,144.9,16z"/>
				<path class="st0" d="M149.3,8c0.1,0,0.2,0,0.3,0.1c0.2,0.2,0.3,0.5,0.1,0.7l-4.4,6.6c-0.1,0.1-0.3,0.2-0.4,0.2
					c-0.1,0-0.2,0-0.3-0.1c-0.2-0.2-0.3-0.5-0.1-0.7l4.4-6.6C149,8,149.1,8,149.3,8 M149.3,7.2c-0.4,0-0.8,0.2-1,0.6l-4.4,6.6
					c-0.2,0.3-0.3,0.6-0.2,0.9c0.1,0.3,0.3,0.6,0.5,0.8c0.2,0.1,0.4,0.2,0.7,0.2c0.4,0,0.8-0.2,1-0.6l4.4-6.6
					c0.4-0.6,0.2-1.4-0.3-1.7C149.8,7.3,149.6,7.2,149.3,7.2L149.3,7.2z"/>
			</g>
			<g>
				<path class="st0" d="M109.3,16c-0.3,0-0.6-0.1-0.7-0.4l-4.4-6.6C104,8.8,104,8.5,104,8.3c0-0.2,0.2-0.4,0.4-0.6
					c0.1-0.1,0.3-0.1,0.5-0.1c0.3,0,0.6,0.1,0.7,0.4l4.4,6.6c0.3,0.4,0.2,0.9-0.2,1.2C109.7,15.9,109.5,16,109.3,16z"/>
				<path class="st0" d="M104.9,8c0.2,0,0.3,0.1,0.4,0.2l4.4,6.6c0.2,0.2,0.1,0.5-0.1,0.7c-0.1,0.1-0.2,0.1-0.3,0.1
					c-0.2,0-0.3-0.1-0.4-0.2l-4.4-6.6c-0.2-0.2-0.1-0.5,0.1-0.7C104.7,8,104.8,8,104.9,8 M104.9,7.2L104.9,7.2
					c-0.2,0-0.5,0.1-0.7,0.2c-0.3,0.2-0.5,0.5-0.5,0.8c-0.1,0.3,0,0.7,0.2,0.9l4.4,6.6c0.2,0.3,0.6,0.6,1,0.6c0.2,0,0.5-0.1,0.7-0.2
					c0.3-0.2,0.5-0.5,0.5-0.8c0.1-0.3,0-0.7-0.2-0.9l-4.4-6.6C105.7,7.4,105.3,7.2,104.9,7.2L104.9,7.2z"/>
			</g>
			<g>
				<path class="st0" d="M93.9,64.8c-0.3,0-0.6-0.1-0.7-0.4C93,64.2,93,64,93,63.7c0-0.2,0.2-0.4,0.4-0.6l6.6-4.4
					c0.1-0.1,0.3-0.1,0.5-0.1c0.3,0,0.6,0.1,0.7,0.4c0.1,0.2,0.2,0.4,0.1,0.7c0,0.2-0.2,0.4-0.4,0.6l-6.6,4.4
					C94.2,64.7,94,64.8,93.9,64.8z"/>
				<path class="st0" d="M100.5,59c0.2,0,0.3,0.1,0.4,0.2c0.2,0.2,0.1,0.5-0.1,0.7l-6.6,4.4c-0.1,0.1-0.2,0.1-0.3,0.1
					c-0.2,0-0.3-0.1-0.4-0.2c-0.2-0.2-0.1-0.5,0.1-0.7l6.6-4.4C100.3,59,100.4,59,100.5,59 M100.5,58.2L100.5,58.2
					c-0.2,0-0.5,0.1-0.7,0.2l-6.6,4.4c-0.3,0.2-0.5,0.5-0.5,0.8c-0.1,0.3,0,0.7,0.2,0.9c0.2,0.3,0.6,0.6,1,0.6
					c0.2,0,0.5-0.1,0.7-0.2l6.6-4.4c0.6-0.4,0.7-1.2,0.3-1.7C101.3,58.4,100.9,58.2,100.5,58.2L100.5,58.2z"/>
			</g>
			<g>
				<path class="st0" d="M149.3,75.8c-0.3,0-0.6-0.1-0.7-0.4l-4.4-6.6c-0.1-0.2-0.2-0.4-0.1-0.7c0-0.2,0.2-0.4,0.4-0.6
					c0.1-0.1,0.3-0.1,0.5-0.1c0.3,0,0.6,0.1,0.7,0.4l4.4,6.6c0.3,0.4,0.2,0.9-0.2,1.2C149.6,75.8,149.5,75.8,149.3,75.8z"/>
				<path class="st0" d="M144.9,67.8c0.2,0,0.3,0.1,0.4,0.2l4.4,6.6c0.2,0.2,0.1,0.5-0.1,0.7c-0.1,0.1-0.2,0.1-0.3,0.1
					c-0.2,0-0.3-0.1-0.4-0.2l-4.4-6.6c-0.2-0.2-0.1-0.5,0.1-0.7C144.7,67.8,144.8,67.8,144.9,67.8 M144.9,67.1
					c-0.2,0-0.5,0.1-0.7,0.2c-0.3,0.2-0.5,0.5-0.5,0.8s0,0.7,0.2,0.9l4.4,6.6c0.2,0.3,0.6,0.6,1,0.6c0.2,0,0.5-0.1,0.7-0.2
					c0.3-0.2,0.5-0.5,0.5-0.8c0.1-0.3,0-0.7-0.2-0.9l-4.4-6.6C145.7,67.3,145.3,67.1,144.9,67.1L144.9,67.1z"/>
			</g>
			<g>
				<path class="st0" d="M153.7,24.8c-0.3,0-0.6-0.1-0.7-0.4c-0.1-0.2-0.2-0.4-0.1-0.7c0-0.2,0.2-0.4,0.4-0.6l6.6-4.4
					c0.1-0.1,0.3-0.1,0.5-0.1c0.3,0,0.6,0.1,0.7,0.4c0.3,0.4,0.2,0.9-0.2,1.2l-6.6,4.4C154,24.7,153.9,24.8,153.7,24.8z"/>
				<path class="st0" d="M160.3,19c0.2,0,0.3,0.1,0.4,0.2c0.2,0.2,0.1,0.5-0.1,0.7l-6.6,4.4c-0.1,0.1-0.2,0.1-0.3,0.1
					c-0.2,0-0.3-0.1-0.4-0.2c-0.2-0.2-0.1-0.5,0.1-0.7l6.6-4.4C160.1,19,160.2,19,160.3,19 M160.3,18.2L160.3,18.2
					c-0.2,0-0.5,0.1-0.7,0.2l-6.6,4.4c-0.6,0.4-0.7,1.2-0.3,1.7c0.2,0.3,0.6,0.6,1,0.6c0.2,0,0.5-0.1,0.7-0.2l6.6-4.4
					c0.3-0.2,0.5-0.5,0.5-0.8c0.1-0.3,0-0.7-0.2-0.9C161.1,18.4,160.8,18.2,160.3,18.2L160.3,18.2z"/>
			</g>
			<g>
				<path class="st0" d="M95.7,36.3l-0.1,0l-7.8-1.6c-0.2,0-0.4-0.2-0.6-0.4C87,34.2,87,34,87,33.7c0.1-0.4,0.4-0.7,0.9-0.7h0l0.1,0
					l7.8,1.6c0.2,0,0.4,0.2,0.6,0.4c0.1,0.2,0.2,0.4,0.1,0.7C96.5,36,96.1,36.3,95.7,36.3L95.7,36.3z"/>
				<path class="st0" d="M87.9,33.4C87.9,33.4,88,33.4,87.9,33.4l7.9,1.6c0.3,0.1,0.4,0.3,0.4,0.6c0,0.2-0.3,0.4-0.5,0.4
					c0,0-0.1,0-0.1,0l-7.8-1.6c-0.3-0.1-0.4-0.3-0.4-0.6C87.5,33.6,87.7,33.4,87.9,33.4 M87.9,32.7L87.9,32.7c-0.6,0-1.1,0.4-1.2,1
					c-0.1,0.3,0,0.7,0.2,0.9c0.2,0.3,0.5,0.5,0.8,0.5l7.8,1.6c0.1,0,0.2,0,0.2,0c0.6,0,1.1-0.4,1.2-1c0.1-0.7-0.3-1.3-1-1.5
					l-7.8-1.6C88.1,32.7,88,32.7,87.9,32.7L87.9,32.7z"/>
			</g>
			<g>
				<path class="st0" d="M119.3,81.8l-0.1,0c-0.5-0.1-0.8-0.6-0.7-1l1.6-7.8c0.1-0.4,0.4-0.7,0.9-0.7h0l0.1,0c0.5,0.1,0.8,0.6,0.7,1
					l-1.6,7.8C120.1,81.5,119.7,81.8,119.3,81.8L119.3,81.8z"/>
				<path class="st0" d="M120.9,72.6C120.9,72.6,120.9,72.6,120.9,72.6c0.4,0.1,0.5,0.3,0.5,0.6l-1.6,7.8c0,0.2-0.3,0.4-0.5,0.4
					c0,0-0.1,0-0.1,0c-0.3-0.1-0.4-0.3-0.4-0.6l1.6-7.8C120.4,72.7,120.6,72.6,120.9,72.6 M120.9,71.8L120.9,71.8
					c-0.6,0-1.1,0.4-1.2,1l-1.6,7.8c-0.1,0.3,0,0.7,0.2,0.9c0.2,0.3,0.5,0.5,0.8,0.5c0.1,0,0.2,0,0.2,0c0.6,0,1.1-0.4,1.2-1l1.6-7.8
					c0.1-0.7-0.3-1.3-1-1.5C121,71.8,120.9,71.8,120.9,71.8L120.9,71.8z"/>
			</g>
			<g>
				<path class="st0" d="M166.3,50.4l-0.1,0l-7.8-1.6c-0.2,0-0.4-0.2-0.6-0.4c-0.1-0.2-0.2-0.4-0.1-0.7c0.1-0.4,0.4-0.7,0.9-0.7h0
					l0.1,0l7.8,1.6c0.2,0,0.4,0.2,0.6,0.4s0.2,0.4,0.1,0.7C167.1,50.1,166.7,50.4,166.3,50.4L166.3,50.4z"/>
				<path class="st0" d="M158.5,47.4C158.5,47.4,158.5,47.4,158.5,47.4l7.9,1.6c0.3,0.1,0.4,0.3,0.4,0.6c0,0.2-0.3,0.4-0.5,0.4
					c0,0-0.1,0-0.1,0l-7.8-1.6c-0.3-0.1-0.4-0.3-0.4-0.6C158,47.6,158.3,47.4,158.5,47.4 M158.5,46.7L158.5,46.7
					c-0.6,0-1.1,0.4-1.2,1c-0.1,0.3,0,0.7,0.2,0.9c0.2,0.3,0.5,0.5,0.8,0.5l7.8,1.6c0.1,0,0.2,0,0.2,0c0.6,0,1.1-0.4,1.2-1
					c0.1-0.3,0-0.7-0.2-0.9c-0.2-0.3-0.5-0.5-0.8-0.5l-7.8-1.6C158.6,46.7,158.6,46.7,158.5,46.7L158.5,46.7z"/>
			</g>
			<g>
				<path class="st0" d="M133.3,11.2l-0.1,0c-0.2,0-0.4-0.2-0.6-0.4c-0.1-0.2-0.2-0.4-0.1-0.7l1.6-7.8c0.1-0.4,0.4-0.7,0.9-0.7h0
					l0.1,0c0.5,0.1,0.8,0.6,0.7,1l-1.6,7.8C134.1,10.9,133.8,11.2,133.3,11.2L133.3,11.2z"/>
				<path class="st0" d="M134.9,2C134.9,2,135,2,134.9,2c0.4,0.1,0.5,0.3,0.5,0.6l-1.6,7.8c0,0.2-0.3,0.4-0.5,0.4c0,0-0.1,0-0.1,0
					c-0.3-0.1-0.4-0.3-0.4-0.6l1.6-7.8C134.5,2.2,134.7,2,134.9,2 M134.9,1.2L134.9,1.2c-0.6,0-1.1,0.4-1.2,1l-1.6,7.8
					c-0.1,0.7,0.3,1.3,1,1.5c0.1,0,0.2,0,0.2,0c0.6,0,1.1-0.4,1.2-1l1.6-7.8c0.1-0.7-0.3-1.3-1-1.5C135.1,1.3,135,1.2,134.9,1.2
					L134.9,1.2z"/>
			</g>
			<g>
				<path class="st0" d="M124,10.7c-0.5,0-0.8-0.3-0.9-0.8L122.3,2c0-0.5,0.3-0.9,0.8-1c0,0,0,0,0,0c0.5,0,0.9,0.3,0.9,0.8l0.8,7.9
					C124.9,10.2,124.5,10.7,124,10.7L124,10.7z"/>
				<path class="st0" d="M123.2,1.4c0.3,0,0.5,0.2,0.5,0.5l0.8,7.9c0,0.3-0.2,0.5-0.4,0.5c0,0,0,0,0,0c-0.3,0-0.5-0.2-0.5-0.5
					L122.7,2C122.7,1.7,122.9,1.4,123.2,1.4C123.1,1.4,123.2,1.4,123.2,1.4 M123.2,0.7L123.2,0.7l-0.1,0c-0.3,0-0.6,0.2-0.8,0.5
					c-0.2,0.3-0.3,0.6-0.3,0.9l0.8,7.9c0.1,0.6,0.6,1.1,1.2,1.1h0l0.1,0c0.7-0.1,1.2-0.7,1.1-1.4l-0.8-7.9
					C124.4,1.2,123.8,0.7,123.2,0.7L123.2,0.7z"/>
			</g>
			<g>
				<path class="st0" d="M87.3,46.5c-0.5,0-0.8-0.3-0.9-0.8c0-0.5,0.3-0.9,0.8-1c0,0,7.9-0.8,7.9-0.8c0.5,0,0.9,0.3,0.9,0.8
					c0,0.5-0.3,0.9-0.8,1L87.3,46.5L87.3,46.5z"/>
				<path class="st0" d="M95.3,44.3c0.3,0,0.5,0.2,0.5,0.5c0,0.3-0.2,0.5-0.4,0.5l-7.9,0.8c0,0,0,0,0,0c-0.3,0-0.5-0.2-0.5-0.5
					c0-0.3,0.2-0.5,0.4-0.5L95.3,44.3C95.2,44.3,95.2,44.3,95.3,44.3 M95.3,43.6L95.3,43.6l-0.1,0l-7.9,0.8c-0.3,0-0.6,0.2-0.8,0.5
					c-0.2,0.3-0.3,0.6-0.3,0.9c0.1,0.6,0.6,1.1,1.2,1.1h0l0.1,0l7.9-0.8c0.3,0,0.6-0.2,0.8-0.5c0.2-0.3,0.3-0.6,0.3-0.9
					C96.4,44.1,95.9,43.6,95.3,43.6L95.3,43.6z"/>
			</g>
			<g>
				<path class="st0" d="M131,82.4c-0.5,0-0.8-0.3-0.9-0.8l-0.8-7.9c0-0.2,0-0.5,0.2-0.6c0.1-0.2,0.4-0.3,0.6-0.3c0,0,0,0,0,0
					c0.5,0,0.9,0.3,0.9,0.8l0.8,7.9c0,0.2,0,0.5-0.2,0.6C131.5,82.2,131.3,82.3,131,82.4L131,82.4z"/>
				<path class="st0" d="M130.2,73c0.3,0,0.5,0.2,0.5,0.5l0.8,7.9c0,0.3-0.2,0.5-0.4,0.5c0,0,0,0,0,0c-0.3,0-0.5-0.2-0.5-0.5
					l-0.8-7.9C129.7,73.3,129.9,73.1,130.2,73C130.2,73,130.2,73,130.2,73 M130.2,72.3L130.2,72.3l-0.1,0c-0.3,0-0.6,0.2-0.8,0.5
					c-0.2,0.3-0.3,0.6-0.3,0.9l0.8,7.9c0.1,0.6,0.6,1.1,1.2,1.1h0l0.1,0c0.7-0.1,1.2-0.7,1.1-1.4l-0.8-7.9
					C131.4,72.8,130.9,72.3,130.2,72.3L130.2,72.3z"/>
			</g>
			<g>
				<path class="st0" d="M158.9,39.4c-0.5,0-0.8-0.3-0.9-0.8c0-0.5,0.3-0.9,0.8-1c0,0,7.9-0.8,7.9-0.8c0.5,0,0.9,0.3,0.9,0.8
					c0,0.2,0,0.5-0.2,0.6s-0.4,0.3-0.6,0.3L158.9,39.4L158.9,39.4z"/>
				<path class="st0" d="M166.9,37.3c0.3,0,0.5,0.2,0.5,0.5c0,0.3-0.2,0.5-0.4,0.5l-7.9,0.8c0,0,0,0,0,0c-0.3,0-0.5-0.2-0.5-0.5
					c0-0.3,0.2-0.5,0.4-0.5L166.9,37.3C166.8,37.3,166.9,37.3,166.9,37.3 M166.9,36.5L166.9,36.5l-0.1,0l-7.9,0.8
					c-0.7,0.1-1.2,0.7-1.1,1.4c0.1,0.6,0.6,1.1,1.2,1.1h0l0.1,0L167,39c0.7-0.1,1.2-0.7,1.1-1.4C168.1,37,167.5,36.5,166.9,36.5
					L166.9,36.5z"/>
			</g>
			<g>
				<path class="st0" d="M102.4,22.3c-0.2,0-0.4-0.1-0.6-0.2L95.6,17c-0.2-0.1-0.3-0.4-0.3-0.6c0-0.2,0-0.5,0.2-0.6
					c0.2-0.2,0.4-0.3,0.7-0.3c0.2,0,0.4,0.1,0.6,0.2l6.2,5.1c0.2,0.1,0.3,0.4,0.3,0.6c0,0.2,0,0.5-0.2,0.6
					C102.9,22.2,102.6,22.3,102.4,22.3z"/>
				<path class="st0" d="M96.2,15.8c0.1,0,0.2,0,0.3,0.1l6.2,5.1c0.2,0.2,0.2,0.5,0.1,0.7c-0.1,0.1-0.2,0.2-0.4,0.2
					c-0.1,0-0.2,0-0.3-0.1l-6.2-5.1c-0.2-0.2-0.2-0.5-0.1-0.7C95.9,15.9,96.1,15.8,96.2,15.8 M96.2,15.1L96.2,15.1
					c-0.4,0-0.7,0.2-1,0.5c-0.2,0.3-0.3,0.6-0.3,0.9c0,0.3,0.2,0.6,0.5,0.8l6.2,5.1c0.2,0.2,0.5,0.3,0.8,0.3c0.4,0,0.7-0.2,1-0.5
					c0.2-0.3,0.3-0.6,0.3-0.9c0-0.3-0.2-0.6-0.5-0.8L97,15.4C96.8,15.2,96.5,15.1,96.2,15.1L96.2,15.1z"/>
			</g>
			<g>
				<path class="st0" d="M101.7,73.5c-0.2,0-0.4-0.1-0.6-0.2c-0.2-0.1-0.3-0.4-0.3-0.6c0-0.2,0-0.5,0.2-0.6l5.1-6.2
					c0.2-0.2,0.4-0.3,0.7-0.3c0.2,0,0.4,0.1,0.6,0.2c0.2,0.1,0.3,0.4,0.3,0.6c0,0.2,0,0.5-0.2,0.6l-5.1,6.2
					C102.3,73.4,102,73.5,101.7,73.5z"/>
				<path class="st0" d="M106.8,65.9c0.1,0,0.2,0,0.3,0.1c0.2,0.2,0.2,0.5,0.1,0.7l-5.1,6.2c-0.1,0.1-0.2,0.2-0.4,0.2
					c-0.1,0-0.2,0-0.3-0.1c-0.2-0.2-0.2-0.5-0.1-0.7l5.1-6.2C106.5,66,106.7,65.9,106.8,65.9 M106.8,65.2c-0.4,0-0.7,0.2-1,0.5
					l-5.1,6.2c-0.4,0.5-0.4,1.3,0.2,1.8c0.2,0.2,0.5,0.3,0.8,0.3c0.4,0,0.7-0.2,1-0.5l5.1-6.2c0.2-0.3,0.3-0.6,0.3-0.9
					c0-0.3-0.2-0.6-0.5-0.8C107.4,65.3,107.1,65.2,106.8,65.2L106.8,65.2z"/>
			</g>
			<g>
				<path class="st0" d="M158,67.9c-0.2,0-0.4-0.1-0.6-0.2l-6.2-5.1c-0.2-0.1-0.3-0.4-0.3-0.6c0-0.2,0-0.5,0.2-0.6
					c0.2-0.2,0.4-0.3,0.7-0.3c0.2,0,0.4,0.1,0.6,0.2l6.2,5.1c0.2,0.1,0.3,0.4,0.3,0.6c0,0.2,0,0.5-0.2,0.6
					C158.5,67.8,158.3,67.9,158,67.9z"/>
				<path class="st0" d="M151.8,61.5c0.1,0,0.2,0,0.3,0.1l6.2,5.1c0.2,0.2,0.2,0.5,0.1,0.7c-0.1,0.1-0.2,0.2-0.4,0.2
					c-0.1,0-0.2,0-0.3-0.1l-6.2-5.1c-0.2-0.2-0.2-0.5-0.1-0.7C151.5,61.6,151.7,61.5,151.8,61.5 M151.8,60.8c-0.4,0-0.7,0.2-1,0.5
					c-0.2,0.3-0.3,0.6-0.3,0.9c0,0.3,0.2,0.6,0.5,0.8l6.2,5.1c0.2,0.2,0.5,0.3,0.8,0.3c0.4,0,0.7-0.2,1-0.5c0.4-0.5,0.4-1.3-0.2-1.8
					l-6.2-5.1C152.4,60.9,152.1,60.8,151.8,60.8L151.8,60.8z"/>
			</g>
			<g>
				<path class="st0" d="M147.4,17.8c-0.2,0-0.4-0.1-0.6-0.2c-0.2-0.1-0.3-0.4-0.3-0.6c0-0.2,0-0.5,0.2-0.6l5.1-6.2
					c0.2-0.2,0.4-0.3,0.7-0.3c0.2,0,0.4,0.1,0.6,0.2c0.4,0.3,0.4,0.9,0.1,1.2l-5.1,6.2C147.9,17.7,147.7,17.8,147.4,17.8z"/>
				<path class="st0" d="M152.5,10.3c0.1,0,0.2,0,0.3,0.1c0.2,0.2,0.2,0.5,0.1,0.7l-5.1,6.2c-0.1,0.1-0.2,0.2-0.4,0.2
					c-0.1,0-0.2,0-0.3-0.1c-0.2-0.2-0.2-0.5-0.1-0.7l5.1-6.2C152.2,10.4,152.3,10.3,152.5,10.3 M152.5,9.5c-0.4,0-0.7,0.2-1,0.5
					l-5.1,6.2c-0.2,0.3-0.3,0.6-0.3,0.9s0.2,0.6,0.5,0.8c0.2,0.2,0.5,0.3,0.8,0.3c0.4,0,0.7-0.2,1-0.5l5.1-6.2
					c0.2-0.3,0.3-0.6,0.3-0.9c0-0.3-0.2-0.6-0.5-0.8C153,9.7,152.7,9.5,152.5,9.5L152.5,9.5z"/>
			</g>
			<g>
				<path class="st0" d="M112,14.4c-0.3,0-0.6-0.2-0.8-0.5l-3.8-7c-0.1-0.2-0.1-0.4-0.1-0.7c0.1-0.2,0.2-0.4,0.4-0.5
					c0.1-0.1,0.3-0.1,0.4-0.1c0.3,0,0.6,0.2,0.8,0.5l3.8,7c0.2,0.4,0.1,1-0.4,1.2C112.3,14.3,112.2,14.4,112,14.4z"/>
				<path class="st0" d="M108.3,5.9c0.2,0,0.4,0.1,0.4,0.3l3.8,7c0.1,0.2,0,0.5-0.2,0.7c-0.1,0-0.2,0.1-0.2,0.1
					c-0.2,0-0.4-0.1-0.4-0.3l-3.8-7c-0.1-0.2,0-0.5,0.2-0.7C108.1,6,108.2,5.9,108.3,5.9 M108.3,5.2c-0.2,0-0.4,0.1-0.6,0.1
					c-0.3,0.2-0.5,0.4-0.6,0.7c-0.1,0.3-0.1,0.7,0.1,1l3.8,7c0.2,0.4,0.6,0.7,1.1,0.7c0.2,0,0.4-0.1,0.6-0.1
					c0.6-0.3,0.8-1.1,0.5-1.7l-3.8-7C109.1,5.4,108.7,5.2,108.3,5.2L108.3,5.2z"/>
			</g>
			<g>
				<path class="st0" d="M91.8,61.4c-0.3,0-0.6-0.2-0.8-0.5c-0.2-0.4-0.1-1,0.4-1.2l7-3.8c0.1-0.1,0.3-0.1,0.4-0.1
					c0.3,0,0.6,0.2,0.8,0.5c0.2,0.4,0.1,1-0.4,1.2l-7,3.8C92.1,61.4,92,61.4,91.8,61.4z"/>
				<path class="st0" d="M98.9,56.3c0.2,0,0.4,0.1,0.4,0.3c0.1,0.2,0,0.5-0.2,0.7l-7,3.8C92,61,91.9,61,91.8,61
					c-0.2,0-0.4-0.1-0.4-0.3c-0.1-0.2,0-0.5,0.2-0.7l7-3.8C98.7,56.3,98.8,56.3,98.9,56.3 M98.9,55.5c-0.2,0-0.4,0.1-0.6,0.1l-7,3.8
					c-0.6,0.3-0.8,1.1-0.5,1.7c0.2,0.4,0.6,0.7,1.1,0.7c0.2,0,0.4-0.1,0.6-0.1l7-3.8c0.6-0.3,0.8-1.1,0.5-1.7
					C99.8,55.8,99.3,55.5,98.9,55.5L98.9,55.5z"/>
			</g>
			<g>
				<path class="st0" d="M145.9,77.8c-0.3,0-0.6-0.2-0.8-0.5l-3.8-7c-0.2-0.4-0.1-1,0.4-1.2c0.1-0.1,0.3-0.1,0.4-0.1
					c0.3,0,0.6,0.2,0.8,0.5l3.8,7c0.1,0.2,0.1,0.4,0.1,0.7s-0.2,0.4-0.4,0.5C146.2,77.8,146.1,77.8,145.9,77.8z"/>
				<path class="st0" d="M142.2,69.4c0.2,0,0.4,0.1,0.4,0.3l3.8,7c0.1,0.2,0,0.5-0.2,0.7c-0.1,0-0.2,0.1-0.2,0.1
					c-0.2,0-0.4-0.1-0.4-0.3l-3.8-7c-0.1-0.2,0-0.5,0.2-0.7C142,69.4,142.1,69.4,142.2,69.4 M142.2,68.7L142.2,68.7
					c-0.2,0-0.4,0.1-0.6,0.1c-0.3,0.2-0.5,0.4-0.6,0.7c-0.1,0.3-0.1,0.7,0.1,1l3.8,7c0.2,0.4,0.6,0.7,1.1,0.7c0.2,0,0.4-0.1,0.6-0.1
					c0.3-0.2,0.5-0.4,0.6-0.7c0.1-0.3,0.1-0.7-0.1-1l-3.8-7C143.1,68.9,142.6,68.7,142.2,68.7L142.2,68.7z"/>
			</g>
			<g>
				<path class="st0" d="M155.3,27.5c-0.3,0-0.6-0.2-0.8-0.5c-0.2-0.4-0.1-1,0.4-1.2l7-3.8c0.1-0.1,0.3-0.1,0.4-0.1
					c0.3,0,0.6,0.2,0.8,0.5c0.2,0.4,0.1,1-0.4,1.2l-7,3.8C155.6,27.5,155.5,27.5,155.3,27.5z"/>
				<path class="st0" d="M162.4,22.4c0.2,0,0.4,0.1,0.4,0.3c0.1,0.2,0,0.5-0.2,0.7l-7,3.8c-0.1,0-0.2,0.1-0.2,0.1
					c-0.2,0-0.4-0.1-0.4-0.3c-0.1-0.2,0-0.5,0.2-0.7l7-3.8C162.2,22.4,162.3,22.4,162.4,22.4 M162.4,21.6c-0.2,0-0.4,0.1-0.6,0.1
					l-7,3.8c-0.3,0.2-0.5,0.4-0.6,0.7c-0.1,0.3-0.1,0.7,0.1,1c0.2,0.4,0.6,0.7,1.1,0.7c0.2,0,0.4-0.1,0.6-0.1l7-3.8
					c0.3-0.2,0.5-0.4,0.6-0.7c0.1-0.3,0.1-0.7-0.1-1C163.2,21.9,162.8,21.6,162.4,21.6L162.4,21.6z"/>
			</g>
			<g>
				<path class="st0" d="M96.5,33.3c-0.1,0-0.2,0-0.3,0l-7.6-2.3c-0.2-0.1-0.4-0.2-0.5-0.4c-0.1-0.2-0.1-0.4-0.1-0.7
					c0.1-0.4,0.4-0.6,0.8-0.6c0.1,0,0.2,0,0.3,0l7.6,2.3c0.2,0.1,0.4,0.2,0.5,0.4c0.1,0.2,0.1,0.4,0.1,0.7
					C97.2,33,96.9,33.3,96.5,33.3z"/>
				<path class="st0" d="M88.8,29.6c0,0,0.1,0,0.1,0l7.6,2.3c0.3,0.1,0.4,0.4,0.3,0.6c-0.1,0.2-0.3,0.4-0.5,0.4c0,0-0.1,0-0.1,0
					l-7.6-2.3c-0.3-0.1-0.4-0.4-0.3-0.6C88.4,29.7,88.6,29.6,88.8,29.6 M88.8,28.8L88.8,28.8c-0.6,0-1,0.4-1.2,0.9
					c-0.2,0.7,0.2,1.4,0.8,1.6l7.6,2.3c0.1,0,0.2,0.1,0.4,0.1c0.6,0,1-0.4,1.2-0.9c0.2-0.7-0.2-1.4-0.8-1.6l-7.6-2.3
					C89.1,28.9,89,28.8,88.8,28.8L88.8,28.8z"/>
			</g>
			<g>
				<path class="st0" d="M115.5,80.8c-0.1,0-0.2,0-0.3,0c-0.2-0.1-0.4-0.2-0.5-0.4c-0.1-0.2-0.1-0.4-0.1-0.7l2.3-7.6
					c0.1-0.4,0.4-0.6,0.8-0.6c0.1,0,0.2,0,0.3,0c0.5,0.1,0.7,0.6,0.6,1.1l-2.3,7.6C116.2,80.6,115.9,80.8,115.5,80.8z"/>
				<path class="st0" d="M117.8,71.8c0,0,0.1,0,0.1,0c0.3,0.1,0.4,0.4,0.3,0.6l-2.3,7.6c-0.1,0.2-0.3,0.4-0.5,0.4c0,0-0.1,0-0.1,0
					c-0.3-0.1-0.4-0.4-0.3-0.6l2.3-7.6C117.4,72,117.6,71.8,117.8,71.8 M117.8,71.1L117.8,71.1c-0.6,0-1,0.4-1.2,0.9l-2.3,7.6
					c-0.2,0.7,0.2,1.4,0.8,1.6c0.1,0,0.2,0.1,0.4,0.1c0.6,0,1-0.4,1.2-0.9l2.3-7.6c0.2-0.7-0.2-1.4-0.8-1.6
					C118.1,71.1,117.9,71.1,117.8,71.1L117.8,71.1z"/>
			</g>
			<g>
				<path class="st0" d="M165.4,54.2c-0.1,0-0.2,0-0.3,0l-7.6-2.3c-0.5-0.1-0.7-0.6-0.6-1.1c0.1-0.4,0.5-0.6,0.8-0.6
					c0.1,0,0.2,0,0.3,0l7.6,2.3c0.5,0.1,0.7,0.6,0.6,1.1C166.1,53.9,165.7,54.2,165.4,54.2z"/>
				<path class="st0" d="M157.7,50.5c0,0,0.1,0,0.1,0l7.6,2.3c0.3,0.1,0.4,0.4,0.3,0.6c-0.1,0.2-0.3,0.4-0.5,0.4c0,0-0.1,0-0.1,0
					l-7.6-2.3c-0.3-0.1-0.4-0.4-0.3-0.6C157.3,50.6,157.5,50.5,157.7,50.5 M157.7,49.7L157.7,49.7c-0.6,0-1,0.4-1.2,0.9
					c-0.2,0.7,0.2,1.4,0.8,1.6l7.6,2.3c0.1,0,0.2,0.1,0.4,0.1c0.6,0,1-0.4,1.2-0.9c0.2-0.7-0.2-1.4-0.8-1.6l-7.6-2.3
					C158,49.8,157.8,49.7,157.7,49.7L157.7,49.7z"/>
			</g>
			<g>
				<path class="st0" d="M136.4,12c-0.1,0-0.2,0-0.3,0c-0.5-0.1-0.7-0.6-0.6-1.1l2.3-7.6c0.1-0.4,0.5-0.6,0.8-0.6c0.1,0,0.2,0,0.3,0
					c0.2,0.1,0.4,0.2,0.5,0.4c0.1,0.2,0.1,0.4,0.1,0.7l-2.3,7.6C137.1,11.7,136.8,12,136.4,12z"/>
				<path class="st0" d="M138.7,2.9c0,0,0.1,0,0.1,0c0.3,0.1,0.4,0.4,0.3,0.6l-2.3,7.6c-0.1,0.2-0.3,0.4-0.5,0.4c0,0-0.1,0-0.1,0
					c-0.3-0.1-0.4-0.4-0.3-0.6l2.3-7.6C138.3,3.1,138.5,2.9,138.7,2.9 M138.7,2.2L138.7,2.2c-0.6,0-1,0.4-1.2,0.9l-2.3,7.6
					c-0.1,0.3-0.1,0.7,0.1,1s0.4,0.5,0.7,0.6c0.1,0,0.2,0.1,0.4,0.1c0.6,0,1-0.4,1.2-0.9l2.3-7.6c0.1-0.3,0.1-0.7-0.1-1
					c-0.2-0.3-0.4-0.5-0.7-0.6C138.9,2.2,138.8,2.2,138.7,2.2L138.7,2.2z"/>
			</g>
			<g>
				<path class="st0" d="M117.8,12c-0.4,0-0.7-0.2-0.8-0.6l-2.3-7.6c-0.1-0.5,0.1-1,0.6-1.1c0.1,0,0.2,0,0.3,0
					c0.4,0,0.7,0.2,0.8,0.6l2.3,7.6c0.1,0.5-0.1,1-0.6,1.1C118,11.9,117.9,12,117.8,12z"/>
				<path class="st0" d="M115.5,2.9c0.2,0,0.4,0.1,0.5,0.4l2.3,7.6c0.1,0.3-0.1,0.5-0.3,0.6c0,0-0.1,0-0.1,0c-0.2,0-0.4-0.1-0.5-0.4
					L115,3.6c-0.1-0.3,0.1-0.5,0.3-0.6C115.4,3,115.4,2.9,115.5,2.9 M115.5,2.2c-0.1,0-0.2,0-0.4,0.1c-0.3,0.1-0.6,0.3-0.7,0.6
					c-0.2,0.3-0.2,0.6-0.1,1l2.3,7.6c0.2,0.5,0.6,0.9,1.2,0.9c0.1,0,0.2,0,0.4-0.1c0.7-0.2,1-0.9,0.8-1.6l-2.3-7.6
					C116.5,2.6,116.1,2.2,115.5,2.2L115.5,2.2z"/>
			</g>
			<g>
				<path class="st0" d="M88.8,54.2c-0.4,0-0.7-0.3-0.8-0.6c-0.1-0.5,0.1-1,0.6-1.1l7.6-2.3c0.1,0,0.2,0,0.3,0
					c0.4,0,0.7,0.2,0.8,0.6c0.1,0.5-0.1,1-0.6,1.1l-7.6,2.3C89,54.2,88.9,54.2,88.8,54.2z"/>
				<path class="st0" d="M96.5,50.5c0.2,0,0.4,0.1,0.5,0.4c0.1,0.3-0.1,0.5-0.3,0.6L89,53.8c0,0-0.1,0-0.1,0c-0.2,0-0.4-0.1-0.5-0.4
					c-0.1-0.3,0.1-0.5,0.3-0.6l7.6-2.3C96.4,50.5,96.4,50.5,96.5,50.5 M96.5,49.7L96.5,49.7c-0.1,0-0.2,0-0.4,0.1l-7.6,2.3
					c-0.7,0.2-1,0.9-0.8,1.6c0.2,0.5,0.6,0.9,1.2,0.9c0.1,0,0.2,0,0.4-0.1l7.6-2.3c0.3-0.1,0.6-0.3,0.7-0.6c0.2-0.3,0.2-0.6,0.1-1
					C97.5,50.1,97,49.7,96.5,49.7L96.5,49.7z"/>
			</g>
			<g>
				<path class="st0" d="M138.7,80.8c-0.4,0-0.7-0.3-0.8-0.6l-2.3-7.6c-0.1-0.5,0.1-1,0.6-1.1c0.1,0,0.2,0,0.3,0
					c0.4,0,0.7,0.2,0.8,0.6l2.3,7.6c0.1,0.5-0.1,1-0.6,1.1C138.9,80.8,138.8,80.8,138.7,80.8z"/>
				<path class="st0" d="M136.4,71.8c0.2,0,0.4,0.1,0.5,0.4l2.3,7.6c0.1,0.3-0.1,0.5-0.3,0.6c0,0-0.1,0-0.1,0
					c-0.2,0-0.4-0.1-0.5-0.4l-2.3-7.6c-0.1-0.3,0.1-0.5,0.3-0.6C136.3,71.8,136.3,71.8,136.4,71.8 M136.4,71.1c-0.1,0-0.2,0-0.4,0.1
					c-0.7,0.2-1,0.9-0.8,1.6l2.3,7.6c0.2,0.5,0.6,0.9,1.2,0.9c0.1,0,0.2,0,0.4-0.1c0.7-0.2,1-0.9,0.8-1.6l-2.3-7.6
					C137.4,71.4,136.9,71.1,136.4,71.1L136.4,71.1z"/>
			</g>
			<g>
				<path class="st0" d="M157.7,33.3c-0.4,0-0.7-0.2-0.8-0.6c-0.1-0.5,0.1-1,0.6-1.1l7.6-2.3c0.1,0,0.2,0,0.3,0
					c0.4,0,0.7,0.2,0.8,0.6c0.1,0.5-0.1,1-0.6,1.1l-7.6,2.3C157.9,33.3,157.8,33.3,157.7,33.3z"/>
				<path class="st0" d="M165.4,29.6c0.2,0,0.4,0.1,0.5,0.4c0.1,0.3-0.1,0.5-0.3,0.6l-7.6,2.3c0,0-0.1,0-0.1,0
					c-0.2,0-0.4-0.1-0.5-0.4c-0.1-0.3,0.1-0.5,0.3-0.6l7.6-2.3C165.3,29.6,165.3,29.6,165.4,29.6 M165.4,28.8c-0.1,0-0.2,0-0.4,0.1
					l-7.6,2.3c-0.7,0.2-1,0.9-0.8,1.6c0.2,0.5,0.6,0.9,1.2,0.9c0.1,0,0.2,0,0.4-0.1l7.6-2.3c0.7-0.2,1-0.9,0.8-1.6
					C166.4,29.2,165.9,28.8,165.4,28.8L165.4,28.8z"/>
			</g>
			<g>
				<path class="st0" d="M98.9,27.5c-0.1,0-0.3,0-0.4-0.1l-7-3.8c-0.2-0.1-0.4-0.3-0.4-0.5c-0.1-0.2,0-0.5,0.1-0.7
					c0.2-0.3,0.4-0.5,0.8-0.5c0.1,0,0.3,0,0.4,0.1l7,3.8c0.2,0.1,0.4,0.3,0.4,0.5c0.1,0.2,0,0.5-0.1,0.7
					C99.5,27.3,99.2,27.5,98.9,27.5z"/>
				<path class="st0" d="M91.8,22.4c0.1,0,0.2,0,0.2,0.1l7,3.8c0.2,0.1,0.3,0.4,0.2,0.7c-0.1,0.2-0.3,0.3-0.4,0.3
					c-0.1,0-0.2,0-0.2-0.1l-7-3.8c-0.2-0.1-0.3-0.4-0.2-0.7C91.5,22.5,91.7,22.4,91.8,22.4 M91.8,21.6c-0.5,0-0.9,0.3-1.1,0.7
					c-0.3,0.6-0.1,1.4,0.5,1.7l7,3.8c0.2,0.1,0.4,0.1,0.6,0.1c0.5,0,0.9-0.3,1.1-0.7c0.2-0.3,0.2-0.6,0.1-1
					c-0.1-0.3-0.3-0.6-0.6-0.7l-7-3.8C92.3,21.7,92.1,21.6,91.8,21.6L91.8,21.6z"/>
			</g>
			<g>
				<path class="st0" d="M108.3,77.8c-0.1,0-0.3,0-0.4-0.1c-0.2-0.1-0.4-0.3-0.4-0.5c-0.1-0.2,0-0.5,0.1-0.7l3.8-7
					c0.2-0.3,0.4-0.5,0.8-0.5c0.1,0,0.3,0,0.4,0.1c0.2,0.1,0.4,0.3,0.4,0.5c0.1,0.2,0,0.5-0.1,0.7l-3.8,7
					C108.9,77.7,108.6,77.8,108.3,77.8z"/>
				<path class="st0" d="M112,69.4c0.1,0,0.2,0,0.2,0.1c0.2,0.1,0.3,0.4,0.2,0.7l-3.8,7c-0.1,0.2-0.3,0.3-0.4,0.3
					c-0.1,0-0.2,0-0.2-0.1c-0.2-0.1-0.3-0.4-0.2-0.7l3.8-7C111.7,69.5,111.8,69.4,112,69.4 M112,68.7L112,68.7
					c-0.5,0-0.9,0.3-1.1,0.7l-3.8,7c-0.3,0.6-0.1,1.4,0.5,1.7c0.2,0.1,0.4,0.1,0.6,0.1c0.5,0,0.9-0.3,1.1-0.7l3.8-7
					c0.2-0.3,0.2-0.6,0.1-1c-0.1-0.3-0.3-0.6-0.6-0.7C112.4,68.7,112.2,68.7,112,68.7L112,68.7z"/>
			</g>
			<g>
				<path class="st0" d="M162.4,61.4c-0.1,0-0.3,0-0.4-0.1l-7-3.8c-0.2-0.1-0.4-0.3-0.4-0.5c-0.1-0.2,0-0.5,0.1-0.7
					c0.2-0.3,0.4-0.5,0.8-0.5c0.1,0,0.3,0,0.4,0.1l7,3.8c0.4,0.2,0.6,0.8,0.4,1.2C163,61.2,162.7,61.4,162.4,61.4z"/>
				<path class="st0" d="M155.3,56.3c0.1,0,0.2,0,0.2,0.1l7,3.8c0.2,0.1,0.3,0.4,0.2,0.7c-0.1,0.2-0.3,0.3-0.4,0.3
					c-0.1,0-0.2,0-0.2-0.1l-7-3.8c-0.2-0.1-0.3-0.4-0.2-0.7C155,56.4,155.1,56.3,155.3,56.3 M155.3,55.5c-0.5,0-0.9,0.3-1.1,0.7
					c-0.2,0.3-0.2,0.6-0.1,1c0.1,0.3,0.3,0.6,0.6,0.7l7,3.8c0.2,0.1,0.4,0.1,0.6,0.1c0.5,0,0.9-0.3,1.1-0.7c0.3-0.6,0.1-1.4-0.5-1.7
					l-7-3.8C155.7,55.6,155.5,55.5,155.3,55.5L155.3,55.5z"/>
			</g>
			<g>
				<path class="st0" d="M142.2,14.4c-0.1,0-0.3,0-0.4-0.1c-0.4-0.2-0.6-0.8-0.4-1.2l3.8-7c0.2-0.3,0.4-0.5,0.8-0.5
					c0.1,0,0.3,0,0.4,0.1c0.2,0.1,0.4,0.3,0.4,0.5c0.1,0.2,0,0.5-0.1,0.7l-3.8,7C142.8,14.2,142.5,14.4,142.2,14.4z"/>
				<path class="st0" d="M145.9,5.9c0.1,0,0.2,0,0.2,0.1c0.2,0.1,0.3,0.4,0.2,0.7l-3.8,7c-0.1,0.2-0.3,0.3-0.4,0.3
					c-0.1,0-0.2,0-0.2-0.1c-0.2-0.1-0.3-0.4-0.2-0.7l3.8-7C145.6,6,145.8,5.9,145.9,5.9 M145.9,5.2c-0.5,0-0.9,0.3-1.1,0.7l-3.8,7
					c-0.2,0.3-0.2,0.6-0.1,1c0.1,0.3,0.3,0.6,0.6,0.7c0.2,0.1,0.4,0.1,0.6,0.1c0.5,0,0.9-0.3,1.1-0.7l3.8-7c0.3-0.6,0.1-1.4-0.5-1.7
					C146.4,5.2,146.1,5.2,145.9,5.2L145.9,5.2z"/>
			</g>
			<g>
				<path class="st0" d="M106.8,17.8c-0.3,0-0.5-0.1-0.7-0.3l-5.1-6.2c-0.3-0.4-0.3-0.9,0.1-1.2c0.2-0.1,0.4-0.2,0.6-0.2
					c0.3,0,0.5,0.1,0.7,0.3l5.1,6.2c0.1,0.2,0.2,0.4,0.2,0.6c0,0.2-0.1,0.4-0.3,0.6C107.2,17.8,107,17.8,106.8,17.8z"/>
				<path class="st0" d="M101.7,10.3c0.1,0,0.3,0.1,0.4,0.2l5.1,6.2c0.2,0.2,0.1,0.5-0.1,0.7c-0.1,0.1-0.2,0.1-0.3,0.1
					c-0.1,0-0.3-0.1-0.4-0.2l-5.1-6.2c-0.2-0.2-0.1-0.5,0.1-0.7C101.5,10.3,101.6,10.3,101.7,10.3 M101.7,9.5L101.7,9.5
					c-0.3,0-0.6,0.1-0.8,0.3c-0.3,0.2-0.4,0.5-0.5,0.8c0,0.3,0.1,0.7,0.3,0.9l5.1,6.2c0.2,0.3,0.6,0.5,1,0.5c0.3,0,0.6-0.1,0.8-0.3
					c0.5-0.4,0.6-1.2,0.2-1.8l-5.1-6.2C102.5,9.7,102.1,9.5,101.7,9.5L101.7,9.5z"/>
			</g>
			<g>
				<path class="st0" d="M96.2,67.9c-0.3,0-0.5-0.1-0.7-0.3c-0.1-0.2-0.2-0.4-0.2-0.6c0-0.2,0.1-0.4,0.3-0.6l6.2-5.1
					c0.2-0.1,0.4-0.2,0.6-0.2c0.3,0,0.5,0.1,0.7,0.3c0.3,0.4,0.3,0.9-0.1,1.2l-6.2,5.1C96.6,67.9,96.4,67.9,96.2,67.9z"/>
				<path class="st0" d="M102.4,61.5c0.1,0,0.3,0.1,0.4,0.2c0.2,0.2,0.1,0.5-0.1,0.7l-6.2,5.1c-0.1,0.1-0.2,0.1-0.3,0.1
					c-0.1,0-0.3-0.1-0.4-0.2c-0.2-0.2-0.1-0.5,0.1-0.7l6.2-5.1C102.1,61.5,102.3,61.5,102.4,61.5 M102.4,60.8L102.4,60.8
					c-0.3,0-0.6,0.1-0.8,0.3l-6.2,5.1c-0.3,0.2-0.4,0.5-0.5,0.8c0,0.3,0.1,0.7,0.3,0.9c0.2,0.3,0.6,0.5,1,0.5c0.3,0,0.6-0.1,0.8-0.3
					l6.2-5.1c0.3-0.2,0.4-0.5,0.5-0.8c0-0.3-0.1-0.7-0.3-0.9C103.1,60.9,102.7,60.8,102.4,60.8L102.4,60.8z"/>
			</g>
			<g>
				<path class="st0" d="M152.5,73.5c-0.3,0-0.5-0.1-0.7-0.3l-5.1-6.2c-0.1-0.2-0.2-0.4-0.2-0.6c0-0.2,0.1-0.4,0.3-0.6
					c0.2-0.1,0.4-0.2,0.6-0.2c0.3,0,0.5,0.1,0.7,0.3l5.1,6.2c0.1,0.2,0.2,0.4,0.2,0.6c0,0.2-0.1,0.4-0.3,0.6
					C152.9,73.4,152.7,73.5,152.5,73.5z"/>
				<path class="st0" d="M147.4,65.9c0.1,0,0.3,0.1,0.4,0.2l5.1,6.2c0.2,0.2,0.1,0.5-0.1,0.7c-0.1,0.1-0.2,0.1-0.3,0.1
					c-0.1,0-0.3-0.1-0.4-0.2l-5.1-6.2c-0.2-0.2-0.1-0.5,0.1-0.7C147.2,66,147.3,65.9,147.4,65.9 M147.4,65.2L147.4,65.2
					c-0.3,0-0.6,0.1-0.8,0.3c-0.5,0.4-0.6,1.2-0.2,1.8l5.1,6.2c0.2,0.3,0.6,0.5,1,0.5c0.3,0,0.6-0.1,0.8-0.3
					c0.3-0.2,0.4-0.5,0.5-0.8c0-0.3-0.1-0.7-0.3-0.9l-5.1-6.2C148.1,65.4,147.8,65.2,147.4,65.2L147.4,65.2z"/>
			</g>
			<g>
				<path class="st0" d="M151.8,22.3c-0.3,0-0.5-0.1-0.7-0.3c-0.3-0.4-0.3-0.9,0.1-1.2l6.2-5.1c0.2-0.1,0.4-0.2,0.6-0.2
					c0.3,0,0.5,0.1,0.7,0.3c0.3,0.4,0.3,0.9-0.1,1.2l-6.2,5.1C152.2,22.2,152,22.3,151.8,22.3z"/>
				<path class="st0" d="M158,15.8c0.1,0,0.3,0.1,0.4,0.2c0.2,0.2,0.1,0.5-0.1,0.7l-6.2,5.1c-0.1,0.1-0.2,0.1-0.3,0.1
					c-0.1,0-0.3-0.1-0.4-0.2c-0.2-0.2-0.1-0.5,0.1-0.7l6.2-5.1C157.8,15.9,157.9,15.8,158,15.8 M158,15.1L158,15.1
					c-0.3,0-0.6,0.1-0.8,0.3l-6.2,5.1c-0.3,0.2-0.4,0.5-0.5,0.8c0,0.3,0.1,0.7,0.3,0.9c0.2,0.3,0.6,0.5,1,0.5c0.3,0,0.6-0.1,0.8-0.3
					l6.2-5.1c0.3-0.2,0.4-0.5,0.5-0.8c0-0.3-0.1-0.7-0.3-0.9C158.7,15.3,158.4,15.1,158,15.1L158,15.1z"/>
			</g>
			<g>
				<path class="st0" d="M95.2,39.4l-7.9-0.8c-0.2,0-0.4-0.1-0.6-0.3c-0.1-0.2-0.2-0.4-0.2-0.6c0-0.4,0.4-0.8,0.9-0.8l8,0.8
					c0.2,0,0.4,0.1,0.6,0.3s0.2,0.4,0.2,0.6C96.1,39.1,95.7,39.4,95.2,39.4L95.2,39.4z"/>
				<path class="st0" d="M87.3,37.3C87.3,37.3,87.4,37.3,87.3,37.3l8,0.8c0.3,0,0.5,0.3,0.4,0.5c0,0.3-0.2,0.5-0.5,0.5c0,0,0,0,0,0
					l-7.9-0.8c-0.3,0-0.5-0.3-0.4-0.5C86.8,37.5,87.1,37.3,87.3,37.3 M87.3,36.5c-0.6,0-1.2,0.5-1.2,1.1c0,0.3,0.1,0.7,0.3,0.9
					c0.2,0.3,0.5,0.4,0.8,0.5l7.9,0.8l0,0l0.1,0c0.6,0,1.2-0.5,1.2-1.1c0-0.3-0.1-0.7-0.3-0.9c-0.2-0.3-0.5-0.4-0.8-0.5l-7.9-0.8
					L87.3,36.5L87.3,36.5L87.3,36.5z"/>
			</g>
			<g>
				<path class="st0" d="M123.1,82.4c-0.5,0-0.8-0.5-0.8-1l0.8-7.9c0-0.4,0.4-0.8,0.9-0.8c0.3,0,0.5,0.1,0.7,0.3
					c0.1,0.2,0.2,0.4,0.2,0.6l-0.8,7.9C124,82,123.6,82.4,123.1,82.4L123.1,82.4z"/>
				<path class="st0" d="M124,73C124,73,124,73,124,73c0.3,0,0.5,0.3,0.5,0.5l-0.8,7.9c0,0.3-0.2,0.5-0.5,0.5c0,0,0,0,0,0
					c-0.3,0-0.5-0.3-0.4-0.5l0.8-7.9C123.5,73.2,123.7,73,124,73 M124,72.3c-0.6,0-1.2,0.5-1.2,1.1l-0.8,7.9c0,0.3,0.1,0.7,0.3,0.9
					c0.2,0.3,0.5,0.4,0.8,0.5l0,0l0.1,0c0.6,0,1.2-0.5,1.2-1.1l0.8-7.9c0-0.3-0.1-0.7-0.3-0.9c-0.2-0.3-0.5-0.4-0.8-0.5L124,72.3
					L124,72.3L124,72.3z"/>
			</g>
			<g>
				<path class="st0" d="M166.8,46.5l-7.9-0.8c-0.5,0-0.8-0.5-0.8-1c0-0.4,0.4-0.8,0.9-0.8l8,0.8c0.2,0,0.4,0.1,0.6,0.3
					c0.1,0.2,0.2,0.4,0.2,0.6C167.7,46.2,167.3,46.5,166.8,46.5L166.8,46.5z"/>
				<path class="st0" d="M158.9,44.3C159,44.3,159,44.3,158.9,44.3l8,0.8c0.3,0,0.5,0.3,0.4,0.5c0,0.3-0.2,0.5-0.5,0.5c0,0,0,0,0,0
					l-7.9-0.8c-0.3,0-0.5-0.3-0.4-0.5C158.5,44.5,158.7,44.3,158.9,44.3 M158.9,43.6c-0.6,0-1.2,0.5-1.2,1.1
					c-0.1,0.7,0.4,1.3,1.1,1.4l7.9,0.8l0,0l0.1,0c0.6,0,1.2-0.5,1.2-1.1c0.1-0.7-0.4-1.3-1.1-1.4l-7.9-0.8L158.9,43.6L158.9,43.6
					L158.9,43.6z"/>
			</g>
			<g>
				<path class="st0" d="M130.2,10.7c-0.5,0-0.8-0.5-0.8-1l0.8-7.9c0-0.4,0.4-0.8,0.9-0.8c0.6,0.1,0.9,0.5,0.9,1l-0.8,7.9
					C131.1,10.4,130.7,10.7,130.2,10.7L130.2,10.7z"/>
				<path class="st0" d="M131,1.4C131,1.4,131.1,1.4,131,1.4c0.3,0,0.5,0.3,0.5,0.5l-0.8,7.9c0,0.3-0.2,0.5-0.5,0.5c0,0,0,0,0,0
					c-0.3,0-0.5-0.3-0.4-0.5l0.8-7.9C130.5,1.6,130.8,1.4,131,1.4 M131,0.7c-0.6,0-1.2,0.5-1.2,1.1L129,9.7
					c-0.1,0.7,0.4,1.3,1.1,1.4l0,0l0.1,0c0.6,0,1.2-0.5,1.2-1.1l0.8-7.9c0.1-0.7-0.4-1.3-1.1-1.4L131,0.7L131,0.7L131,0.7z"/>
			</g>
		</g>
	</g>
	<g>
		<g>
			<radialGradient id="SVGID_1_" cx="127.1" cy="41.7" r="41.7" gradientUnits="userSpaceOnUse">
				<stop  offset="0" style="stop-color:#999999"/>
				<stop  offset="0.6553" style="stop-color:#555555"/>
				<stop  offset="0.9635" style="stop-color:#666666"/>
				<stop  offset="1" style="stop-color:#CCCCCC"/>
			</radialGradient>
			<path class="st1" d="M168.8,41.7c0,23-18.7,41.7-41.7,41.7S85.4,64.7,85.4,41.7S104.1,0,127.1,0S168.8,18.6,168.8,41.7
				L168.8,41.7z"/>
			<path class="st2" d="M127.1,0.8c-22.6,0-40.9,18.3-40.9,40.9s18.3,40.9,40.9,40.9c22.6,0,40.9-18.3,40.9-40.9
				C168,19,149.7,0.8,127.1,0.8z M127.1,71.8C110.5,71.8,97,58.3,97,41.7c0-16.6,13.5-30.1,30.1-30.1c16.6,0,30.1,13.4,30.1,30.1
				C157.2,58.3,143.7,71.8,127.1,71.8z"/>
			<radialGradient id="SVGID_2_" cx="127.1" cy="41.7" r="41.7" gradientUnits="userSpaceOnUse">
				<stop  offset="0" style="stop-color:#363636"/>
				<stop  offset="0.8744" style="stop-color:#000000"/>
				<stop  offset="1" style="stop-color:#2C2C2C"/>
			</radialGradient>
			<path class="st3" d="M168.8,41.7c0,23-18.7,41.7-41.7,41.7S85.4,64.7,85.4,41.7S104.1,0,127.1,0S168.8,18.6,168.8,41.7
				L168.8,41.7z"/>
		</g>
		<g>
			<g>
				<path class="st4" d="M127.1,10.6c-0.5,0-0.9-0.4-0.9-0.9v-8c0-0.5,0.4-0.9,0.9-0.9s0.9,0.4,0.9,0.9v8
					C128,10.2,127.6,10.6,127.1,10.6z"/>
				<path class="st0" d="M127.1,1.2c0.3,0,0.5,0.2,0.5,0.5v8c0,0.3-0.2,0.5-0.5,0.5s-0.5-0.2-0.5-0.5v-8
					C126.6,1.4,126.8,1.2,127.1,1.2 M127.1,0.5c-0.7,0-1.3,0.6-1.3,1.3v8c0,0.7,0.6,1.3,1.3,1.3s1.3-0.6,1.3-1.3v-8
					C128.3,1,127.8,0.5,127.1,0.5L127.1,0.5z"/>
			</g>
			<g>
				<path class="st4" d="M87.1,42.6c-0.5,0-0.9-0.4-0.9-0.9s0.4-0.9,0.9-0.9h8c0.5,0,0.9,0.4,0.9,0.9s-0.4,0.9-0.9,0.9H87.1z"/>
				<path class="st0" d="M95.1,41.2c0.3,0,0.5,0.2,0.5,0.5s-0.2,0.5-0.5,0.5h-8c-0.3,0-0.5-0.2-0.5-0.5s0.2-0.5,0.5-0.5H95.1
					 M95.1,40.5h-8c-0.7,0-1.3,0.6-1.3,1.3s0.6,1.3,1.3,1.3h8c0.7,0,1.3-0.6,1.3-1.3S95.8,40.5,95.1,40.5L95.1,40.5z"/>
			</g>
			<g>
				<path class="st4" d="M127.1,82.5c-0.5,0-0.9-0.4-0.9-0.9v-8c0-0.5,0.4-0.9,0.9-0.9s0.9,0.4,0.9,0.9v8
					C128,82.2,127.6,82.5,127.1,82.5z"/>
				<path class="st0" d="M127.1,73.2c0.3,0,0.5,0.2,0.5,0.5v8c0,0.3-0.2,0.5-0.5,0.5s-0.5-0.2-0.5-0.5v-8
					C126.6,73.4,126.8,73.2,127.1,73.2 M127.1,72.4c-0.7,0-1.3,0.6-1.3,1.3v8c0,0.7,0.6,1.3,1.3,1.3s1.3-0.6,1.3-1.3v-8
					C128.4,73,127.8,72.4,127.1,72.4L127.1,72.4z"/>
			</g>
			<g>
				<path class="st4" d="M159.1,42.6c-0.5,0-0.9-0.4-0.9-0.9s0.4-0.9,0.9-0.9h8c0.5,0,0.9,0.4,0.9,0.9s-0.4,0.9-0.9,0.9H159.1z"/>
				<path class="st0" d="M167.1,41.2c0.3,0,0.5,0.2,0.5,0.5s-0.2,0.5-0.5,0.5h-8c-0.3,0-0.5-0.2-0.5-0.5s0.2-0.5,0.5-0.5H167.1
					 M167.1,40.4h-8c-0.7,0-1.3,0.6-1.3,1.3s0.6,1.3,1.3,1.3h8c0.7,0,1.3-0.6,1.3-1.3S167.8,40.4,167.1,40.4L167.1,40.4z"/>
			</g>
			<g>
				<path class="st4" d="M104.5,19.9c-0.2,0-0.5-0.1-0.6-0.3l-5.6-5.6c-0.3-0.3-0.3-0.9,0-1.2c0.2-0.2,0.4-0.3,0.6-0.3
					s0.5,0.1,0.6,0.3l5.6,5.6c0.3,0.3,0.3,0.9,0,1.2C104.9,19.9,104.7,19.9,104.5,19.9z"/>
				<path class="st0" d="M98.8,12.9c0.1,0,0.3,0,0.4,0.1l5.6,5.6c0.2,0.2,0.2,0.5,0,0.7c-0.1,0.1-0.2,0.1-0.4,0.1s-0.3,0-0.4-0.1
					l-5.6-5.6c-0.2-0.2-0.2-0.5,0-0.7C98.6,13,98.7,12.9,98.8,12.9 M98.8,12.2c-0.3,0-0.6,0.1-0.9,0.4c-0.5,0.5-0.5,1.3,0,1.8
					l5.6,5.6c0.2,0.2,0.6,0.4,0.9,0.4c0.3,0,0.6-0.1,0.9-0.4c0.5-0.5,0.5-1.3,0-1.8l-5.6-5.6C99.5,12.3,99.2,12.2,98.8,12.2
					L98.8,12.2z"/>
			</g>
			<g>
				<path class="st4" d="M98.8,70.8c-0.2,0-0.5-0.1-0.6-0.3c-0.3-0.3-0.3-0.9,0-1.2l5.6-5.6c0.2-0.2,0.4-0.3,0.6-0.3
					s0.5,0.1,0.6,0.3c0.2,0.2,0.3,0.4,0.3,0.6s-0.1,0.5-0.3,0.6l-5.6,5.6C99.3,70.8,99.1,70.8,98.8,70.8z"/>
				<path class="st0" d="M104.5,63.8c0.1,0,0.3,0,0.4,0.1c0.2,0.2,0.2,0.5,0,0.7l-5.6,5.6c-0.1,0.1-0.2,0.1-0.4,0.1s-0.3,0-0.4-0.1
					c-0.2-0.2-0.2-0.5,0-0.7l5.6-5.6C104.2,63.9,104.3,63.8,104.5,63.8 M104.5,63.1c-0.3,0-0.6,0.1-0.9,0.4L98,69.1
					c-0.5,0.5-0.5,1.3,0,1.8c0.2,0.2,0.6,0.4,0.9,0.4c0.3,0,0.6-0.1,0.9-0.4l5.6-5.6c0.5-0.5,0.5-1.3,0-1.8
					C105.1,63.2,104.8,63.1,104.5,63.1L104.5,63.1z"/>
			</g>
			<g>
				<path class="st4" d="M155.4,70.8c-0.2,0-0.5-0.1-0.6-0.3l-5.6-5.6c-0.2-0.2-0.3-0.4-0.3-0.6s0.1-0.5,0.3-0.6
					c0.2-0.2,0.4-0.3,0.6-0.3s0.5,0.1,0.6,0.3l5.6,5.6c0.2,0.2,0.3,0.4,0.3,0.6s-0.1,0.5-0.3,0.6C155.8,70.7,155.6,70.8,155.4,70.8z
					"/>
				<path class="st0" d="M149.7,63.8c0.1,0,0.3,0,0.4,0.1l5.6,5.6c0.2,0.2,0.2,0.5,0,0.7c-0.1,0.1-0.2,0.1-0.4,0.1
					c-0.1,0-0.3,0-0.4-0.1l-5.6-5.6c-0.2-0.2-0.2-0.5,0-0.7C149.5,63.9,149.6,63.8,149.7,63.8 M149.7,63.1c-0.3,0-0.6,0.1-0.9,0.4
					c-0.5,0.5-0.5,1.3,0,1.8l5.6,5.6c0.2,0.2,0.6,0.4,0.9,0.4s0.6-0.1,0.9-0.4c0.5-0.5,0.5-1.3,0-1.8l-5.6-5.6
					C150.4,63.2,150.1,63.1,149.7,63.1L149.7,63.1z"/>
			</g>
			<g>
				<path class="st4" d="M149.7,19.9c-0.2,0-0.5-0.1-0.6-0.3c-0.3-0.3-0.3-0.9,0-1.2l5.6-5.6c0.2-0.2,0.4-0.3,0.6-0.3
					s0.5,0.1,0.6,0.3c0.3,0.3,0.3,0.9,0,1.2l-5.6,5.6C150.2,19.9,150,19.9,149.7,19.9z"/>
				<path class="st0" d="M155.4,12.9c0.1,0,0.3,0,0.4,0.1c0.2,0.2,0.2,0.5,0,0.7l-5.6,5.6c-0.1,0.1-0.2,0.1-0.4,0.1
					c-0.1,0-0.3,0-0.4-0.1c-0.2-0.2-0.2-0.5,0-0.7l5.6-5.6C155.1,13,155.2,12.9,155.4,12.9 M155.4,12.2c-0.3,0-0.6,0.1-0.9,0.4
					l-5.6,5.6c-0.5,0.5-0.5,1.3,0,1.8c0.2,0.2,0.6,0.4,0.9,0.4c0.3,0,0.6-0.1,0.9-0.4l5.6-5.6c0.5-0.5,0.5-1.3,0-1.8
					C156,12.3,155.7,12.2,155.4,12.2L155.4,12.2z"/>
			</g>
			<g>
				<path class="st4" d="M114.9,13c-0.4,0-0.7-0.2-0.8-0.5L111,5.1c-0.1-0.2-0.1-0.5,0-0.7c0.1-0.2,0.3-0.4,0.5-0.5
					c0.1,0,0.2-0.1,0.3-0.1c0.4,0,0.7,0.2,0.8,0.5l3.1,7.4c0.1,0.2,0.1,0.5,0,0.7c-0.1,0.2-0.3,0.4-0.5,0.5
					C115.1,13,115,13,114.9,13z"/>
				<path class="st0" d="M111.8,4.3c0.2,0,0.4,0.1,0.5,0.3l3.1,7.4c0.1,0.3,0,0.5-0.3,0.7c-0.1,0-0.1,0-0.2,0
					c-0.2,0-0.4-0.1-0.5-0.3L111.3,5c-0.1-0.3,0-0.5,0.3-0.7C111.7,4.3,111.7,4.3,111.8,4.3 M111.8,3.5c-0.2,0-0.3,0-0.5,0.1
					c-0.6,0.3-0.9,1-0.7,1.6l3.1,7.4c0.2,0.5,0.6,0.8,1.2,0.8c0.2,0,0.3,0,0.5-0.1c0.6-0.3,0.9-1,0.7-1.6L113,4.3
					C112.8,3.8,112.3,3.5,111.8,3.5L111.8,3.5z"/>
			</g>
			<g>
				<path class="st4" d="M90.2,57.9c-0.4,0-0.7-0.2-0.8-0.5c-0.2-0.4,0-1,0.5-1.1l7.4-3.1c0.1,0,0.2-0.1,0.3-0.1
					c0.4,0,0.7,0.2,0.8,0.5c0.2,0.4,0,1-0.5,1.1l-7.4,3.1C90.4,57.9,90.3,57.9,90.2,57.9z"/>
				<path class="st0" d="M97.5,53.4c0.2,0,0.4,0.1,0.5,0.3c0.1,0.3,0,0.5-0.3,0.7l-7.4,3.1c-0.1,0-0.1,0-0.2,0
					c-0.2,0-0.4-0.1-0.5-0.3c-0.1-0.3,0-0.5,0.3-0.7l7.4-3.1C97.4,53.5,97.5,53.4,97.5,53.4 M97.5,52.7c-0.2,0-0.3,0-0.5,0.1
					l-7.4,3.1c-0.6,0.3-0.9,1-0.7,1.6c0.2,0.5,0.6,0.8,1.2,0.8c0.2,0,0.3,0,0.5-0.1l7.4-3.1c0.3-0.1,0.5-0.4,0.7-0.7
					c0.1-0.3,0.1-0.6,0-1C98.5,53,98,52.7,97.5,52.7L97.5,52.7z"/>
			</g>
			<g>
				<path class="st4" d="M142.4,79.5c-0.4,0-0.7-0.2-0.8-0.5l-3.1-7.4c-0.2-0.4,0-1,0.5-1.1c0.1,0,0.2-0.1,0.3-0.1
					c0.4,0,0.7,0.2,0.8,0.5l3.1,7.4c0.1,0.2,0.1,0.5,0,0.7s-0.3,0.4-0.5,0.5C142.6,79.5,142.5,79.5,142.4,79.5z"/>
				<path class="st0" d="M139.3,70.8c0.2,0,0.4,0.1,0.5,0.3l3.1,7.4c0.1,0.3,0,0.5-0.3,0.7c-0.1,0-0.1,0-0.2,0
					c-0.2,0-0.4-0.1-0.5-0.3l-3.1-7.4c-0.1-0.3,0-0.5,0.3-0.7C139.2,70.8,139.3,70.8,139.3,70.8 M139.3,70L139.3,70
					c-0.2,0-0.3,0-0.5,0.1c-0.3,0.1-0.5,0.4-0.7,0.7c-0.1,0.3-0.1,0.6,0,1l3.1,7.4c0.2,0.5,0.6,0.8,1.2,0.8c0.2,0,0.3,0,0.5-0.1
					c0.3-0.1,0.5-0.4,0.7-0.7c0.1-0.3,0.1-0.6,0-1l-3.1-7.4C140.3,70.3,139.9,70,139.3,70L139.3,70z"/>
			</g>
			<g>
				<path class="st4" d="M156.7,30.3c-0.4,0-0.7-0.2-0.8-0.5c-0.1-0.2-0.1-0.5,0-0.7c0.1-0.2,0.3-0.4,0.5-0.5l7.4-3.1
					c0.1,0,0.2-0.1,0.3-0.1c0.4,0,0.7,0.2,0.8,0.5c0.2,0.4,0,1-0.5,1.1l-7.4,3.1C156.9,30.3,156.8,30.3,156.7,30.3z"/>
				<path class="st0" d="M164,25.9c0.2,0,0.4,0.1,0.5,0.3c0.1,0.3,0,0.5-0.3,0.7l-7.4,3.1c-0.1,0-0.1,0-0.2,0
					c-0.2,0-0.4-0.1-0.5-0.3c-0.1-0.3,0-0.5,0.3-0.7l7.4-3.1C163.9,25.9,164,25.9,164,25.9 M164,25.2c-0.2,0-0.3,0-0.5,0.1l-7.4,3.1
					c-0.6,0.3-0.9,1-0.7,1.6c0.2,0.5,0.6,0.8,1.2,0.8c0.2,0,0.3,0,0.5-0.1l7.4-3.1c0.6-0.3,0.9-1,0.7-1.6
					C165,25.5,164.5,25.2,164,25.2L164,25.2z"/>
			</g>
			<g>
				<path class="st4" d="M97.5,30.3c-0.1,0-0.2,0-0.3-0.1l-7.4-3.1c-0.2-0.1-0.4-0.3-0.5-0.5c-0.1-0.2-0.1-0.5,0-0.7
					c0.1-0.3,0.5-0.5,0.8-0.5c0.1,0,0.2,0,0.3,0.1l7.4,3.1c0.4,0.2,0.7,0.7,0.5,1.1C98.2,30.1,97.9,30.3,97.5,30.3z"/>
				<path class="st0" d="M90.2,25.9c0.1,0,0.1,0,0.2,0l7.4,3.1c0.3,0.1,0.4,0.4,0.3,0.7c-0.1,0.2-0.3,0.3-0.5,0.3
					c-0.1,0-0.1,0-0.2,0L90,26.9c-0.3-0.1-0.4-0.4-0.3-0.7C89.8,26,90,25.9,90.2,25.9 M90.2,25.2c-0.5,0-1,0.3-1.2,0.8
					c-0.3,0.6,0,1.4,0.7,1.6l7.4,3.1c0.2,0.1,0.3,0.1,0.5,0.1c0.5,0,1-0.3,1.2-0.8c0.3-0.6,0-1.4-0.7-1.6l-7.4-3.1
					C90.5,25.2,90.3,25.2,90.2,25.2L90.2,25.2z"/>
			</g>
			<g>
				<path class="st4" d="M111.8,79.5c-0.1,0-0.2,0-0.3-0.1c-0.2-0.1-0.4-0.3-0.5-0.5c-0.1-0.2-0.1-0.5,0-0.7l3.1-7.4
					c0.1-0.3,0.5-0.5,0.8-0.5c0.1,0,0.2,0,0.3,0.1c0.4,0.2,0.7,0.7,0.5,1.1l-3.1,7.4C112.5,79.3,112.2,79.5,111.8,79.5z"/>
				<path class="st0" d="M114.9,70.8c0.1,0,0.1,0,0.2,0c0.3,0.1,0.4,0.4,0.3,0.7l-3.1,7.4c-0.1,0.2-0.3,0.3-0.5,0.3
					c-0.1,0-0.1,0-0.2,0c-0.3-0.1-0.4-0.4-0.3-0.7l3.1-7.4C114.5,70.9,114.7,70.8,114.9,70.8 M114.9,70c-0.5,0-1,0.3-1.2,0.8
					l-3.1,7.4c-0.3,0.6,0,1.4,0.7,1.6c0.2,0.1,0.3,0.1,0.5,0.1c0.5,0,1-0.3,1.2-0.8l3.1-7.4c0.1-0.3,0.1-0.6,0-1
					c-0.1-0.3-0.4-0.5-0.7-0.7C115.2,70,115,70,114.9,70L114.9,70z"/>
			</g>
			<g>
				<path class="st4" d="M164,57.9c-0.1,0-0.2,0-0.3-0.1l-7.4-3c-0.4-0.2-0.7-0.7-0.5-1.1c0.1-0.3,0.5-0.5,0.8-0.5
					c0.1,0,0.2,0,0.3,0.1l7.4,3c0.4,0.2,0.7,0.7,0.5,1.1C164.7,57.7,164.4,57.9,164,57.9z"/>
				<path class="st0" d="M156.7,53.4c0.1,0,0.1,0,0.2,0l7.4,3.1c0.3,0.1,0.4,0.4,0.3,0.7c-0.1,0.2-0.3,0.3-0.5,0.3
					c-0.1,0-0.1,0-0.2,0l-7.4-3.1c-0.3-0.1-0.4-0.4-0.3-0.7C156.3,53.6,156.5,53.4,156.7,53.4 M156.7,52.7c-0.5,0-1,0.3-1.2,0.8
					c-0.3,0.6,0,1.4,0.7,1.6l7.4,3.1c0.2,0.1,0.3,0.1,0.5,0.1c0.5,0,1-0.3,1.2-0.8c0.3-0.6,0-1.4-0.7-1.6l-7.4-3.1
					C157,52.7,156.8,52.7,156.7,52.7L156.7,52.7z"/>
			</g>
			<g>
				<path class="st4" d="M139.3,13c-0.1,0-0.2,0-0.3-0.1c-0.2-0.1-0.4-0.3-0.5-0.5c-0.1-0.2-0.1-0.5,0-0.7l3-7.4
					c0.1-0.3,0.5-0.5,0.8-0.5c0.1,0,0.2,0,0.3,0.1c0.4,0.2,0.7,0.7,0.5,1.1l-3.1,7.4C140,12.8,139.7,13,139.3,13z"/>
				<path class="st0" d="M142.4,4.3c0.1,0,0.1,0,0.2,0c0.3,0.1,0.4,0.4,0.3,0.7l-3.1,7.4c-0.1,0.2-0.3,0.3-0.5,0.3
					c-0.1,0-0.1,0-0.2,0c-0.3-0.1-0.4-0.4-0.3-0.7l3.1-7.4C142,4.4,142.2,4.3,142.4,4.3 M142.4,3.5L142.4,3.5c-0.5,0-1,0.3-1.2,0.8
					l-3.1,7.4c-0.3,0.6,0,1.4,0.7,1.6c0.2,0.1,0.3,0.1,0.5,0.1c0.5,0,1-0.3,1.2-0.8l3.1-7.4c0.3-0.6,0-1.4-0.7-1.6
					C142.7,3.6,142.6,3.5,142.4,3.5L142.4,3.5z"/>
			</g>
			<g>
				<path class="st4" d="M120.9,11.2c-0.4,0-0.8-0.3-0.9-0.7l-1.6-7.8c-0.1-0.5,0.2-0.9,0.7-1l0,0l0.1,0c0.4,0,0.8,0.3,0.9,0.7
					l1.6,7.8c0,0.2,0,0.5-0.1,0.7c-0.1,0.2-0.3,0.3-0.6,0.4l0,0L120.9,11.2z"/>
				<path class="st0" d="M119.3,2c0.2,0,0.4,0.2,0.5,0.4l1.6,7.8c0.1,0.3-0.1,0.5-0.4,0.6c0,0-0.1,0-0.1,0c-0.2,0-0.4-0.2-0.5-0.4
					l-1.6-7.8C118.8,2.3,118.9,2.1,119.3,2C119.2,2,119.3,2,119.3,2 M119.3,1.2L119.3,1.2c-0.1,0-0.2,0-0.2,0
					c-0.7,0.1-1.1,0.8-1,1.5l1.6,7.8c0.1,0.6,0.6,1,1.2,1c0.1,0,0.2,0,0.2,0c0.7-0.1,1.1-0.8,1-1.5l-1.6-7.8
					C120.4,1.7,119.9,1.2,119.3,1.2L119.3,1.2z"/>
			</g>
			<g>
				<path class="st4" d="M87.9,50.4c-0.4,0-0.8-0.3-0.9-0.7c0-0.2,0-0.5,0.1-0.7c0.1-0.2,0.3-0.3,0.6-0.4l7.9-1.6l0.1,0
					c0.4,0,0.8,0.3,0.9,0.7c0,0.2,0,0.5-0.1,0.7s-0.3,0.3-0.6,0.4L88,50.4L87.9,50.4z"/>
				<path class="st0" d="M95.7,47.4c0.2,0,0.4,0.2,0.5,0.4c0.1,0.3-0.1,0.5-0.4,0.6L88,50c0,0-0.1,0-0.1,0c-0.2,0-0.4-0.2-0.5-0.4
					c-0.1-0.3,0.1-0.5,0.4-0.6L95.7,47.4C95.7,47.4,95.7,47.4,95.7,47.4 M95.7,46.7L95.7,46.7c-0.1,0-0.2,0-0.2,0l-7.8,1.6
					c-0.3,0.1-0.6,0.3-0.8,0.5c-0.2,0.3-0.3,0.6-0.2,0.9c0.1,0.6,0.6,1,1.2,1c0.1,0,0.2,0,0.2,0l7.8-1.6c0.3-0.1,0.6-0.3,0.8-0.5
					c0.2-0.3,0.3-0.6,0.2-0.9C96.8,47.1,96.3,46.7,95.7,46.7L95.7,46.7z"/>
			</g>
			<g>
				<path class="st4" d="M134.9,81.8c-0.4,0-0.8-0.3-0.9-0.7l-1.6-7.8c0-0.2,0-0.5,0.1-0.7c0.1-0.2,0.3-0.3,0.6-0.4l0,0l0.1,0
					c0.4,0,0.8,0.3,0.9,0.7l1.6,7.8c0,0.2,0,0.5-0.1,0.7c-0.1,0.2-0.3,0.3-0.6,0.4l0,0L134.9,81.8z"/>
				<path class="st0" d="M133.3,72.6c0.2,0,0.4,0.2,0.5,0.4l1.6,7.8c0.1,0.3-0.1,0.5-0.4,0.6c0,0-0.1,0-0.1,0
					c-0.2,0-0.4-0.2-0.5-0.4l-1.6-7.8C132.8,72.9,133,72.6,133.3,72.6C133.3,72.6,133.3,72.6,133.3,72.6 M133.3,71.8L133.3,71.8
					c-0.1,0-0.2,0-0.2,0c-0.3,0.1-0.6,0.3-0.8,0.5c-0.2,0.3-0.3,0.6-0.2,0.9l1.6,7.8c0.1,0.6,0.6,1,1.2,1c0.1,0,0.2,0,0.2,0
					c0.3-0.1,0.6-0.3,0.8-0.5c0.2-0.3,0.3-0.6,0.2-0.9l-1.6-7.8C134.5,72.3,133.9,71.8,133.3,71.8L133.3,71.8z"/>
			</g>
			<g>
				<path class="st4" d="M158.5,36.3c-0.4,0-0.8-0.3-0.9-0.7c0-0.2,0-0.5,0.1-0.7c0.1-0.2,0.3-0.3,0.6-0.4l7.9-1.6l0.1,0
					c0.4,0,0.8,0.3,0.9,0.7c0.1,0.5-0.2,0.9-0.7,1l-7.9,1.6L158.5,36.3z"/>
				<path class="st0" d="M166.3,33.4c0.2,0,0.4,0.2,0.5,0.4c0.1,0.3-0.1,0.5-0.4,0.6l-7.8,1.6c0,0-0.1,0-0.1,0
					c-0.2,0-0.4-0.2-0.5-0.4c-0.1-0.3,0.1-0.5,0.4-0.6L166.3,33.4C166.2,33.4,166.3,33.4,166.3,33.4 M166.3,32.7L166.3,32.7
					c-0.1,0-0.2,0-0.2,0l-7.8,1.6c-0.3,0.1-0.6,0.3-0.8,0.5c-0.2,0.3-0.3,0.6-0.2,0.9c0.1,0.6,0.6,1,1.2,1c0.1,0,0.2,0,0.2,0
					l7.8-1.6c0.7-0.1,1.1-0.8,1-1.5C167.4,33.1,166.9,32.7,166.3,32.7L166.3,32.7z"/>
			</g>
			<g>
				<path class="st4" d="M100.5,24.8c-0.2,0-0.3-0.1-0.5-0.1l-6.6-4.4c-0.2-0.1-0.3-0.3-0.4-0.6c0-0.2,0-0.5,0.1-0.7
					c0.2-0.2,0.4-0.4,0.7-0.4c0.2,0,0.3,0.1,0.5,0.1l6.6,4.4c0.2,0.1,0.3,0.3,0.4,0.6c0,0.2,0,0.5-0.1,0.7
					C101.1,24.7,100.8,24.8,100.5,24.8z"/>
				<path class="st0" d="M93.9,19c0.1,0,0.2,0,0.3,0.1l6.6,4.4c0.2,0.2,0.3,0.5,0.1,0.7c-0.1,0.1-0.3,0.2-0.4,0.2
					c-0.1,0-0.2,0-0.3-0.1l-6.6-4.4c-0.2-0.2-0.3-0.5-0.1-0.7C93.5,19.1,93.7,19,93.9,19 M93.9,18.2c-0.4,0-0.8,0.2-1,0.6
					c-0.2,0.3-0.3,0.6-0.2,0.9s0.3,0.6,0.5,0.8l6.6,4.4c0.2,0.1,0.4,0.2,0.7,0.2c0.4,0,0.8-0.2,1-0.6c0.4-0.6,0.2-1.4-0.3-1.7
					l-6.6-4.4C94.4,18.3,94.1,18.2,93.9,18.2L93.9,18.2z"/>
			</g>
			<g>
				<path class="st4" d="M104.9,75.8c-0.2,0-0.3-0.1-0.5-0.1c-0.2-0.1-0.3-0.3-0.4-0.6c0-0.2,0-0.5,0.1-0.7l4.4-6.6
					c0.2-0.2,0.4-0.4,0.7-0.4c0.2,0,0.3,0.1,0.5,0.1c0.2,0.1,0.3,0.3,0.4,0.6s0,0.5-0.1,0.7l-4.4,6.6
					C105.5,75.7,105.2,75.8,104.9,75.8z"/>
				<path class="st0" d="M109.3,67.8c0.1,0,0.2,0,0.3,0.1c0.2,0.2,0.3,0.5,0.1,0.7l-4.4,6.6c-0.1,0.1-0.3,0.2-0.4,0.2
					c-0.1,0-0.2,0-0.3-0.1c-0.2-0.2-0.3-0.5-0.1-0.7l4.4-6.6C109,67.9,109.2,67.8,109.3,67.8 M109.3,67.1c-0.4,0-0.8,0.2-1,0.6
					l-4.4,6.6c-0.2,0.3-0.3,0.6-0.2,0.9c0.1,0.3,0.3,0.6,0.5,0.8c0.2,0.1,0.4,0.2,0.7,0.2c0.4,0,0.8-0.2,1-0.6l4.4-6.6
					c0.4-0.6,0.2-1.4-0.3-1.7C109.8,67.1,109.6,67.1,109.3,67.1L109.3,67.1z"/>
			</g>
			<g>
				<path class="st4" d="M160.3,64.8c-0.2,0-0.3-0.1-0.5-0.1l-6.6-4.4c-0.2-0.1-0.3-0.3-0.4-0.6c0-0.2,0-0.5,0.1-0.7
					c0.2-0.2,0.4-0.4,0.7-0.4c0.2,0,0.3,0.1,0.5,0.1l6.6,4.4c0.4,0.3,0.5,0.8,0.2,1.2C160.9,64.6,160.6,64.8,160.3,64.8z"/>
				<path class="st0" d="M153.7,59c0.1,0,0.2,0,0.3,0.1l6.6,4.4c0.2,0.2,0.3,0.5,0.1,0.7c-0.1,0.1-0.3,0.2-0.4,0.2
					c-0.1,0-0.2,0-0.3-0.1l-6.6-4.4c-0.2-0.2-0.3-0.5-0.1-0.7C153.4,59.1,153.5,59,153.7,59 M153.7,58.2c-0.4,0-0.8,0.2-1,0.6
					c-0.4,0.6-0.2,1.4,0.3,1.7l6.6,4.4c0.2,0.1,0.4,0.2,0.7,0.2c0.4,0,0.8-0.2,1-0.6c0.4-0.6,0.2-1.4-0.3-1.7l-6.6-4.4
					C154.2,58.3,154,58.2,153.7,58.2L153.7,58.2z"/>
			</g>
			<g>
				<path class="st4" d="M144.9,16c-0.2,0-0.3-0.1-0.5-0.1c-0.4-0.3-0.5-0.8-0.2-1.2l4.4-6.6c0.2-0.2,0.4-0.4,0.7-0.4
					c0.2,0,0.3,0.1,0.5,0.1c0.4,0.3,0.5,0.8,0.2,1.2l-4.4,6.6C145.4,15.8,145.2,16,144.9,16z"/>
				<path class="st0" d="M149.3,8c0.1,0,0.2,0,0.3,0.1c0.2,0.2,0.3,0.5,0.1,0.7l-4.4,6.6c-0.1,0.1-0.3,0.2-0.4,0.2
					c-0.1,0-0.2,0-0.3-0.1c-0.2-0.2-0.3-0.5-0.1-0.7l4.4-6.6C149,8,149.1,8,149.3,8 M149.3,7.2c-0.4,0-0.8,0.2-1,0.6l-4.4,6.6
					c-0.2,0.3-0.3,0.6-0.2,0.9c0.1,0.3,0.3,0.6,0.5,0.8c0.2,0.1,0.4,0.2,0.7,0.2c0.4,0,0.8-0.2,1-0.6l4.4-6.6
					c0.4-0.6,0.2-1.4-0.3-1.7C149.8,7.3,149.6,7.2,149.3,7.2L149.3,7.2z"/>
			</g>
			<g>
				<path class="st4" d="M109.3,16c-0.3,0-0.6-0.1-0.7-0.4l-4.4-6.6C104,8.8,104,8.5,104,8.3c0-0.2,0.2-0.4,0.4-0.6
					c0.1-0.1,0.3-0.1,0.5-0.1c0.3,0,0.6,0.1,0.7,0.4l4.4,6.6c0.3,0.4,0.2,0.9-0.2,1.2C109.7,15.9,109.5,16,109.3,16z"/>
				<path class="st0" d="M104.9,8c0.2,0,0.3,0.1,0.4,0.2l4.4,6.6c0.2,0.2,0.1,0.5-0.1,0.7c-0.1,0.1-0.2,0.1-0.3,0.1
					c-0.2,0-0.3-0.1-0.4-0.2l-4.4-6.6c-0.2-0.2-0.1-0.5,0.1-0.7C104.7,8,104.8,8,104.9,8 M104.9,7.2L104.9,7.2
					c-0.2,0-0.5,0.1-0.7,0.2c-0.3,0.2-0.5,0.5-0.5,0.8c-0.1,0.3,0,0.7,0.2,0.9l4.4,6.6c0.2,0.3,0.6,0.6,1,0.6c0.2,0,0.5-0.1,0.7-0.2
					c0.3-0.2,0.5-0.5,0.5-0.8c0.1-0.3,0-0.7-0.2-0.9l-4.4-6.6C105.7,7.4,105.3,7.2,104.9,7.2L104.9,7.2z"/>
			</g>
			<g>
				<path class="st4" d="M93.9,64.8c-0.3,0-0.6-0.1-0.7-0.4C93,64.2,93,64,93,63.7c0-0.2,0.2-0.4,0.4-0.6l6.6-4.4
					c0.1-0.1,0.3-0.1,0.5-0.1c0.3,0,0.6,0.1,0.7,0.4c0.1,0.2,0.2,0.4,0.1,0.7c0,0.2-0.2,0.4-0.4,0.6l-6.6,4.4
					C94.2,64.7,94,64.8,93.9,64.8z"/>
				<path class="st0" d="M100.5,59c0.2,0,0.3,0.1,0.4,0.2c0.2,0.2,0.1,0.5-0.1,0.7l-6.6,4.4c-0.1,0.1-0.2,0.1-0.3,0.1
					c-0.2,0-0.3-0.1-0.4-0.2c-0.2-0.2-0.1-0.5,0.1-0.7l6.6-4.4C100.3,59,100.4,59,100.5,59 M100.5,58.2L100.5,58.2
					c-0.2,0-0.5,0.1-0.7,0.2l-6.6,4.4c-0.3,0.2-0.5,0.5-0.5,0.8c-0.1,0.3,0,0.7,0.2,0.9c0.2,0.3,0.6,0.6,1,0.6
					c0.2,0,0.5-0.1,0.7-0.2l6.6-4.4c0.6-0.4,0.7-1.2,0.3-1.7C101.3,58.4,100.9,58.2,100.5,58.2L100.5,58.2z"/>
			</g>
			<g>
				<path class="st4" d="M149.3,75.8c-0.3,0-0.6-0.1-0.7-0.4l-4.4-6.6c-0.1-0.2-0.2-0.4-0.1-0.7c0-0.2,0.2-0.4,0.4-0.6
					c0.1-0.1,0.3-0.1,0.5-0.1c0.3,0,0.6,0.1,0.7,0.4l4.4,6.6c0.3,0.4,0.2,0.9-0.2,1.2C149.6,75.8,149.5,75.8,149.3,75.8z"/>
				<path class="st0" d="M144.9,67.8c0.2,0,0.3,0.1,0.4,0.2l4.4,6.6c0.2,0.2,0.1,0.5-0.1,0.7c-0.1,0.1-0.2,0.1-0.3,0.1
					c-0.2,0-0.3-0.1-0.4-0.2l-4.4-6.6c-0.2-0.2-0.1-0.5,0.1-0.7C144.7,67.8,144.8,67.8,144.9,67.8 M144.9,67.1
					c-0.2,0-0.5,0.1-0.7,0.2c-0.3,0.2-0.5,0.5-0.5,0.8s0,0.7,0.2,0.9l4.4,6.6c0.2,0.3,0.6,0.6,1,0.6c0.2,0,0.5-0.1,0.7-0.2
					c0.3-0.2,0.5-0.5,0.5-0.8c0.1-0.3,0-0.7-0.2-0.9l-4.4-6.6C145.7,67.3,145.3,67.1,144.9,67.1L144.9,67.1z"/>
			</g>
			<g>
				<path class="st4" d="M153.7,24.8c-0.3,0-0.6-0.1-0.7-0.4c-0.1-0.2-0.2-0.4-0.1-0.7c0-0.2,0.2-0.4,0.4-0.6l6.6-4.4
					c0.1-0.1,0.3-0.1,0.5-0.1c0.3,0,0.6,0.1,0.7,0.4c0.3,0.4,0.2,0.9-0.2,1.2l-6.6,4.4C154,24.7,153.9,24.8,153.7,24.8z"/>
				<path class="st0" d="M160.3,19c0.2,0,0.3,0.1,0.4,0.2c0.2,0.2,0.1,0.5-0.1,0.7l-6.6,4.4c-0.1,0.1-0.2,0.1-0.3,0.1
					c-0.2,0-0.3-0.1-0.4-0.2c-0.2-0.2-0.1-0.5,0.1-0.7l6.6-4.4C160.1,19,160.2,19,160.3,19 M160.3,18.2L160.3,18.2
					c-0.2,0-0.5,0.1-0.7,0.2l-6.6,4.4c-0.6,0.4-0.7,1.2-0.3,1.7c0.2,0.3,0.6,0.6,1,0.6c0.2,0,0.5-0.1,0.7-0.2l6.6-4.4
					c0.3-0.2,0.5-0.5,0.5-0.8c0.1-0.3,0-0.7-0.2-0.9C161.1,18.4,160.8,18.2,160.3,18.2L160.3,18.2z"/>
			</g>
			<g>
				<path class="st4" d="M95.7,36.3l-0.1,0l-7.8-1.6c-0.2,0-0.4-0.2-0.6-0.4C87,34.2,87,34,87,33.7c0.1-0.4,0.4-0.7,0.9-0.7h0l0.1,0
					l7.8,1.6c0.2,0,0.4,0.2,0.6,0.4c0.1,0.2,0.2,0.4,0.1,0.7C96.5,36,96.1,36.3,95.7,36.3L95.7,36.3z"/>
				<path class="st0" d="M87.9,33.4C87.9,33.4,88,33.4,87.9,33.4l7.9,1.6c0.3,0.1,0.4,0.3,0.4,0.6c0,0.2-0.3,0.4-0.5,0.4
					c0,0-0.1,0-0.1,0l-7.8-1.6c-0.3-0.1-0.4-0.3-0.4-0.6C87.5,33.6,87.7,33.4,87.9,33.4 M87.9,32.7L87.9,32.7c-0.6,0-1.1,0.4-1.2,1
					c-0.1,0.3,0,0.7,0.2,0.9c0.2,0.3,0.5,0.5,0.8,0.5l7.8,1.6c0.1,0,0.2,0,0.2,0c0.6,0,1.1-0.4,1.2-1c0.1-0.7-0.3-1.3-1-1.5
					l-7.8-1.6C88.1,32.7,88,32.7,87.9,32.7L87.9,32.7z"/>
			</g>
			<g>
				<path class="st4" d="M119.3,81.8l-0.1,0c-0.5-0.1-0.8-0.6-0.7-1l1.6-7.8c0.1-0.4,0.4-0.7,0.9-0.7h0l0.1,0c0.5,0.1,0.8,0.6,0.7,1
					l-1.6,7.8C120.1,81.5,119.7,81.8,119.3,81.8L119.3,81.8z"/>
				<path class="st0" d="M120.9,72.6C120.9,72.6,120.9,72.6,120.9,72.6c0.4,0.1,0.5,0.3,0.5,0.6l-1.6,7.8c0,0.2-0.3,0.4-0.5,0.4
					c0,0-0.1,0-0.1,0c-0.3-0.1-0.4-0.3-0.4-0.6l1.6-7.8C120.4,72.7,120.6,72.6,120.9,72.6 M120.9,71.8L120.9,71.8
					c-0.6,0-1.1,0.4-1.2,1l-1.6,7.8c-0.1,0.3,0,0.7,0.2,0.9c0.2,0.3,0.5,0.5,0.8,0.5c0.1,0,0.2,0,0.2,0c0.6,0,1.1-0.4,1.2-1l1.6-7.8
					c0.1-0.7-0.3-1.3-1-1.5C121,71.8,120.9,71.8,120.9,71.8L120.9,71.8z"/>
			</g>
			<g>
				<path class="st4" d="M166.3,50.4l-0.1,0l-7.8-1.6c-0.2,0-0.4-0.2-0.6-0.4c-0.1-0.2-0.2-0.4-0.1-0.7c0.1-0.4,0.4-0.7,0.9-0.7h0
					l0.1,0l7.8,1.6c0.2,0,0.4,0.2,0.6,0.4s0.2,0.4,0.1,0.7C167.1,50.1,166.7,50.4,166.3,50.4L166.3,50.4z"/>
				<path class="st0" d="M158.5,47.4C158.5,47.4,158.5,47.4,158.5,47.4l7.9,1.6c0.3,0.1,0.4,0.3,0.4,0.6c0,0.2-0.3,0.4-0.5,0.4
					c0,0-0.1,0-0.1,0l-7.8-1.6c-0.3-0.1-0.4-0.3-0.4-0.6C158,47.6,158.3,47.4,158.5,47.4 M158.5,46.7L158.5,46.7
					c-0.6,0-1.1,0.4-1.2,1c-0.1,0.3,0,0.7,0.2,0.9c0.2,0.3,0.5,0.5,0.8,0.5l7.8,1.6c0.1,0,0.2,0,0.2,0c0.6,0,1.1-0.4,1.2-1
					c0.1-0.3,0-0.7-0.2-0.9c-0.2-0.3-0.5-0.5-0.8-0.5l-7.8-1.6C158.6,46.7,158.6,46.7,158.5,46.7L158.5,46.7z"/>
			</g>
			<g>
				<path class="st4" d="M133.3,11.2l-0.1,0c-0.2,0-0.4-0.2-0.6-0.4c-0.1-0.2-0.2-0.4-0.1-0.7l1.6-7.8c0.1-0.4,0.4-0.7,0.9-0.7h0
					l0.1,0c0.5,0.1,0.8,0.6,0.7,1l-1.6,7.8C134.1,10.9,133.8,11.2,133.3,11.2L133.3,11.2z"/>
				<path class="st0" d="M134.9,2C134.9,2,135,2,134.9,2c0.4,0.1,0.5,0.3,0.5,0.6l-1.6,7.8c0,0.2-0.3,0.4-0.5,0.4c0,0-0.1,0-0.1,0
					c-0.3-0.1-0.4-0.3-0.4-0.6l1.6-7.8C134.5,2.2,134.7,2,134.9,2 M134.9,1.2L134.9,1.2c-0.6,0-1.1,0.4-1.2,1l-1.6,7.8
					c-0.1,0.7,0.3,1.3,1,1.5c0.1,0,0.2,0,0.2,0c0.6,0,1.1-0.4,1.2-1l1.6-7.8c0.1-0.7-0.3-1.3-1-1.5C135.1,1.3,135,1.2,134.9,1.2
					L134.9,1.2z"/>
			</g>
			<g>
				<path class="st4" d="M124,10.7c-0.5,0-0.8-0.3-0.9-0.8L122.3,2c0-0.5,0.3-0.9,0.8-1c0,0,0,0,0,0c0.5,0,0.9,0.3,0.9,0.8l0.8,7.9
					C124.9,10.2,124.5,10.7,124,10.7L124,10.7z"/>
				<path class="st0" d="M123.2,1.4c0.3,0,0.5,0.2,0.5,0.5l0.8,7.9c0,0.3-0.2,0.5-0.4,0.5c0,0,0,0,0,0c-0.3,0-0.5-0.2-0.5-0.5
					L122.7,2C122.7,1.7,122.9,1.4,123.2,1.4C123.1,1.4,123.2,1.4,123.2,1.4 M123.2,0.7L123.2,0.7l-0.1,0c-0.3,0-0.6,0.2-0.8,0.5
					c-0.2,0.3-0.3,0.6-0.3,0.9l0.8,7.9c0.1,0.6,0.6,1.1,1.2,1.1h0l0.1,0c0.7-0.1,1.2-0.7,1.1-1.4l-0.8-7.9
					C124.4,1.2,123.8,0.7,123.2,0.7L123.2,0.7z"/>
			</g>
			<g>
				<path class="st4" d="M87.3,46.5c-0.5,0-0.8-0.3-0.9-0.8c0-0.5,0.3-0.9,0.8-1c0,0,7.9-0.8,7.9-0.8c0.5,0,0.9,0.3,0.9,0.8
					c0,0.5-0.3,0.9-0.8,1L87.3,46.5L87.3,46.5z"/>
				<path class="st0" d="M95.3,44.3c0.3,0,0.5,0.2,0.5,0.5c0,0.3-0.2,0.5-0.4,0.5l-7.9,0.8c0,0,0,0,0,0c-0.3,0-0.5-0.2-0.5-0.5
					c0-0.3,0.2-0.5,0.4-0.5L95.3,44.3C95.2,44.3,95.2,44.3,95.3,44.3 M95.3,43.6L95.3,43.6l-0.1,0l-7.9,0.8c-0.3,0-0.6,0.2-0.8,0.5
					c-0.2,0.3-0.3,0.6-0.3,0.9c0.1,0.6,0.6,1.1,1.2,1.1h0l0.1,0l7.9-0.8c0.3,0,0.6-0.2,0.8-0.5c0.2-0.3,0.3-0.6,0.3-0.9
					C96.4,44.1,95.9,43.6,95.3,43.6L95.3,43.6z"/>
			</g>
			<g>
				<path class="st4" d="M131,82.4c-0.5,0-0.8-0.3-0.9-0.8l-0.8-7.9c0-0.2,0-0.5,0.2-0.6c0.1-0.2,0.4-0.3,0.6-0.3c0,0,0,0,0,0
					c0.5,0,0.9,0.3,0.9,0.8l0.8,7.9c0,0.2,0,0.5-0.2,0.6C131.5,82.2,131.3,82.3,131,82.4L131,82.4z"/>
				<path class="st0" d="M130.2,73c0.3,0,0.5,0.2,0.5,0.5l0.8,7.9c0,0.3-0.2,0.5-0.4,0.5c0,0,0,0,0,0c-0.3,0-0.5-0.2-0.5-0.5
					l-0.8-7.9C129.7,73.3,129.9,73.1,130.2,73C130.2,73,130.2,73,130.2,73 M130.2,72.3L130.2,72.3l-0.1,0c-0.3,0-0.6,0.2-0.8,0.5
					c-0.2,0.3-0.3,0.6-0.3,0.9l0.8,7.9c0.1,0.6,0.6,1.1,1.2,1.1h0l0.1,0c0.7-0.1,1.2-0.7,1.1-1.4l-0.8-7.9
					C131.4,72.8,130.9,72.3,130.2,72.3L130.2,72.3z"/>
			</g>
			<g>
				<path class="st4" d="M158.9,39.4c-0.5,0-0.8-0.3-0.9-0.8c0-0.5,0.3-0.9,0.8-1c0,0,7.9-0.8,7.9-0.8c0.5,0,0.9,0.3,0.9,0.8
					c0,0.2,0,0.5-0.2,0.6s-0.4,0.3-0.6,0.3L158.9,39.4L158.9,39.4z"/>
				<path class="st0" d="M166.9,37.3c0.3,0,0.5,0.2,0.5,0.5c0,0.3-0.2,0.5-0.4,0.5l-7.9,0.8c0,0,0,0,0,0c-0.3,0-0.5-0.2-0.5-0.5
					c0-0.3,0.2-0.5,0.4-0.5L166.9,37.3C166.8,37.3,166.9,37.3,166.9,37.3 M166.9,36.5L166.9,36.5l-0.1,0l-7.9,0.8
					c-0.7,0.1-1.2,0.7-1.1,1.4c0.1,0.6,0.6,1.1,1.2,1.1h0l0.1,0L167,39c0.7-0.1,1.2-0.7,1.1-1.4C168.1,37,167.5,36.5,166.9,36.5
					L166.9,36.5z"/>
			</g>
			<g>
				<path class="st4" d="M102.4,22.3c-0.2,0-0.4-0.1-0.6-0.2L95.6,17c-0.2-0.1-0.3-0.4-0.3-0.6c0-0.2,0-0.5,0.2-0.6
					c0.2-0.2,0.4-0.3,0.7-0.3c0.2,0,0.4,0.1,0.6,0.2l6.2,5.1c0.2,0.1,0.3,0.4,0.3,0.6c0,0.2,0,0.5-0.2,0.6
					C102.9,22.2,102.6,22.3,102.4,22.3z"/>
				<path class="st0" d="M96.2,15.8c0.1,0,0.2,0,0.3,0.1l6.2,5.1c0.2,0.2,0.2,0.5,0.1,0.7c-0.1,0.1-0.2,0.2-0.4,0.2
					c-0.1,0-0.2,0-0.3-0.1l-6.2-5.1c-0.2-0.2-0.2-0.5-0.1-0.7C95.9,15.9,96.1,15.8,96.2,15.8 M96.2,15.1L96.2,15.1
					c-0.4,0-0.7,0.2-1,0.5c-0.2,0.3-0.3,0.6-0.3,0.9c0,0.3,0.2,0.6,0.5,0.8l6.2,5.1c0.2,0.2,0.5,0.3,0.8,0.3c0.4,0,0.7-0.2,1-0.5
					c0.2-0.3,0.3-0.6,0.3-0.9c0-0.3-0.2-0.6-0.5-0.8L97,15.4C96.8,15.2,96.5,15.1,96.2,15.1L96.2,15.1z"/>
			</g>
			<g>
				<path class="st4" d="M101.7,73.5c-0.2,0-0.4-0.1-0.6-0.2c-0.2-0.1-0.3-0.4-0.3-0.6c0-0.2,0-0.5,0.2-0.6l5.1-6.2
					c0.2-0.2,0.4-0.3,0.7-0.3c0.2,0,0.4,0.1,0.6,0.2c0.2,0.1,0.3,0.4,0.3,0.6c0,0.2,0,0.5-0.2,0.6l-5.1,6.2
					C102.3,73.4,102,73.5,101.7,73.5z"/>
				<path class="st0" d="M106.8,65.9c0.1,0,0.2,0,0.3,0.1c0.2,0.2,0.2,0.5,0.1,0.7l-5.1,6.2c-0.1,0.1-0.2,0.2-0.4,0.2
					c-0.1,0-0.2,0-0.3-0.1c-0.2-0.2-0.2-0.5-0.1-0.7l5.1-6.2C106.5,66,106.7,65.9,106.8,65.9 M106.8,65.2c-0.4,0-0.7,0.2-1,0.5
					l-5.1,6.2c-0.4,0.5-0.4,1.3,0.2,1.8c0.2,0.2,0.5,0.3,0.8,0.3c0.4,0,0.7-0.2,1-0.5l5.1-6.2c0.2-0.3,0.3-0.6,0.3-0.9
					c0-0.3-0.2-0.6-0.5-0.8C107.4,65.3,107.1,65.2,106.8,65.2L106.8,65.2z"/>
			</g>
			<g>
				<path class="st4" d="M158,67.9c-0.2,0-0.4-0.1-0.6-0.2l-6.2-5.1c-0.2-0.1-0.3-0.4-0.3-0.6c0-0.2,0-0.5,0.2-0.6
					c0.2-0.2,0.4-0.3,0.7-0.3c0.2,0,0.4,0.1,0.6,0.2l6.2,5.1c0.2,0.1,0.3,0.4,0.3,0.6c0,0.2,0,0.5-0.2,0.6
					C158.5,67.8,158.3,67.9,158,67.9z"/>
				<path class="st0" d="M151.8,61.5c0.1,0,0.2,0,0.3,0.1l6.2,5.1c0.2,0.2,0.2,0.5,0.1,0.7c-0.1,0.1-0.2,0.2-0.4,0.2
					c-0.1,0-0.2,0-0.3-0.1l-6.2-5.1c-0.2-0.2-0.2-0.5-0.1-0.7C151.5,61.6,151.7,61.5,151.8,61.5 M151.8,60.8c-0.4,0-0.7,0.2-1,0.5
					c-0.2,0.3-0.3,0.6-0.3,0.9c0,0.3,0.2,0.6,0.5,0.8l6.2,5.1c0.2,0.2,0.5,0.3,0.8,0.3c0.4,0,0.7-0.2,1-0.5c0.4-0.5,0.4-1.3-0.2-1.8
					l-6.2-5.1C152.4,60.9,152.1,60.8,151.8,60.8L151.8,60.8z"/>
			</g>
			<g>
				<path class="st4" d="M147.4,17.8c-0.2,0-0.4-0.1-0.6-0.2c-0.2-0.1-0.3-0.4-0.3-0.6c0-0.2,0-0.5,0.2-0.6l5.1-6.2
					c0.2-0.2,0.4-0.3,0.7-0.3c0.2,0,0.4,0.1,0.6,0.2c0.4,0.3,0.4,0.9,0.1,1.2l-5.1,6.2C147.9,17.7,147.7,17.8,147.4,17.8z"/>
				<path class="st0" d="M152.5,10.3c0.1,0,0.2,0,0.3,0.1c0.2,0.2,0.2,0.5,0.1,0.7l-5.1,6.2c-0.1,0.1-0.2,0.2-0.4,0.2
					c-0.1,0-0.2,0-0.3-0.1c-0.2-0.2-0.2-0.5-0.1-0.7l5.1-6.2C152.2,10.4,152.3,10.3,152.5,10.3 M152.5,9.5c-0.4,0-0.7,0.2-1,0.5
					l-5.1,6.2c-0.2,0.3-0.3,0.6-0.3,0.9s0.2,0.6,0.5,0.8c0.2,0.2,0.5,0.3,0.8,0.3c0.4,0,0.7-0.2,1-0.5l5.1-6.2
					c0.2-0.3,0.3-0.6,0.3-0.9c0-0.3-0.2-0.6-0.5-0.8C153,9.7,152.7,9.5,152.5,9.5L152.5,9.5z"/>
			</g>
			<g>
				<path class="st4" d="M112,14.4c-0.3,0-0.6-0.2-0.8-0.5l-3.8-7c-0.1-0.2-0.1-0.4-0.1-0.7c0.1-0.2,0.2-0.4,0.4-0.5
					c0.1-0.1,0.3-0.1,0.4-0.1c0.3,0,0.6,0.2,0.8,0.5l3.8,7c0.2,0.4,0.1,1-0.4,1.2C112.3,14.3,112.2,14.4,112,14.4z"/>
				<path class="st0" d="M108.3,5.9c0.2,0,0.4,0.1,0.4,0.3l3.8,7c0.1,0.2,0,0.5-0.2,0.7c-0.1,0-0.2,0.1-0.2,0.1
					c-0.2,0-0.4-0.1-0.4-0.3l-3.8-7c-0.1-0.2,0-0.5,0.2-0.7C108.1,6,108.2,5.9,108.3,5.9 M108.3,5.2c-0.2,0-0.4,0.1-0.6,0.1
					c-0.3,0.2-0.5,0.4-0.6,0.7c-0.1,0.3-0.1,0.7,0.1,1l3.8,7c0.2,0.4,0.6,0.7,1.1,0.7c0.2,0,0.4-0.1,0.6-0.1
					c0.6-0.3,0.8-1.1,0.5-1.7l-3.8-7C109.1,5.4,108.7,5.2,108.3,5.2L108.3,5.2z"/>
			</g>
			<g>
				<path class="st4" d="M91.8,61.4c-0.3,0-0.6-0.2-0.8-0.5c-0.2-0.4-0.1-1,0.4-1.2l7-3.8c0.1-0.1,0.3-0.1,0.4-0.1
					c0.3,0,0.6,0.2,0.8,0.5c0.2,0.4,0.1,1-0.4,1.2l-7,3.8C92.1,61.4,92,61.4,91.8,61.4z"/>
				<path class="st0" d="M98.9,56.3c0.2,0,0.4,0.1,0.4,0.3c0.1,0.2,0,0.5-0.2,0.7l-7,3.8C92,61,91.9,61,91.8,61
					c-0.2,0-0.4-0.1-0.4-0.3c-0.1-0.2,0-0.5,0.2-0.7l7-3.8C98.7,56.3,98.8,56.3,98.9,56.3 M98.9,55.5c-0.2,0-0.4,0.1-0.6,0.1l-7,3.8
					c-0.6,0.3-0.8,1.1-0.5,1.7c0.2,0.4,0.6,0.7,1.1,0.7c0.2,0,0.4-0.1,0.6-0.1l7-3.8c0.6-0.3,0.8-1.1,0.5-1.7
					C99.8,55.8,99.3,55.5,98.9,55.5L98.9,55.5z"/>
			</g>
			<g>
				<path class="st4" d="M145.9,77.8c-0.3,0-0.6-0.2-0.8-0.5l-3.8-7c-0.2-0.4-0.1-1,0.4-1.2c0.1-0.1,0.3-0.1,0.4-0.1
					c0.3,0,0.6,0.2,0.8,0.5l3.8,7c0.1,0.2,0.1,0.4,0.1,0.7s-0.2,0.4-0.4,0.5C146.2,77.8,146.1,77.8,145.9,77.8z"/>
				<path class="st0" d="M142.2,69.4c0.2,0,0.4,0.1,0.4,0.3l3.8,7c0.1,0.2,0,0.5-0.2,0.7c-0.1,0-0.2,0.1-0.2,0.1
					c-0.2,0-0.4-0.1-0.4-0.3l-3.8-7c-0.1-0.2,0-0.5,0.2-0.7C142,69.4,142.1,69.4,142.2,69.4 M142.2,68.7L142.2,68.7
					c-0.2,0-0.4,0.1-0.6,0.1c-0.3,0.2-0.5,0.4-0.6,0.7c-0.1,0.3-0.1,0.7,0.1,1l3.8,7c0.2,0.4,0.6,0.7,1.1,0.7c0.2,0,0.4-0.1,0.6-0.1
					c0.3-0.2,0.5-0.4,0.6-0.7c0.1-0.3,0.1-0.7-0.1-1l-3.8-7C143.1,68.9,142.6,68.7,142.2,68.7L142.2,68.7z"/>
			</g>
			<g>
				<path class="st4" d="M155.3,27.5c-0.3,0-0.6-0.2-0.8-0.5c-0.2-0.4-0.1-1,0.4-1.2l7-3.8c0.1-0.1,0.3-0.1,0.4-0.1
					c0.3,0,0.6,0.2,0.8,0.5c0.2,0.4,0.1,1-0.4,1.2l-7,3.8C155.6,27.5,155.5,27.5,155.3,27.5z"/>
				<path class="st0" d="M162.4,22.4c0.2,0,0.4,0.1,0.4,0.3c0.1,0.2,0,0.5-0.2,0.7l-7,3.8c-0.1,0-0.2,0.1-0.2,0.1
					c-0.2,0-0.4-0.1-0.4-0.3c-0.1-0.2,0-0.5,0.2-0.7l7-3.8C162.2,22.4,162.3,22.4,162.4,22.4 M162.4,21.6c-0.2,0-0.4,0.1-0.6,0.1
					l-7,3.8c-0.3,0.2-0.5,0.4-0.6,0.7c-0.1,0.3-0.1,0.7,0.1,1c0.2,0.4,0.6,0.7,1.1,0.7c0.2,0,0.4-0.1,0.6-0.1l7-3.8
					c0.3-0.2,0.5-0.4,0.6-0.7c0.1-0.3,0.1-0.7-0.1-1C163.2,21.9,162.8,21.6,162.4,21.6L162.4,21.6z"/>
			</g>
			<g>
				<path class="st4" d="M96.5,33.3c-0.1,0-0.2,0-0.3,0l-7.6-2.3c-0.2-0.1-0.4-0.2-0.5-0.4c-0.1-0.2-0.1-0.4-0.1-0.7
					c0.1-0.4,0.4-0.6,0.8-0.6c0.1,0,0.2,0,0.3,0l7.6,2.3c0.2,0.1,0.4,0.2,0.5,0.4c0.1,0.2,0.1,0.4,0.1,0.7
					C97.2,33,96.9,33.3,96.5,33.3z"/>
				<path class="st0" d="M88.8,29.6c0,0,0.1,0,0.1,0l7.6,2.3c0.3,0.1,0.4,0.4,0.3,0.6c-0.1,0.2-0.3,0.4-0.5,0.4c0,0-0.1,0-0.1,0
					l-7.6-2.3c-0.3-0.1-0.4-0.4-0.3-0.6C88.4,29.7,88.6,29.6,88.8,29.6 M88.8,28.8L88.8,28.8c-0.6,0-1,0.4-1.2,0.9
					c-0.2,0.7,0.2,1.4,0.8,1.6l7.6,2.3c0.1,0,0.2,0.1,0.4,0.1c0.6,0,1-0.4,1.2-0.9c0.2-0.7-0.2-1.4-0.8-1.6l-7.6-2.3
					C89.1,28.9,89,28.8,88.8,28.8L88.8,28.8z"/>
			</g>
			<g>
				<path class="st4" d="M115.5,80.8c-0.1,0-0.2,0-0.3,0c-0.2-0.1-0.4-0.2-0.5-0.4c-0.1-0.2-0.1-0.4-0.1-0.7l2.3-7.6
					c0.1-0.4,0.4-0.6,0.8-0.6c0.1,0,0.2,0,0.3,0c0.5,0.1,0.7,0.6,0.6,1.1l-2.3,7.6C116.2,80.6,115.9,80.8,115.5,80.8z"/>
				<path class="st0" d="M117.8,71.8c0,0,0.1,0,0.1,0c0.3,0.1,0.4,0.4,0.3,0.6l-2.3,7.6c-0.1,0.2-0.3,0.4-0.5,0.4c0,0-0.1,0-0.1,0
					c-0.3-0.1-0.4-0.4-0.3-0.6l2.3-7.6C117.4,72,117.6,71.8,117.8,71.8 M117.8,71.1L117.8,71.1c-0.6,0-1,0.4-1.2,0.9l-2.3,7.6
					c-0.2,0.7,0.2,1.4,0.8,1.6c0.1,0,0.2,0.1,0.4,0.1c0.6,0,1-0.4,1.2-0.9l2.3-7.6c0.2-0.7-0.2-1.4-0.8-1.6
					C118.1,71.1,117.9,71.1,117.8,71.1L117.8,71.1z"/>
			</g>
			<g>
				<path class="st4" d="M165.4,54.2c-0.1,0-0.2,0-0.3,0l-7.6-2.3c-0.5-0.1-0.7-0.6-0.6-1.1c0.1-0.4,0.5-0.6,0.8-0.6
					c0.1,0,0.2,0,0.3,0l7.6,2.3c0.5,0.1,0.7,0.6,0.6,1.1C166.1,53.9,165.7,54.2,165.4,54.2z"/>
				<path class="st0" d="M157.7,50.5c0,0,0.1,0,0.1,0l7.6,2.3c0.3,0.1,0.4,0.4,0.3,0.6c-0.1,0.2-0.3,0.4-0.5,0.4c0,0-0.1,0-0.1,0
					l-7.6-2.3c-0.3-0.1-0.4-0.4-0.3-0.6C157.3,50.6,157.5,50.5,157.7,50.5 M157.7,49.7L157.7,49.7c-0.6,0-1,0.4-1.2,0.9
					c-0.2,0.7,0.2,1.4,0.8,1.6l7.6,2.3c0.1,0,0.2,0.1,0.4,0.1c0.6,0,1-0.4,1.2-0.9c0.2-0.7-0.2-1.4-0.8-1.6l-7.6-2.3
					C158,49.8,157.8,49.7,157.7,49.7L157.7,49.7z"/>
			</g>
			<g>
				<path class="st4" d="M136.4,12c-0.1,0-0.2,0-0.3,0c-0.5-0.1-0.7-0.6-0.6-1.1l2.3-7.6c0.1-0.4,0.5-0.6,0.8-0.6c0.1,0,0.2,0,0.3,0
					c0.2,0.1,0.4,0.2,0.5,0.4c0.1,0.2,0.1,0.4,0.1,0.7l-2.3,7.6C137.1,11.7,136.8,12,136.4,12z"/>
				<path class="st0" d="M138.7,2.9c0,0,0.1,0,0.1,0c0.3,0.1,0.4,0.4,0.3,0.6l-2.3,7.6c-0.1,0.2-0.3,0.4-0.5,0.4c0,0-0.1,0-0.1,0
					c-0.3-0.1-0.4-0.4-0.3-0.6l2.3-7.6C138.3,3.1,138.5,2.9,138.7,2.9 M138.7,2.2L138.7,2.2c-0.6,0-1,0.4-1.2,0.9l-2.3,7.6
					c-0.1,0.3-0.1,0.7,0.1,1s0.4,0.5,0.7,0.6c0.1,0,0.2,0.1,0.4,0.1c0.6,0,1-0.4,1.2-0.9l2.3-7.6c0.1-0.3,0.1-0.7-0.1-1
					c-0.2-0.3-0.4-0.5-0.7-0.6C138.9,2.2,138.8,2.2,138.7,2.2L138.7,2.2z"/>
			</g>
			<g>
				<path class="st4" d="M117.8,12c-0.4,0-0.7-0.2-0.8-0.6l-2.3-7.6c-0.1-0.5,0.1-1,0.6-1.1c0.1,0,0.2,0,0.3,0
					c0.4,0,0.7,0.2,0.8,0.6l2.3,7.6c0.1,0.5-0.1,1-0.6,1.1C118,11.9,117.9,12,117.8,12z"/>
				<path class="st0" d="M115.5,2.9c0.2,0,0.4,0.1,0.5,0.4l2.3,7.6c0.1,0.3-0.1,0.5-0.3,0.6c0,0-0.1,0-0.1,0c-0.2,0-0.4-0.1-0.5-0.4
					L115,3.6c-0.1-0.3,0.1-0.5,0.3-0.6C115.4,3,115.4,2.9,115.5,2.9 M115.5,2.2c-0.1,0-0.2,0-0.4,0.1c-0.3,0.1-0.6,0.3-0.7,0.6
					c-0.2,0.3-0.2,0.6-0.1,1l2.3,7.6c0.2,0.5,0.6,0.9,1.2,0.9c0.1,0,0.2,0,0.4-0.1c0.7-0.2,1-0.9,0.8-1.6l-2.3-7.6
					C116.5,2.6,116.1,2.2,115.5,2.2L115.5,2.2z"/>
			</g>
			<g>
				<path class="st4" d="M88.8,54.2c-0.4,0-0.7-0.3-0.8-0.6c-0.1-0.5,0.1-1,0.6-1.1l7.6-2.3c0.1,0,0.2,0,0.3,0
					c0.4,0,0.7,0.2,0.8,0.6c0.1,0.5-0.1,1-0.6,1.1l-7.6,2.3C89,54.2,88.9,54.2,88.8,54.2z"/>
				<path class="st0" d="M96.5,50.5c0.2,0,0.4,0.1,0.5,0.4c0.1,0.3-0.1,0.5-0.3,0.6L89,53.8c0,0-0.1,0-0.1,0c-0.2,0-0.4-0.1-0.5-0.4
					c-0.1-0.3,0.1-0.5,0.3-0.6l7.6-2.3C96.4,50.5,96.4,50.5,96.5,50.5 M96.5,49.7L96.5,49.7c-0.1,0-0.2,0-0.4,0.1l-7.6,2.3
					c-0.7,0.2-1,0.9-0.8,1.6c0.2,0.5,0.6,0.9,1.2,0.9c0.1,0,0.2,0,0.4-0.1l7.6-2.3c0.3-0.1,0.6-0.3,0.7-0.6c0.2-0.3,0.2-0.6,0.1-1
					C97.5,50.1,97,49.7,96.5,49.7L96.5,49.7z"/>
			</g>
			<g>
				<path class="st4" d="M138.7,80.8c-0.4,0-0.7-0.3-0.8-0.6l-2.3-7.6c-0.1-0.5,0.1-1,0.6-1.1c0.1,0,0.2,0,0.3,0
					c0.4,0,0.7,0.2,0.8,0.6l2.3,7.6c0.1,0.5-0.1,1-0.6,1.1C138.9,80.8,138.8,80.8,138.7,80.8z"/>
				<path class="st0" d="M136.4,71.8c0.2,0,0.4,0.1,0.5,0.4l2.3,7.6c0.1,0.3-0.1,0.5-0.3,0.6c0,0-0.1,0-0.1,0
					c-0.2,0-0.4-0.1-0.5-0.4l-2.3-7.6c-0.1-0.3,0.1-0.5,0.3-0.6C136.3,71.8,136.3,71.8,136.4,71.8 M136.4,71.1c-0.1,0-0.2,0-0.4,0.1
					c-0.7,0.2-1,0.9-0.8,1.6l2.3,7.6c0.2,0.5,0.6,0.9,1.2,0.9c0.1,0,0.2,0,0.4-0.1c0.7-0.2,1-0.9,0.8-1.6l-2.3-7.6
					C137.4,71.4,136.9,71.1,136.4,71.1L136.4,71.1z"/>
			</g>
			<g>
				<path class="st4" d="M157.7,33.3c-0.4,0-0.7-0.2-0.8-0.6c-0.1-0.5,0.1-1,0.6-1.1l7.6-2.3c0.1,0,0.2,0,0.3,0
					c0.4,0,0.7,0.2,0.8,0.6c0.1,0.5-0.1,1-0.6,1.1l-7.6,2.3C157.9,33.3,157.8,33.3,157.7,33.3z"/>
				<path class="st0" d="M165.4,29.6c0.2,0,0.4,0.1,0.5,0.4c0.1,0.3-0.1,0.5-0.3,0.6l-7.6,2.3c0,0-0.1,0-0.1,0
					c-0.2,0-0.4-0.1-0.5-0.4c-0.1-0.3,0.1-0.5,0.3-0.6l7.6-2.3C165.3,29.6,165.3,29.6,165.4,29.6 M165.4,28.8c-0.1,0-0.2,0-0.4,0.1
					l-7.6,2.3c-0.7,0.2-1,0.9-0.8,1.6c0.2,0.5,0.6,0.9,1.2,0.9c0.1,0,0.2,0,0.4-0.1l7.6-2.3c0.7-0.2,1-0.9,0.8-1.6
					C166.4,29.2,165.9,28.8,165.4,28.8L165.4,28.8z"/>
			</g>
			<g>
				<path class="st4" d="M98.9,27.5c-0.1,0-0.3,0-0.4-0.1l-7-3.8c-0.2-0.1-0.4-0.3-0.4-0.5c-0.1-0.2,0-0.5,0.1-0.7
					c0.2-0.3,0.4-0.5,0.8-0.5c0.1,0,0.3,0,0.4,0.1l7,3.8c0.2,0.1,0.4,0.3,0.4,0.5c0.1,0.2,0,0.5-0.1,0.7
					C99.5,27.3,99.2,27.5,98.9,27.5z"/>
				<path class="st0" d="M91.8,22.4c0.1,0,0.2,0,0.2,0.1l7,3.8c0.2,0.1,0.3,0.4,0.2,0.7c-0.1,0.2-0.3,0.3-0.4,0.3
					c-0.1,0-0.2,0-0.2-0.1l-7-3.8c-0.2-0.1-0.3-0.4-0.2-0.7C91.5,22.5,91.7,22.4,91.8,22.4 M91.8,21.6c-0.5,0-0.9,0.3-1.1,0.7
					c-0.3,0.6-0.1,1.4,0.5,1.7l7,3.8c0.2,0.1,0.4,0.1,0.6,0.1c0.5,0,0.9-0.3,1.1-0.7c0.2-0.3,0.2-0.6,0.1-1
					c-0.1-0.3-0.3-0.6-0.6-0.7l-7-3.8C92.3,21.7,92.1,21.6,91.8,21.6L91.8,21.6z"/>
			</g>
			<g>
				<path class="st4" d="M108.3,77.8c-0.1,0-0.3,0-0.4-0.1c-0.2-0.1-0.4-0.3-0.4-0.5c-0.1-0.2,0-0.5,0.1-0.7l3.8-7
					c0.2-0.3,0.4-0.5,0.8-0.5c0.1,0,0.3,0,0.4,0.1c0.2,0.1,0.4,0.3,0.4,0.5c0.1,0.2,0,0.5-0.1,0.7l-3.8,7
					C108.9,77.7,108.6,77.8,108.3,77.8z"/>
				<path class="st0" d="M112,69.4c0.1,0,0.2,0,0.2,0.1c0.2,0.1,0.3,0.4,0.2,0.7l-3.8,7c-0.1,0.2-0.3,0.3-0.4,0.3
					c-0.1,0-0.2,0-0.2-0.1c-0.2-0.1-0.3-0.4-0.2-0.7l3.8-7C111.7,69.5,111.8,69.4,112,69.4 M112,68.7L112,68.7
					c-0.5,0-0.9,0.3-1.1,0.7l-3.8,7c-0.3,0.6-0.1,1.4,0.5,1.7c0.2,0.1,0.4,0.1,0.6,0.1c0.5,0,0.9-0.3,1.1-0.7l3.8-7
					c0.2-0.3,0.2-0.6,0.1-1c-0.1-0.3-0.3-0.6-0.6-0.7C112.4,68.7,112.2,68.7,112,68.7L112,68.7z"/>
			</g>
			<g>
				<path class="st4" d="M162.4,61.4c-0.1,0-0.3,0-0.4-0.1l-7-3.8c-0.2-0.1-0.4-0.3-0.4-0.5c-0.1-0.2,0-0.5,0.1-0.7
					c0.2-0.3,0.4-0.5,0.8-0.5c0.1,0,0.3,0,0.4,0.1l7,3.8c0.4,0.2,0.6,0.8,0.4,1.2C163,61.2,162.7,61.4,162.4,61.4z"/>
				<path class="st0" d="M155.3,56.3c0.1,0,0.2,0,0.2,0.1l7,3.8c0.2,0.1,0.3,0.4,0.2,0.7c-0.1,0.2-0.3,0.3-0.4,0.3
					c-0.1,0-0.2,0-0.2-0.1l-7-3.8c-0.2-0.1-0.3-0.4-0.2-0.7C155,56.4,155.1,56.3,155.3,56.3 M155.3,55.5c-0.5,0-0.9,0.3-1.1,0.7
					c-0.2,0.3-0.2,0.6-0.1,1c0.1,0.3,0.3,0.6,0.6,0.7l7,3.8c0.2,0.1,0.4,0.1,0.6,0.1c0.5,0,0.9-0.3,1.1-0.7c0.3-0.6,0.1-1.4-0.5-1.7
					l-7-3.8C155.7,55.6,155.5,55.5,155.3,55.5L155.3,55.5z"/>
			</g>
			<g>
				<path class="st4" d="M142.2,14.4c-0.1,0-0.3,0-0.4-0.1c-0.4-0.2-0.6-0.8-0.4-1.2l3.8-7c0.2-0.3,0.4-0.5,0.8-0.5
					c0.1,0,0.3,0,0.4,0.1c0.2,0.1,0.4,0.3,0.4,0.5c0.1,0.2,0,0.5-0.1,0.7l-3.8,7C142.8,14.2,142.5,14.4,142.2,14.4z"/>
				<path class="st0" d="M145.9,5.9c0.1,0,0.2,0,0.2,0.1c0.2,0.1,0.3,0.4,0.2,0.7l-3.8,7c-0.1,0.2-0.3,0.3-0.4,0.3
					c-0.1,0-0.2,0-0.2-0.1c-0.2-0.1-0.3-0.4-0.2-0.7l3.8-7C145.6,6,145.8,5.9,145.9,5.9 M145.9,5.2c-0.5,0-0.9,0.3-1.1,0.7l-3.8,7
					c-0.2,0.3-0.2,0.6-0.1,1c0.1,0.3,0.3,0.6,0.6,0.7c0.2,0.1,0.4,0.1,0.6,0.1c0.5,0,0.9-0.3,1.1-0.7l3.8-7c0.3-0.6,0.1-1.4-0.5-1.7
					C146.4,5.2,146.1,5.2,145.9,5.2L145.9,5.2z"/>
			</g>
			<g>
				<path class="st4" d="M106.8,17.8c-0.3,0-0.5-0.1-0.7-0.3l-5.1-6.2c-0.3-0.4-0.3-0.9,0.1-1.2c0.2-0.1,0.4-0.2,0.6-0.2
					c0.3,0,0.5,0.1,0.7,0.3l5.1,6.2c0.1,0.2,0.2,0.4,0.2,0.6c0,0.2-0.1,0.4-0.3,0.6C107.2,17.8,107,17.8,106.8,17.8z"/>
				<path class="st0" d="M101.7,10.3c0.1,0,0.3,0.1,0.4,0.2l5.1,6.2c0.2,0.2,0.1,0.5-0.1,0.7c-0.1,0.1-0.2,0.1-0.3,0.1
					c-0.1,0-0.3-0.1-0.4-0.2l-5.1-6.2c-0.2-0.2-0.1-0.5,0.1-0.7C101.5,10.3,101.6,10.3,101.7,10.3 M101.7,9.5L101.7,9.5
					c-0.3,0-0.6,0.1-0.8,0.3c-0.3,0.2-0.4,0.5-0.5,0.8c0,0.3,0.1,0.7,0.3,0.9l5.1,6.2c0.2,0.3,0.6,0.5,1,0.5c0.3,0,0.6-0.1,0.8-0.3
					c0.5-0.4,0.6-1.2,0.2-1.8l-5.1-6.2C102.5,9.7,102.1,9.5,101.7,9.5L101.7,9.5z"/>
			</g>
			<g>
				<path class="st4" d="M96.2,67.9c-0.3,0-0.5-0.1-0.7-0.3c-0.1-0.2-0.2-0.4-0.2-0.6c0-0.2,0.1-0.4,0.3-0.6l6.2-5.1
					c0.2-0.1,0.4-0.2,0.6-0.2c0.3,0,0.5,0.1,0.7,0.3c0.3,0.4,0.3,0.9-0.1,1.2l-6.2,5.1C96.6,67.9,96.4,67.9,96.2,67.9z"/>
				<path class="st0" d="M102.4,61.5c0.1,0,0.3,0.1,0.4,0.2c0.2,0.2,0.1,0.5-0.1,0.7l-6.2,5.1c-0.1,0.1-0.2,0.1-0.3,0.1
					c-0.1,0-0.3-0.1-0.4-0.2c-0.2-0.2-0.1-0.5,0.1-0.7l6.2-5.1C102.1,61.5,102.3,61.5,102.4,61.5 M102.4,60.8L102.4,60.8
					c-0.3,0-0.6,0.1-0.8,0.3l-6.2,5.1c-0.3,0.2-0.4,0.5-0.5,0.8c0,0.3,0.1,0.7,0.3,0.9c0.2,0.3,0.6,0.5,1,0.5c0.3,0,0.6-0.1,0.8-0.3
					l6.2-5.1c0.3-0.2,0.4-0.5,0.5-0.8c0-0.3-0.1-0.7-0.3-0.9C103.1,60.9,102.7,60.8,102.4,60.8L102.4,60.8z"/>
			</g>
			<g>
				<path class="st4" d="M152.5,73.5c-0.3,0-0.5-0.1-0.7-0.3l-5.1-6.2c-0.1-0.2-0.2-0.4-0.2-0.6c0-0.2,0.1-0.4,0.3-0.6
					c0.2-0.1,0.4-0.2,0.6-0.2c0.3,0,0.5,0.1,0.7,0.3l5.1,6.2c0.1,0.2,0.2,0.4,0.2,0.6c0,0.2-0.1,0.4-0.3,0.6
					C152.9,73.4,152.7,73.5,152.5,73.5z"/>
				<path class="st0" d="M147.4,65.9c0.1,0,0.3,0.1,0.4,0.2l5.1,6.2c0.2,0.2,0.1,0.5-0.1,0.7c-0.1,0.1-0.2,0.1-0.3,0.1
					c-0.1,0-0.3-0.1-0.4-0.2l-5.1-6.2c-0.2-0.2-0.1-0.5,0.1-0.7C147.2,66,147.3,65.9,147.4,65.9 M147.4,65.2L147.4,65.2
					c-0.3,0-0.6,0.1-0.8,0.3c-0.5,0.4-0.6,1.2-0.2,1.8l5.1,6.2c0.2,0.3,0.6,0.5,1,0.5c0.3,0,0.6-0.1,0.8-0.3
					c0.3-0.2,0.4-0.5,0.5-0.8c0-0.3-0.1-0.7-0.3-0.9l-5.1-6.2C148.1,65.4,147.8,65.2,147.4,65.2L147.4,65.2z"/>
			</g>
			<g>
				<path class="st4" d="M151.8,22.3c-0.3,0-0.5-0.1-0.7-0.3c-0.3-0.4-0.3-0.9,0.1-1.2l6.2-5.1c0.2-0.1,0.4-0.2,0.6-0.2
					c0.3,0,0.5,0.1,0.7,0.3c0.3,0.4,0.3,0.9-0.1,1.2l-6.2,5.1C152.2,22.2,152,22.3,151.8,22.3z"/>
				<path class="st0" d="M158,15.8c0.1,0,0.3,0.1,0.4,0.2c0.2,0.2,0.1,0.5-0.1,0.7l-6.2,5.1c-0.1,0.1-0.2,0.1-0.3,0.1
					c-0.1,0-0.3-0.1-0.4-0.2c-0.2-0.2-0.1-0.5,0.1-0.7l6.2-5.1C157.8,15.9,157.9,15.8,158,15.8 M158,15.1L158,15.1
					c-0.3,0-0.6,0.1-0.8,0.3l-6.2,5.1c-0.3,0.2-0.4,0.5-0.5,0.8c0,0.3,0.1,0.7,0.3,0.9c0.2,0.3,0.6,0.5,1,0.5c0.3,0,0.6-0.1,0.8-0.3
					l6.2-5.1c0.3-0.2,0.4-0.5,0.5-0.8c0-0.3-0.1-0.7-0.3-0.9C158.7,15.3,158.4,15.1,158,15.1L158,15.1z"/>
			</g>
			<g>
				<path class="st4" d="M95.2,39.4l-7.9-0.8c-0.2,0-0.4-0.1-0.6-0.3c-0.1-0.2-0.2-0.4-0.2-0.6c0-0.4,0.4-0.8,0.9-0.8l8,0.8
					c0.2,0,0.4,0.1,0.6,0.3s0.2,0.4,0.2,0.6C96.1,39.1,95.7,39.4,95.2,39.4L95.2,39.4z"/>
				<path class="st0" d="M87.3,37.3C87.3,37.3,87.4,37.3,87.3,37.3l8,0.8c0.3,0,0.5,0.3,0.4,0.5c0,0.3-0.2,0.5-0.5,0.5c0,0,0,0,0,0
					l-7.9-0.8c-0.3,0-0.5-0.3-0.4-0.5C86.8,37.5,87.1,37.3,87.3,37.3 M87.3,36.5c-0.6,0-1.2,0.5-1.2,1.1c0,0.3,0.1,0.7,0.3,0.9
					c0.2,0.3,0.5,0.4,0.8,0.5l7.9,0.8l0,0l0.1,0c0.6,0,1.2-0.5,1.2-1.1c0-0.3-0.1-0.7-0.3-0.9c-0.2-0.3-0.5-0.4-0.8-0.5l-7.9-0.8
					L87.3,36.5L87.3,36.5L87.3,36.5z"/>
			</g>
			<g>
				<path class="st4" d="M123.1,82.4c-0.5,0-0.8-0.5-0.8-1l0.8-7.9c0-0.4,0.4-0.8,0.9-0.8c0.3,0,0.5,0.1,0.7,0.3
					c0.1,0.2,0.2,0.4,0.2,0.6l-0.8,7.9C124,82,123.6,82.4,123.1,82.4L123.1,82.4z"/>
				<path class="st0" d="M124,73C124,73,124,73,124,73c0.3,0,0.5,0.3,0.5,0.5l-0.8,7.9c0,0.3-0.2,0.5-0.5,0.5c0,0,0,0,0,0
					c-0.3,0-0.5-0.3-0.4-0.5l0.8-7.9C123.5,73.2,123.7,73,124,73 M124,72.3c-0.6,0-1.2,0.5-1.2,1.1l-0.8,7.9c0,0.3,0.1,0.7,0.3,0.9
					c0.2,0.3,0.5,0.4,0.8,0.5l0,0l0.1,0c0.6,0,1.2-0.5,1.2-1.1l0.8-7.9c0-0.3-0.1-0.7-0.3-0.9c-0.2-0.3-0.5-0.4-0.8-0.5L124,72.3
					L124,72.3L124,72.3z"/>
			</g>
			<g>
				<path class="st4" d="M166.8,46.5l-7.9-0.8c-0.5,0-0.8-0.5-0.8-1c0-0.4,0.4-0.8,0.9-0.8l8,0.8c0.2,0,0.4,0.1,0.6,0.3
					c0.1,0.2,0.2,0.4,0.2,0.6C167.7,46.2,167.3,46.5,166.8,46.5L166.8,46.5z"/>
				<path class="st0" d="M158.9,44.3C159,44.3,159,44.3,158.9,44.3l8,0.8c0.3,0,0.5,0.3,0.4,0.5c0,0.3-0.2,0.5-0.5,0.5c0,0,0,0,0,0
					l-7.9-0.8c-0.3,0-0.5-0.3-0.4-0.5C158.5,44.5,158.7,44.3,158.9,44.3 M158.9,43.6c-0.6,0-1.2,0.5-1.2,1.1
					c-0.1,0.7,0.4,1.3,1.1,1.4l7.9,0.8l0,0l0.1,0c0.6,0,1.2-0.5,1.2-1.1c0.1-0.7-0.4-1.3-1.1-1.4l-7.9-0.8L158.9,43.6L158.9,43.6
					L158.9,43.6z"/>
			</g>
			<g>
				<path class="st4" d="M130.2,10.7c-0.5,0-0.8-0.5-0.8-1l0.8-7.9c0-0.4,0.4-0.8,0.9-0.8c0.6,0.1,0.9,0.5,0.9,1l-0.8,7.9
					C131.1,10.4,130.7,10.7,130.2,10.7L130.2,10.7z"/>
				<path class="st0" d="M131,1.4C131,1.4,131.1,1.4,131,1.4c0.3,0,0.5,0.3,0.5,0.5l-0.8,7.9c0,0.3-0.2,0.5-0.5,0.5c0,0,0,0,0,0
					c-0.3,0-0.5-0.3-0.4-0.5l0.8-7.9C130.5,1.6,130.8,1.4,131,1.4 M131,0.7c-0.6,0-1.2,0.5-1.2,1.1L129,9.7
					c-0.1,0.7,0.4,1.3,1.1,1.4l0,0l0.1,0c0.6,0,1.2-0.5,1.2-1.1l0.8-7.9c0.1-0.7-0.4-1.3-1.1-1.4L131,0.7L131,0.7L131,0.7z"/>
			</g>
		</g>
	</g>
</g>
<g id="LS_pressed">
	<g>
		<path class="st5" d="M83.4,41.7c0,23-18.7,41.7-41.7,41.7S0,64.7,0,41.7S18.7,0,41.7,0S83.4,18.7,83.4,41.7L83.4,41.7z"/>
		<path class="st6" d="M41.7,0h-1.3h-0.8l0.9,20h1.1L41.7,0L41.7,0z M37.7,0.2h-0.2h-0.1c-0.6,0.1-1.1,0.1-1.7,0.2l2.8,19.8
			c0.3,0,0.7-0.1,1-0.1L37.7,0.2z M33.7,0.8L33.7,0.8h-0.5c-0.5,0.1-1,0.2-1.4,0.3l4.7,19.4c0.3-0.1,0.7-0.2,1-0.2L33.7,0.8
			L33.7,0.8z M29.8,1.8L29,2l0,0l0,0l0,0l0,0l0,0h-0.1L28,2.3l6.6,18.9c0.3-0.1,0.7-0.2,1-0.3L29.8,1.8L29.8,1.8z M26.1,3
			c-0.6,0.3-1.2,0.5-1.8,0.8L32.6,22c0.3-0.1,0.6-0.3,1-0.4L26.1,3z M22.4,4.7c-0.6,0.3-1.2,0.6-1.8,1l10.1,17.2
			c0.3-0.2,0.6-0.4,0.9-0.5L22.4,4.7z M19,6.7c-0.6,0.4-1.1,0.7-1.6,1.1L29,24.1c0.3-0.2,0.6-0.4,0.9-0.6L19,6.7z M15.8,9.1
			c-0.5,0.4-1,0.9-1.5,1.3l13.2,15c0.3-0.2,0.5-0.5,0.8-0.7L15.8,9.1z M12.8,11.7c-0.3,0.3-0.6,0.6-0.8,0.8l0,0l0,0l0,0l0,0l0,0l0,0
			l0,0L11.5,13l14.4,13.8c0.2-0.3,0.5-0.5,0.7-0.7L12.8,11.7L12.8,11.7z M10,14.6L10,14.6L10,14.6L10,14.6L10,14.6H9.9l0,0l0,0
			C9.5,15,9.1,15.5,8.8,16l0,0l15.8,12.3c0.2-0.3,0.4-0.5,0.7-0.8L10,14.6z M7.6,17.8L7.4,18l0,0l0,0l0,0c-0.3,0.5-0.6,0.9-0.9,1.4
			l16.9,10.7c0.2-0.3,0.4-0.6,0.6-0.9L7.6,17.8z M5.4,21.1L5,22l0,0l-0.5,0.9l17.9,9c0.2-0.3,0.3-0.6,0.5-0.9L5.4,21.1z M3.6,24.7
			c-0.1,0.1-0.1,0.3-0.2,0.5l0,0v0.1l0,0c0,0,0,0,0,0.1l0,0c-0.2,0.4-0.4,0.8-0.5,1.3L21.5,34c0.1-0.3,0.3-0.6,0.4-1L3.6,24.7z
			 M2.2,28.4C2.1,28.7,2,29,1.9,29.2l0,0l0,0l0,0l0,0l0,0l0,0l0,0l0,0l0,0l0,0l0,0l0,0l0,0l0,0l0,0l0,0l0,0l0,0l0,0l0,0l0,0l0,0l0,0
			l0,0l0,0l0,0l0,0l0,0l0,0l0,0l0,0l0,0l0,0l0,0l0,0l0,0l0,0c-0.1,0.2-0.1,0.4-0.2,0.5L21,35.2c0.1-0.3,0.2-0.7,0.3-1l-19-6.4
			L2.2,28.4z M1.1,32.3c-0.1,0.5-0.2,1.1-0.3,1.6c0,0.1,0,0.3-0.1,0.4l19.7,3.5c0.1-0.3,0.1-0.7,0.2-1L1.1,32.3z M0.4,36.2
			c-0.1,0.4-0.1,0.8-0.2,1.3l0,0l0,0l0,0l0,0l0,0l0,0l0,0c0,0.2,0,0.4,0,0.6l19.9,1.7c0-0.3,0.1-0.7,0.1-1L0.4,36.2z M0,40.2v1l0,0
			l0,0l0,0v0.1l0,0v0.2l0,0l0,0l0,0l0,0l0,0l0,0l0,0l0,0l0,0l0,0l0,0l0,0l0,0c0,0.1,0,0.3,0,0.4L20,42v-0.3c0-0.3,0-0.5,0-0.8
			L0,40.2z M20,43L0.1,44.2c0,0.6,0.1,1.1,0.1,1.7l0,0l0,0l0,0l0,0l0,0l0,0l0,0c0,0.1,0,0.1,0,0.2L20.1,44C20.1,43.6,20,43.3,20,43
			L20,43z M20.2,45.1L0.5,48.2l0,0l0,0l0,0l0,0l0,0l0,0c0.1,0.5,0.2,1,0.3,1.6l0,0l0,0l0,0l0,0l0,0l0,0l0,0V50l19.6-4
			C20.3,45.7,20.3,45.3,20.2,45.1L20.2,45.1z M20.6,47.1l-19.4,5c0.2,0.7,0.3,1.3,0.5,1.9L21,48.1C20.9,47.8,20.8,47.5,20.6,47.1
			L20.6,47.1z M21.3,49.1L2.5,55.9c0.2,0.6,0.5,1.3,0.7,1.9l18.5-7.7C21.5,49.7,21.4,49.4,21.3,49.1L21.3,49.1z M22,51L4,59.6
			l0.1,0.2l0,0l0,0l0,0c0.2,0.4,0.4,0.7,0.6,1.1l0,0l0,0l0,0l0,0l0,0l0,0l0,0c0,0.1,0.1,0.2,0.2,0.3l17.6-9.5
			c-0.2-0.3-0.3-0.6-0.5-0.9V51z M23,52.8L5.9,63.1l0.3,0.5l0,0l0,0l0,0l0,0l0,0c0.2,0.4,0.5,0.8,0.7,1.1l16.6-11.1
			C23.4,53.4,23.2,53.1,23,52.8L23,52.8z M24.2,54.5l-16,11.9l0.2,0.3l0,0l0,0l0,0l0,0l0,0l0,0l0,0l0,0l0,0l0,0l0,0l0,0l0,0l0,0l0,0
			l0,0l0,0l0,0l0,0l0,0l0,0l0,0l0,0l0,0l0,0l0,0l0,0c0.2,0.3,0.5,0.6,0.7,0.9L24.6,55c-0.2-0.3-0.4-0.5-0.6-0.8L24.2,54.5z
			 M25.5,56.2L10.7,69.6c0.4,0.5,0.9,1,1.4,1.4l14.2-14.1C26,56.7,25.8,56.4,25.5,56.2L25.5,56.2z M27,57.7L13.5,72.4
			c0.3,0.2,0.5,0.5,0.8,0.7h0.1l0,0l0,0l0.7,0.6l12.8-15.3C27.5,58.1,27.3,57.9,27,57.7L27,57.7z M28.6,59L16.5,75
			c0.3,0.2,0.6,0.5,0.9,0.7l0.7,0.5l11.3-16.5C29.2,59.5,28.9,59.3,28.6,59L28.6,59z M30.3,60.2l-10.5,17l0.1,0.1l0,0l0,0l0,0
			c0.5,0.3,1,0.6,1.5,0.9l0,0l9.7-17.5C30.8,60.5,30.5,60.3,30.3,60.2L30.3,60.2z M32.2,61.2l-8.8,18l0.3,0.2h0.2l0,0l0,0
			c0.4,0.2,0.8,0.4,1.3,0.6l8-18.3C32.8,61.5,32.5,61.3,32.2,61.2L32.2,61.2z M34.1,62L27,80.7c0.6,0.2,1.3,0.4,1.9,0.7l6.1-19
			L34.1,62L34.1,62z M36.1,62.6L30.8,82l0.2,0.1h0.2c0.5,0.1,1,0.3,1.5,0.4L37,62.9C36.7,62.8,36.3,62.7,36.1,62.6L36.1,62.6z
			 M38.1,63.1l-3.3,19.7c0.5,0.1,1,0.2,1.5,0.2l0.5,0.1l2.4-19.9C38.7,63.2,38.4,63.1,38.1,63.1L38.1,63.1z M40.1,63.3l-1.4,20h0.4
			h0.1h1h0.5l0.5-20C40.9,63.3,40.5,63.3,40.1,63.3L40.1,63.3z M43.3,63.3h-1l0.5,20h0.6h0.1l1.2-0.1h0.1L43.3,63.3L43.3,63.3z
			 M45.4,63.1c-0.3,0.1-0.7,0.1-1,0.2l2.4,19.9c0.6-0.1,1.2-0.2,1.8-0.3h0.2L45.4,63.1L45.4,63.1z M47.4,62.6
			c-0.3,0.1-0.7,0.2-1,0.2l4.3,19.5h0.2h0.2l0.8-0.2h0.4l0.4-0.1l-5.2-19.3L47.4,62.6z M49.4,62l-1,0.3l6.1,19l0.9-0.3h0.2l0.8-0.3
			L49.4,62L49.4,62z M51.3,61.2l-1,0.4l8,18.4c0.3-0.2,0.7-0.3,1-0.5h0.2l0.6-0.3L51.3,61.2L51.3,61.2z M53.1,60.2
			c-0.3,0.2-0.6,0.4-0.9,0.5l9.7,17.5l0.2-0.1l0,0l0,0h0.1l0,0l0,0l1.4-0.8L53.1,60.2L53.1,60.2z M54.8,59c-0.3,0.2-0.6,0.4-0.8,0.6
			l11.3,16.5l0.8-0.5l0,0l0,0l0,0l0,0l0,0l0,0h0.1l0,0l0,0l0.6-0.4L54.8,59z M56.4,57.7c-0.3,0.2-0.5,0.5-0.8,0.7l12.8,15.4h0.3l0,0
			l0,0l0,0l0,0l1-0.9l0,0l0,0l0,0l0,0l0,0L56.4,57.7z M57.8,56.2c-0.2,0.3-0.5,0.5-0.7,0.8l14.3,14l0,0l0,0l0,0l0.9-1l0,0l0,0l0,0
			l0,0l0,0l0,0l0,0c0.1-0.1,0.2-0.2,0.3-0.3L57.8,56.2z M59.2,54.6c-0.2,0.3-0.4,0.5-0.6,0.8L74,68l0,0l0,0l0,0l0,0l0,0l0,0l0,0l0,0
			l0,0l0,0l0,0c0.2-0.3,0.4-0.5,0.6-0.8l0,0l0,0l0,0l0,0l0,0l0,0l0,0l0,0l0,0c0.1-0.2,0.2-0.3,0.3-0.5L59.2,54.6z M60.3,52.8
			c-0.2,0.3-0.4,0.6-0.5,0.9l16.6,11.1l0.1-0.2l0,0l0,0c0.3-0.5,0.6-1,0.9-1.4l0,0l0,0l0,0C77.4,63.2,60.3,52.8,60.3,52.8z M61.3,51
			c-0.1,0.3-0.3,0.6-0.5,0.9l17.6,9.5l0.3-0.5l0.4-0.8l0,0l0,0l0,0l0,0l0,0l0,0l0,0c0.1-0.1,0.1-0.2,0.2-0.3L61.3,51L61.3,51z
			 M62.1,49.1c-0.1,0.3-0.2,0.6-0.4,1l18.4,7.7c0.1-0.2,0.2-0.5,0.3-0.7l0,0l0,0l0,0l0,0l0,0l0,0l0,0c0.1-0.4,0.3-0.7,0.4-1.1
			L62.1,49.1L62.1,49.1z M62.7,47.1c-0.1,0.3-0.2,0.7-0.3,1L81.5,54c0-0.1,0.1-0.3,0.1-0.4l0,0l0,0l0,0l0,0l0,0l0,0l0,0l0,0l0,0l0,0
			l0,0l0,0l0,0l0,0l0,0l0,0l0,0l0,0l0,0l0,0l0,0c0.1-0.4,0.2-0.8,0.3-1.2l-19.4-5L62.7,47.1z M63.1,45.1c0,0.3-0.1,0.7-0.2,1l19.6,4
			c0.1-0.6,0.2-1.2,0.3-1.7c0-0.1,0-0.2,0-0.3L63.1,45.1L63.1,45.1z M63.3,43c0,0.3,0,0.7-0.1,1l19.9,2.1c0-0.2,0-0.5,0.1-0.7l0,0
			l0,0l0,0l0,0l0,0l0,0c0-0.4,0.1-0.8,0.1-1.1v-0.1L63.3,43z M83.3,40.2l-20,0.7c0,0.3,0,0.5,0,0.8V42l20,0.2v-0.4l0,0l0,0l0,0l0,0
			l0,0l0,0l0,0v-0.1l0,0l0,0l0,0v-0.2l0,0l0,0l0,0v-0.3l0,0l0,0l0,0c0-0.2,0-0.3,0-0.4l0,0v-0.1l0,0v-0.2l0,0
			C83.3,40.4,83.3,40.3,83.3,40.2L83.3,40.2z M83,36.2l-19.8,2.6c0,0.3,0.1,0.7,0.1,1l19.9-1.7c0-0.2,0-0.3,0-0.5l0,0l0,0l0,0l0,0
			l0,0l0,0l0,0l0,0l0,0C83.2,37.1,83.1,36.7,83,36.2L83,36.2z M82.3,32.3l-19.5,4.5l0.2,1l19.7-3.6c-0.1-0.3-0.1-0.6-0.2-1l0,0l0,0
			l0,0l0,0l0,0l0,0l0,0l0,0l0,0l0,0l0,0l0,0l0,0l0,0l0,0l0,0l0,0l0,0l0,0l0,0l0,0l0,0l0,0l-0.1-0.3l0,0v-0.1l0,0l0,0l0,0l-0.1-0.2
			L82.3,32.3z M81.2,28.4l-19,6.4c0.1,0.3,0.2,0.7,0.3,1l19.3-5.4l0,0l0,0l0,0l0,0l0,0l0,0l0,0c-0.1-0.5-0.3-1-0.4-1.5l0,0l0,0l0,0
			c0-0.1-0.1-0.2-0.1-0.3C81.2,28.6,81.2,28.4,81.2,28.4z M79.8,24.7l-18.3,8.2c0.1,0.3,0.3,0.6,0.4,1l18.6-7.3
			C80.3,26,80,25.3,79.8,24.7L79.8,24.7z M78,21.1L60.6,31c0.2,0.3,0.3,0.6,0.5,0.9l17.8-9c-0.3-0.5-0.5-1-0.8-1.5l0,0l0,0l0,0l0,0
			l0,0l0,0l0,0l0,0l0,0l0,0l0,0l0,0l0,0l0,0l0,0L78,21.1z M75.9,17.8L59.5,29.3c0.2,0.3,0.4,0.6,0.6,0.9L77,19.5l-0.1-0.2l0,0l0,0
			l0,0c-0.2-0.3-0.4-0.7-0.7-1l0,0l0,0l0,0L75.9,17.8L75.9,17.8z M73.4,14.6l-15.2,13c0.2,0.3,0.5,0.5,0.7,0.8l15.8-12.3L74.5,16
			l0,0l0,0l0,0l0,0l0,0l0,0l0,0l0,0l0,0l0,0l0,0l0,0l0,0l0,0l0,0l0,0l0,0l0,0l0,0l0,0l0,0l0,0l0,0l0,0l0,0l0,0l0,0l0,0l0,0l0,0l0,0
			l0,0l0,0l0,0l0,0l0,0l0,0l0,0l0,0l0,0l0,0l0,0l0,0l0,0l0,0l0,0l0,0l0,0l0,0l0,0l0,0l0,0l0,0l0,0l0,0l0,0l0,0l0,0l0,0l0,0l0,0l0,0
			l0,0l0,0l0,0l0,0l0,0l0,0l0,0l0,0l0,0l0,0l0,0l0,0l0,0l0,0l0,0l0,0l0,0l-0.1-0.1L73.4,14.6z M70.7,11.7L56.8,26.1
			c0.3,0.2,0.5,0.5,0.7,0.7L72,13.1l0,0C71.5,12.6,71.1,12.1,70.7,11.7L70.7,11.7z M67.6,9L55.2,24.7c0.3,0.2,0.5,0.4,0.8,0.7
			l13.2-15L69,10.2l0,0l0,0l0,0c-0.4-0.4-0.8-0.7-1.3-1L67.6,9z M64.4,6.7L53.5,23.5c0.3,0.2,0.6,0.4,0.9,0.6L66,7.8l-0.5-0.3l0,0
			L65,7.1l0,0l0,0l0,0l0,0l0,0L64.4,6.7L64.4,6.7z M60.9,4.7l-9.2,17.7l0.9,0.5L62.7,5.7l-0.4-0.3l0,0l0,0l0,0l0,0l0,0
			C61.8,5.2,61.4,5,60.9,4.7L60.9,4.7z M57.3,3l-7.5,18.6l1,0.4l8.4-18.2h-0.3C58.4,3.6,57.9,3.4,57.3,3L57.3,3L57.3,3z M53.5,1.7
			l-5.7,19.2l1,0.3l6.6-18.9l-1.3-0.4h-0.2L53.5,1.7L53.5,1.7z M49.6,0.8l-3.8,19.6l1,0.2l4.7-19.4h-0.2L50.5,1h-0.2L49.6,0.8z
			 M45.6,0.2l-1.8,19.9c0.3,0,0.7,0.1,1,0.1l2.9-19.8l-0.5-0.1H47l-0.9-0.1H46L45.6,0.2L45.6,0.2z M41.6,0v20h1l0.9-20
			c-0.4,0-0.8,0-1.2,0H41.6z"/>
	</g>
	<path class="st7" d="M41.7,2c21.9,0,39.7,17.8,39.7,39.7S63.6,81.4,41.7,81.4S2,63.6,2,41.7S19.8,2,41.7,2 M41.7,0
		C18.7,0,0,18.7,0,41.7s18.7,41.7,41.7,41.7s41.7-18.7,41.7-41.7S64.7,0,41.7,0L41.7,0z"/>
	<g class="st8">
		<path d="M77.7,41.7c0,19.9-16.1,36-36,36s-36-16.1-36-36s16.1-36,36-36S77.7,21.8,77.7,41.7z"/>
	</g>
	<g>
		<path class="st9" d="M41.7,69.8c-15.5,0-28.1-12.6-28.1-28.1s12.6-28.1,28.1-28.1s28.1,12.6,28.1,28.1l0,0
			C69.8,57.2,57.2,69.8,41.7,69.8z"/>
		<path class="st5" d="M41.7,16.6c13.9,0,25.1,11.3,25.1,25.1S55.6,66.8,41.7,66.8S16.6,55.6,16.6,41.7l0,0
			C16.6,27.8,27.8,16.6,41.7,16.6 M41.7,10.6c-17.2,0-31.1,13.9-31.1,31.1s13.9,31.1,31.1,31.1s31.1-13.9,31.1-31.1l0,0
			C72.8,24.5,58.9,10.6,41.7,10.6z"/>
	</g>
</g>
</svg>
